<svg width="30" height="30" fill="none" xmlns="http://www.w3.org/2000/svg">
  <circle opacity=".5" cx="15" cy="15" r="14.5" stroke="#fff"/>
  <path
      clip-rule="evenodd"
      d="M18 7.63c0 .587-.201 1.088-.605 1.5-.403.414-.888.62-1.456.62a1.98 1.98 0 01-1.464-.62 2.057 2.057 0 01-.61-1.5c0-.586.204-1.088.61-1.505A1.97 1.97 0 0115.94 5.5c.568 0 1.053.209 1.456.625.404.417.605.919.605 1.505zm-.202 15.473a35.14 35.14 0 01-1.452.668c-.361.153-.78.229-1.26.229-.733 0-1.305-.22-1.712-.656-.408-.437-.611-.992-.611-1.666 0-.26.014-.528.045-.801s.08-.582.148-.926l.758-3.275c.067-.313.125-.61.17-.892.047-.28.07-.536.07-.767 0-.419-.071-.71-.213-.875-.141-.165-.41-.248-.81-.248-.197 0-.398.038-.603.113-.207.074-.328-.797-.328-.797.496-.247.971-.458 1.425-.634a3.576 3.576 0 011.29-.264c.729 0 1.292.216 1.687.646.395.43.593.989.593 1.677 0 .142-.014.393-.041.751-.028.36-.078.688-.152.988l-.755 3.262c-.062.262-.118.562-.166.899-.05.334-.074.59-.074.762 0 .433.08.729.238.886.16.157.435.236.826.236.184 0 .392-.04.624-.118.232-.078.303.802.303.802z"
      stroke="#fff"
  />
</svg>
