<svg width="165" height="195" viewBox="0 0 165 195" fill="none" xmlns="http://www.w3.org/2000/svg">
<path d="M140.525 7.70833H127.462C124.666 7.70833 123.658 7.34167 123.475 10.8708C123.383 12.7042 122.696 14.0792 121.641 15.225C120.541 16.3708 119.075 17.3792 117.379 17.8833C116.233 18.25 114.95 19.6625 113.712 19.6625H111.237L55.8705 19.6625H53.3955C52.158 19.6625 50.8747 19.2042 49.7288 18.8375C48.033 18.2875 46.5205 17.325 45.4663 16.1792C44.3663 14.9875 43.7247 13.6583 43.633 11.825C43.4497 8.29583 42.4413 8.61667 39.6455 8.61667H26.4455C18.4247 8.70833 11.458 14.3917 11.458 22.3667L11.458 303.462C11.458 311.483 18.4247 318.542 26.3997 318.542H140.525C148.546 318.542 154.458 311.483 154.458 303.462V22.3667C154.458 14.3917 148.546 7.70833 140.525 7.70833Z" fill="url(#paint0_linear)"/>
<path d="M163.167 74.7083V23.1917C163.167 9.99167 152.9 0 139.7 0L25.6667 0C12.4667 0 1.375 10.0375 1.375 23.1917L1.375 43.0833H0L0 55.4583H1.375L1.375 66.9167H0L0 90.2917H1.375L1.375 97.1667H0L0 120.542H1.375L1.375 304.517C1.375 317.717 12.5125 329.083 25.6667 329.083H139.7C152.9 329.083 163.167 317.717 163.167 304.517V112.75H165V74.7083H163.167ZM101.887 10.3125C101.887 11.4125 100.971 12.3292 99.8708 12.3292C98.7708 12.3292 97.8542 11.4125 97.8542 10.3125C97.8542 9.2125 98.7708 8.29583 99.8708 8.29583C100.971 8.29583 101.887 9.2125 101.887 10.3125ZM74.6167 10.0833H92.4917C93.2708 10.0833 93.8667 10.5417 93.8667 11.2292C93.8667 11.9167 93.2708 12.375 92.4917 12.375H74.6167C73.8375 12.375 73.2417 11.9167 73.2417 11.2292C73.2417 10.5417 73.8375 10.0833 74.6167 10.0833ZM154.458 303.462C154.458 311.483 148.546 318.542 140.525 318.542H26.4C18.3792 318.542 11.4583 311.483 11.4583 303.462L11.4583 22.3667C11.4583 14.3917 18.425 8.70833 26.4 8.70833L39.6 8.70833C42.3958 8.70833 43.4042 8.29584 43.5875 11.825C43.6792 13.6583 44.3667 15.0333 45.4208 16.225C46.5208 17.3708 47.9875 18.425 49.6833 18.9292C50.8292 19.2958 52.1125 19.7083 53.35 19.7083H55.825L112.146 19.7083H114.621C115.858 19.7083 117.142 19.2042 118.287 18.8375C119.983 18.2875 121.496 17.3708 122.55 16.225C123.65 15.0792 124.292 13.75 124.383 11.9167C124.567 8.3875 125.575 8.6625 128.371 8.6625H140.433C148.454 8.6625 154.367 14.3458 154.367 22.3208V303.462H154.458Z" fill="black"/>
<path d="M163.167 74.7083V23.1917C163.167 9.99167 152.9 0 139.7 0L25.6667 0C12.4667 0 1.375 10.0375 1.375 23.1917L1.375 43.0833H0L0 55.4583H1.375L1.375 66.9167H0L0 90.2917H1.375L1.375 97.1667H0L0 120.542H1.375L1.375 304.517C1.375 317.717 12.5125 329.083 25.6667 329.083H139.7C152.9 329.083 163.167 317.717 163.167 304.517V112.75H165V74.7083H163.167ZM101.887 10.3125C101.887 11.4125 100.971 12.3292 99.8708 12.3292C98.7708 12.3292 97.8542 11.4125 97.8542 10.3125C97.8542 9.2125 98.7708 8.29583 99.8708 8.29583C100.971 8.29583 101.887 9.2125 101.887 10.3125ZM74.6167 10.0833H92.4917C93.2708 10.0833 93.8667 10.5417 93.8667 11.2292C93.8667 11.9167 93.2708 12.375 92.4917 12.375H74.6167C73.8375 12.375 73.2417 11.9167 73.2417 11.2292C73.2417 10.5417 73.8375 10.0833 74.6167 10.0833ZM154.458 303.462C154.458 311.483 148.546 318.542 140.525 318.542H26.4C18.3792 318.542 11.4583 311.483 11.4583 303.462L11.4583 22.3667C11.4583 14.3917 18.425 8.70833 26.4 8.70833L39.6 8.70833C42.3958 8.70833 43.4042 8.29584 43.5875 11.825C43.6792 13.6583 44.3667 15.0333 45.4208 16.225C46.5208 17.3708 47.9875 18.425 49.6833 18.9292C50.8292 19.2958 52.1125 19.7083 53.35 19.7083H55.825L112.146 19.7083H114.621C115.858 19.7083 117.142 19.2042 118.287 18.8375C119.983 18.2875 121.496 17.3708 122.55 16.225C123.65 15.0792 124.292 13.75 124.383 11.9167C124.567 8.3875 125.575 8.6625 128.371 8.6625H140.433C148.454 8.6625 154.367 14.3458 154.367 22.3208V303.462H154.458Z" fill="url(#paint1_linear)" fill-opacity="0.7"/>
<path d="M53.1104 114.557V109.595H31V114.557H38.3101V142.836H45.8003V114.557H53.1104ZM95.5741 122.5C96.0479 122.506 97.1992 122.43 97.4633 122.31C100.125 121.097 102.352 118.847 103.256 109.595H110.638C109.554 119.201 106.1 122.871 103.958 125.222C104.124 125.433 104.291 125.646 104.456 125.862C104.412 125.905 104.369 125.945 104.328 125.981L104.283 126.021C104.825 126.708 105.348 127.41 105.847 128.13C108.359 131.769 110.035 135.645 110.493 139.921C110.588 140.864 110.629 141.834 110.606 142.836H103.426C102.661 131.86 100.311 129.377 97.4633 128.08C97.1375 127.932 95.6679 127.849 95.5741 127.907V142.836H88.0826V109.595H92.8717C93.4849 111.888 94.3907 114.081 95.5741 115.937V122.5ZM81.5857 142.836V109.595H56.5853V142.836H64.0768V114.737H74.0942V142.836H81.5857Z" fill="white"/>
<path fill-rule="evenodd" clip-rule="evenodd" d="M133.504 103.563C133.504 103.563 132.691 110.322 131.064 111.058C132.026 101.697 129.839 99.7667 128.579 97.7119C126.669 94.61 124.576 92.5391 122.265 88.6256C119.611 84.1251 119.228 81.9087 119.228 81.9087C119.228 81.9087 117.63 85.747 118.511 88.1052C116.926 84.035 115.431 80.9948 115.431 77.735C115.431 71.8382 116.84 68 116.84 68C116.84 68 110.361 73.9596 104.733 81.9605C104.143 80.3386 105.764 76.4325 105.764 76.4325C105.764 76.4325 98.3591 82.09 97.5052 92.6995C97.2177 96.2836 97.4287 98.1571 98.3912 100.661C95.442 97.6416 95.5864 91.8188 95.5864 91.8188C95.5864 91.8188 93.6725 97.0508 93.3035 99.409C92.4989 104.511 93.8144 112.44 97.8001 117.026C98.3653 117.678 98.9847 118.352 99.6387 119.057C99.7683 118.86 99.8917 118.651 100.011 118.428C101.344 115.941 101.848 112.25 102.118 109.484C102.176 108.897 102.666 108.453 103.256 108.453H110.638C110.975 108.453 111.267 108.583 111.491 108.834C111.716 109.086 111.812 109.389 111.775 109.724C111.349 113.481 110.472 117.304 108.701 120.671C107.724 122.53 106.626 123.947 105.289 125.452C108.882 130.045 111.961 135.703 111.753 143C111.753 143 125.368 133.153 130.831 121.775C130.879 121.7 130.936 121.66 130.978 121.583C135.661 114.251 133.504 103.563 133.504 103.563ZM103.354 123.117C103.739 123.56 104.123 124.011 104.504 124.474C104.551 124.311 104.501 124.176 104.47 123.972C104.429 123.687 104.314 123.328 103.754 123.181C103.638 123.15 103.501 123.129 103.354 123.117Z" fill="white"/>
<defs>
<linearGradient id="paint0_linear" x1="154.458" y1="8.70833" x2="-4.26953" y2="310.263" gradientUnits="userSpaceOnUse">
<stop stop-color="#453193"/>
<stop offset="0.51" stop-color="#1173BB"/>
<stop offset="1" stop-color="#5FBBEA"/>
</linearGradient>
<linearGradient id="paint1_linear" x1="165" y1="0.10539" x2="4.57892" y2="331.301" gradientUnits="userSpaceOnUse">
<stop stop-color="#453193"/>
<stop offset="0.51" stop-color="#1173BB"/>
<stop offset="1" stop-color="#5FBBEA"/>
</linearGradient>
</defs>
</svg>
