<svg width="26" height="25" viewBox="0 0 26 25" fill="none" xmlns="http://www.w3.org/2000/svg">
<path d="M2 13C2 6.92487 6.92487 2 13 2C19.0751 2 24 6.92487 24 13C24 19.0751 19.0751 24 13 24C6.92487 24 2 19.0751 2 13Z" fill="white"/>
<circle cx="13" cy="13" r="10" stroke="#FF8181" stroke-width="2"/>
<circle cx="9.15" cy="11.3502" r="1.65" fill="#FF8181"/>
<ellipse cx="16.85" cy="11.3502" rx="1.65" ry="1.65" fill="#FF8181"/>
<path d="M9.70001 17.3998C9.70001 17.3998 10.36 16.2998 13 16.2998C15.64 16.2998 16.3 17.3998 16.3 17.3998" stroke="#FF8181" stroke-width="2" stroke-linecap="round" stroke-linejoin="round"/>
<path d="M15.3898 8.40918L17.3682 7.87905" stroke="#FF8181" stroke-width="2" stroke-linecap="round" stroke-linejoin="round"/>
<path d="M10.5397 8.40918L8.56121 7.87905" stroke="#FF8181" stroke-width="2" stroke-linecap="round" stroke-linejoin="round"/>
</svg>
