<svg width="26" height="25" viewBox="0 0 26 25" fill="none" xmlns="http://www.w3.org/2000/svg">
<path d="M2 13C2 6.92487 6.92487 2 13 2V2C19.0751 2 24 6.92487 24 13V13C24 19.0751 19.0751 24 13 24V24C6.92487 24 2 19.0751 2 13V13Z" fill="white"/>
<path d="M12.9997 15.7087C11.792 15.7087 10.9907 15.5557 9.99967 15.3463C9.77334 15.2988 9.33301 15.3463 9.33301 16.0711C9.33301 17.5209 10.8647 19.333 12.9997 19.333C15.1343 19.333 16.6663 17.5209 16.6663 16.0711C16.6663 15.3463 16.226 15.2984 15.9997 15.3463C15.0087 15.5557 14.2073 15.7087 12.9997 15.7087Z" fill="#3BE88A"/>
<path d="M7.33301 11.667C7.33301 11.667 7.66634 10.667 8.99967 10.667C10.333 10.667 10.6663 11.667 10.6663 11.667" stroke="#3BE88A" stroke-width="2" stroke-linecap="round" stroke-linejoin="round"/>
<path d="M15.333 11.667C15.333 11.667 15.6663 10.667 16.9997 10.667C18.333 10.667 18.6663 11.667 18.6663 11.667" stroke="#3BE88A" stroke-width="2" stroke-linecap="round" stroke-linejoin="round"/>
<circle cx="13" cy="13" r="10" stroke="#3BE88A" stroke-width="2"/>
</svg>
