<svg width="24" height="24" fill="none" xmlns="http://www.w3.org/2000/svg">
  <path
      d="M17.599 12c-.8 0-2.4 1.6-5.6 1.6-3.2 0-4.8-1.6-5.6-1.6a1.6 1.6 0 00-1.6 1.6c0 .8.454 1.185.8 1.387.948.555 4 1.813 4 1.813l-3.4 4.35s-.6.748-.6 1.25a1.6 1.6 0 001.6 1.6c.817 0 1.187-.525 1.187-.525s3.607-4.28 3.613-4.275c.005-.006 3.613 4.275 3.613 4.275s.37.525 1.187.525a1.6 1.6 0 001.6-1.6c0-.502-.6-1.25-.6-1.25l-3.4-4.35s3.052-1.258 4-1.813c.345-.202.8-.587.8-1.387a1.6 1.6 0 00-1.6-1.6zM12 0a5.6 5.6 0 100 11.2A5.6 5.6 0 0012 0zm0 8.4a2.8 2.8 0 11-.002-5.599A2.8 2.8 0 0112 8.4z"
      fill="currentColor"
  />
</svg>
