<svg viewBox="0 0 71 83" fill="none" xmlns="http://www.w3.org/2000/svg">
<g clip-path="url(#clip0_29087:169118)">
<path d="M31.2298 2.87251C33.7727 1.4044 36.9056 1.40439 39.4484 2.87251L66.8174 18.674C69.3603 20.1421 70.9267 22.8553 70.9267 25.7915V57.3945C70.9267 60.3307 69.3603 63.0439 66.8174 64.512L39.4484 80.3135C36.9056 81.7817 33.7727 81.7817 31.2298 80.3135L3.86082 64.512C1.31797 63.0439 -0.248486 60.3307 -0.248486 57.3945V25.7915C-0.248486 22.8553 1.31797 20.1421 3.86082 18.674L31.2298 2.87251Z" fill="#FF8181"/>
<g filter="url(#filter0_d_29087:169118)">
<path fill-rule="evenodd" clip-rule="evenodd" d="M34.9289 62.1395C46.0495 62.1395 55.0645 53.1245 55.0645 42.0039C55.0645 30.8833 46.0495 21.8683 34.9289 21.8683C23.8083 21.8683 14.7933 30.8833 14.7933 42.0039C14.7933 53.1245 23.8083 62.1395 34.9289 62.1395ZM34.9289 63.7832C46.82 63.7832 56.4853 54.2536 56.7044 42.4148H63.287C63.3741 47.1248 64.9564 51.4692 67.5791 54.9935V51.9995C65.8916 49.0542 64.9269 45.6417 64.9269 42.0039C64.9269 38.5666 65.7882 35.3305 67.3067 32.4995V29.3886C64.9961 32.6349 63.5535 36.5419 63.3175 40.7711H56.6739C56.0347 29.3163 46.5436 20.2246 34.9289 20.2246C23.3142 20.2246 13.8231 29.3163 13.1839 40.7711H7.36242C7.08258 35.7576 5.10707 31.1968 2 27.6529V30.2946C4.34331 33.5672 5.73038 37.5712 5.75275 41.898V42.1106C5.73038 46.4374 4.34331 50.4413 2 53.7139V56.3557C5.27619 52.6188 7.29429 47.7514 7.39295 42.4148H13.1534C13.3725 54.2536 23.0378 63.7832 34.9289 63.7832Z" fill="white"/>
</g>
<g filter="url(#filter1_d_29087:169118)">
<path d="M33.5743 46.7314C33.4757 46.7314 33.3935 46.6986 33.3278 46.6328C33.273 46.5561 33.2456 46.4684 33.2456 46.3698L33.2785 46.2219L37.3713 36.6554H31.9799C31.8703 36.6554 31.7772 36.6226 31.7005 36.5568C31.6347 36.4801 31.6019 36.387 31.6019 36.2774V35.6199C31.6019 35.4994 31.6347 35.4062 31.7005 35.3405C31.7772 35.2638 31.8703 35.2254 31.9799 35.2254H38.7192C38.8397 35.2254 38.9329 35.2638 38.9986 35.3405C39.0753 35.4062 39.1137 35.4994 39.1137 35.6199V36.2281C39.1137 36.4253 39.0698 36.639 38.9822 36.8691L34.9386 46.3205C34.8838 46.4411 34.8181 46.5397 34.7414 46.6164C34.6756 46.6931 34.5825 46.7314 34.4619 46.7314H33.5743Z" fill="white"/>
</g>
<path d="M31.3907 5.73853C33.6241 4.44905 36.3759 4.44905 38.6093 5.73853L64.1657 20.4935C66.3991 21.783 67.775 24.1661 67.775 26.745V56.255C67.775 58.8339 66.3991 61.217 64.1657 62.5065L38.6093 77.2615C36.3759 78.5509 33.6241 78.5509 31.3907 77.2615L5.83431 62.5065C3.60087 61.217 2.22501 58.8339 2.22501 56.255V26.745C2.22501 24.1661 3.60087 21.783 5.83431 20.4935L31.3907 5.73853Z" stroke="white" stroke-width="2"/>
</g>
<defs>
<filter id="filter0_d_29087:169118" x="-1.28744" y="18.5809" width="72.155" height="50.1335" filterUnits="userSpaceOnUse" color-interpolation-filters="sRGB">
<feFlood flood-opacity="0" result="BackgroundImageFix"/>
<feColorMatrix in="SourceAlpha" type="matrix" values="0 0 0 0 0 0 0 0 0 0 0 0 0 0 0 0 0 0 127 0" result="hardAlpha"/>
<feOffset dy="1.64372"/>
<feGaussianBlur stdDeviation="1.64372"/>
<feColorMatrix type="matrix" values="0 0 0 0 0 0 0 0 0 0 0 0 0 0 0 0 0 0 0.25 0"/>
<feBlend mode="normal" in2="BackgroundImageFix" result="effect1_dropShadow_29087:169118"/>
<feBlend mode="normal" in="SourceGraphic" in2="effect1_dropShadow_29087:169118" result="shape"/>
</filter>
<filter id="filter1_d_29087:169118" x="28.3141" y="33.5819" width="14.0866" height="18.0807" filterUnits="userSpaceOnUse" color-interpolation-filters="sRGB">
<feFlood flood-opacity="0" result="BackgroundImageFix"/>
<feColorMatrix in="SourceAlpha" type="matrix" values="0 0 0 0 0 0 0 0 0 0 0 0 0 0 0 0 0 0 127 0" result="hardAlpha"/>
<feOffset dy="1.64372"/>
<feGaussianBlur stdDeviation="1.64372"/>
<feColorMatrix type="matrix" values="0 0 0 0 0 0 0 0 0 0 0 0 0 0 0 0 0 0 0.25 0"/>
<feBlend mode="normal" in2="BackgroundImageFix" result="effect1_dropShadow_29087:169118"/>
<feBlend mode="normal" in="SourceGraphic" in2="effect1_dropShadow_29087:169118" result="shape"/>
</filter>
<clipPath id="clip0_29087:169118">
<rect width="71" height="82" fill="white" transform="translate(0 0.5)"/>
</clipPath>
</defs>
</svg>
