<svg viewBox="0 0 70 83" fill="none" xmlns="http://www.w3.org/2000/svg">
<g clip-path="url(#clip0_29087:169128)">
<path d="M31.2298 2.87251C33.7727 1.4044 36.9056 1.40439 39.4484 2.87251L66.8174 18.674C69.3603 20.1421 70.9267 22.8553 70.9267 25.7915V57.3945C70.9267 60.3307 69.3603 63.0439 66.8174 64.512L39.4484 80.3135C36.9056 81.7817 33.7727 81.7817 31.2298 80.3135L3.86082 64.512C1.31797 63.0439 -0.248486 60.3307 -0.248486 57.3945V25.7915C-0.248486 22.8553 1.31797 20.1421 3.86082 18.674L31.2298 2.87251Z" fill="#FFCC4A"/>
<g filter="url(#filter0_d_29087:169128)">
<path fill-rule="evenodd" clip-rule="evenodd" d="M34.9289 62.1395C46.0495 62.1395 55.0645 53.1245 55.0645 42.0039C55.0645 30.8833 46.0495 21.8683 34.9289 21.8683C23.8083 21.8683 14.7933 30.8833 14.7933 42.0039C14.7933 53.1245 23.8083 62.1395 34.9289 62.1395ZM34.9289 63.7832C46.82 63.7832 56.4853 54.2536 56.7044 42.4148H63.287C63.3741 47.1248 64.9564 51.4692 67.5791 54.9935V51.9995C65.8916 49.0542 64.9269 45.6417 64.9269 42.0039C64.9269 38.5666 65.7882 35.3305 67.3067 32.4995V29.3886C64.9961 32.6349 63.5535 36.5419 63.3175 40.7711H56.6739C56.0347 29.3163 46.5436 20.2246 34.9289 20.2246C23.3142 20.2246 13.8231 29.3163 13.1839 40.7711H7.36242C7.08258 35.7576 5.10707 31.1968 2 27.6529V30.2946C4.34331 33.5672 5.73038 37.5712 5.75275 41.898V42.1106C5.73038 46.4374 4.34331 50.4413 2 53.7139V56.3557C5.27619 52.6188 7.29429 47.7514 7.39295 42.4148H13.1534C13.3725 54.2536 23.0378 63.7832 34.9289 63.7832Z" fill="white"/>
</g>
<g filter="url(#filter1_d_29087:169128)">
<path d="M28.1833 46.7314C28.0737 46.7314 27.9806 46.6986 27.9039 46.6328C27.8381 46.5561 27.8052 46.463 27.8052 46.3534V45.8274C27.8052 45.5754 27.9422 45.3343 28.2162 45.1042L31.7009 41.6195C32.5446 40.9182 33.1254 40.3483 33.4432 39.91C33.761 39.4607 33.9199 38.9895 33.9199 38.4964C33.9199 37.8608 33.7391 37.3622 33.3775 37.0006C33.0268 36.639 32.5118 36.4582 31.8324 36.4582C31.1968 36.4582 30.6872 36.65 30.3037 37.0335C29.9202 37.4061 29.6846 37.9047 29.5969 38.5293C29.575 38.6608 29.5202 38.7594 29.4325 38.8251C29.3558 38.8799 29.2682 38.9073 29.1695 38.9073H28.3148C28.2162 38.9073 28.134 38.8799 28.0682 38.8251C28.0025 38.7594 27.9696 38.6827 27.9696 38.595C27.9915 38.0033 28.1504 37.4389 28.4463 36.902C28.7422 36.3541 29.175 35.9103 29.7448 35.5706C30.3256 35.2199 31.0215 35.0446 31.8324 35.0446C33.0706 35.0446 34.0021 35.3679 34.6267 36.0144C35.2623 36.65 35.58 37.4609 35.58 38.4471C35.58 39.1375 35.4047 39.7621 35.0541 40.3209C34.7144 40.8688 34.1829 41.4606 33.4596 42.0962L30.3037 45.3014H35.4321C35.5526 45.3014 35.6458 45.3398 35.7115 45.4165C35.7882 45.4822 35.8266 45.5699 35.8266 45.6795V46.3534C35.8266 46.463 35.7882 46.5561 35.7115 46.6328C35.6348 46.6986 35.5417 46.7314 35.4321 46.7314H28.1833ZM41.1837 46.7314C41.0741 46.7314 40.981 46.6986 40.9043 46.6328C40.8385 46.5561 40.8057 46.463 40.8057 46.3534V37.1486L38.0771 39.2525C38.0004 39.3183 37.9182 39.3511 37.8305 39.3511C37.7319 39.3511 37.6388 39.2963 37.5511 39.1868L37.1237 38.6443C37.0689 38.5676 37.0415 38.4909 37.0415 38.4142C37.0415 38.2827 37.0963 38.1786 37.2059 38.1019L40.7892 35.3405C40.9098 35.2638 41.0522 35.2254 41.2166 35.2254H42.0549C42.1645 35.2254 42.2521 35.2638 42.3179 35.3405C42.3946 35.4062 42.4329 35.4939 42.4329 35.6035V46.3534C42.4329 46.463 42.3946 46.5561 42.3179 46.6328C42.2521 46.6986 42.1645 46.7314 42.0549 46.7314H41.1837Z" fill="white"/>
</g>
<path d="M31.3907 5.73853C33.6241 4.44905 36.3759 4.44905 38.6093 5.73853L64.1657 20.4935C66.3991 21.783 67.775 24.1661 67.775 26.745V56.255C67.775 58.8339 66.3991 61.217 64.1657 62.5065L38.6093 77.2615C36.3759 78.5509 33.6241 78.5509 31.3907 77.2615L5.83431 62.5065C3.60087 61.217 2.22501 58.8339 2.22501 56.255V26.745C2.22501 24.1661 3.60087 21.783 5.83431 20.4935L31.3907 5.73853Z" stroke="white" stroke-width="2"/>
</g>
<defs>
<filter id="filter0_d_29087:169128" x="-1.28744" y="18.5809" width="72.155" height="50.1335" filterUnits="userSpaceOnUse" color-interpolation-filters="sRGB">
<feFlood flood-opacity="0" result="BackgroundImageFix"/>
<feColorMatrix in="SourceAlpha" type="matrix" values="0 0 0 0 0 0 0 0 0 0 0 0 0 0 0 0 0 0 127 0" result="hardAlpha"/>
<feOffset dy="1.64372"/>
<feGaussianBlur stdDeviation="1.64372"/>
<feColorMatrix type="matrix" values="0 0 0 0 0 0 0 0 0 0 0 0 0 0 0 0 0 0 0.25 0"/>
<feBlend mode="normal" in2="BackgroundImageFix" result="effect1_dropShadow_29087:169128"/>
<feBlend mode="normal" in="SourceGraphic" in2="effect1_dropShadow_29087:169128" result="shape"/>
</filter>
<filter id="filter1_d_29087:169128" x="24.5172" y="33.4012" width="21.2038" height="18.2614" filterUnits="userSpaceOnUse" color-interpolation-filters="sRGB">
<feFlood flood-opacity="0" result="BackgroundImageFix"/>
<feColorMatrix in="SourceAlpha" type="matrix" values="0 0 0 0 0 0 0 0 0 0 0 0 0 0 0 0 0 0 127 0" result="hardAlpha"/>
<feOffset dy="1.64372"/>
<feGaussianBlur stdDeviation="1.64372"/>
<feColorMatrix type="matrix" values="0 0 0 0 0 0 0 0 0 0 0 0 0 0 0 0 0 0 0.25 0"/>
<feBlend mode="normal" in2="BackgroundImageFix" result="effect1_dropShadow_29087:169128"/>
<feBlend mode="normal" in="SourceGraphic" in2="effect1_dropShadow_29087:169128" result="shape"/>
</filter>
<clipPath id="clip0_29087:169128">
<rect width="70" height="82" fill="white" transform="translate(0 0.5)"/>
</clipPath>
</defs>
</svg>
