<svg viewBox="0 0 70 83" fill="none" xmlns="http://www.w3.org/2000/svg">
<g clip-path="url(#clip0_29087:169140)">
<path d="M31.2298 2.87251C33.7727 1.4044 36.9056 1.40439 39.4484 2.87251L66.8174 18.674C69.3603 20.1421 70.9267 22.8553 70.9267 25.7915V57.3945C70.9267 60.3307 69.3603 63.0439 66.8174 64.512L39.4484 80.3135C36.9056 81.7817 33.7727 81.7817 31.2298 80.3135L3.86082 64.512C1.31797 63.0439 -0.248486 60.3307 -0.248486 57.3945V25.7915C-0.248486 22.8553 1.31797 20.1421 3.86082 18.674L31.2298 2.87251Z" fill="#3BE88A"/>
<g filter="url(#filter0_d_29087:169140)">
<path fill-rule="evenodd" clip-rule="evenodd" d="M34.9289 62.1395C46.0495 62.1395 55.0645 53.1245 55.0645 42.0039C55.0645 30.8833 46.0495 21.8683 34.9289 21.8683C23.8083 21.8683 14.7933 30.8833 14.7933 42.0039C14.7933 53.1245 23.8083 62.1395 34.9289 62.1395ZM34.9289 63.7832C46.82 63.7832 56.4853 54.2536 56.7044 42.4148H63.287C63.3741 47.1248 64.9564 51.4692 67.5791 54.9935V51.9995C65.8916 49.0542 64.9269 45.6417 64.9269 42.0039C64.9269 38.5666 65.7882 35.3305 67.3067 32.4995V29.3886C64.9961 32.6349 63.5535 36.5419 63.3175 40.7711H56.6739C56.0347 29.3163 46.5436 20.2246 34.9289 20.2246C23.3142 20.2246 13.8231 29.3163 13.1839 40.7711H7.36242C7.08258 35.7576 5.10707 31.1968 2 27.6529V30.2946C4.34331 33.5672 5.73038 37.5712 5.75275 41.898V42.1106C5.73038 46.4374 4.34331 50.4413 2 53.7139V56.3557C5.27619 52.6188 7.29429 47.7514 7.39295 42.4148H13.1534C13.3725 54.2536 23.0378 63.7832 34.9289 63.7832Z" fill="white"/>
</g>
<g filter="url(#filter1_d_29087:169140)">
<path d="M30.0842 46.8958C29.2185 46.8958 28.4679 46.7588 27.8323 46.4849C27.2077 46.2 26.731 45.8329 26.4023 45.3836C26.0845 44.9343 25.9147 44.4631 25.8927 43.97C25.8927 43.8714 25.9256 43.7947 25.9914 43.7399C26.0571 43.6741 26.1393 43.6412 26.2379 43.6412H27.0434C27.2735 43.6412 27.4269 43.7618 27.5036 44.0029C27.6461 44.5508 27.9529 44.9398 28.4241 45.1699C28.8953 45.3891 29.4487 45.4987 30.0842 45.4987C30.8623 45.4987 31.4814 45.3178 31.9416 44.9562C32.4019 44.5836 32.632 44.0522 32.632 43.3618C32.632 42.0359 31.8266 41.3729 30.2157 41.3729H28.6542C28.5446 41.3729 28.4515 41.34 28.3748 41.2743C28.309 41.1976 28.2761 41.1044 28.2761 40.9949V40.5511C28.2761 40.3976 28.3364 40.2497 28.457 40.1072L31.6458 36.6226H26.7968C26.6872 36.6226 26.5941 36.5897 26.5174 36.5239C26.4516 36.4472 26.4187 36.3541 26.4187 36.2445V35.6199C26.4187 35.5103 26.4516 35.4172 26.5174 35.3405C26.5941 35.2638 26.6872 35.2254 26.7968 35.2254H33.3552C33.4758 35.2254 33.5689 35.2638 33.6347 35.3405C33.7114 35.4062 33.7497 35.4994 33.7497 35.6199V36.2116C33.7497 36.3431 33.6895 36.4691 33.5689 36.5897L30.3965 40.1237L30.6595 40.1401C31.7773 40.173 32.6594 40.4634 33.3059 41.0113C33.9525 41.5592 34.2757 42.3591 34.2757 43.4111C34.2757 44.1234 34.0949 44.7425 33.7333 45.2685C33.3717 45.7945 32.8731 46.2 32.2375 46.4849C31.6019 46.7588 30.8842 46.8958 30.0842 46.8958ZM40.2685 46.8958C38.8549 46.8958 37.8194 46.4849 37.1619 45.663C36.5044 44.8412 36.1537 43.7618 36.1099 42.4249C36.0989 42.129 36.0935 41.6523 36.0935 40.9949C36.0935 40.3155 36.0989 39.8223 36.1099 39.5155C36.1428 38.2005 36.4934 37.1321 37.1619 36.3103C37.8303 35.4774 38.8659 35.061 40.2685 35.061C41.6821 35.061 42.7231 35.4774 43.3916 36.3103C44.06 37.1321 44.4107 38.2005 44.4436 39.5155C44.4655 40.1292 44.4764 40.6223 44.4764 40.9949C44.4764 41.3565 44.4655 41.8332 44.4436 42.4249C44.3997 43.7618 44.0491 44.8412 43.3916 45.663C42.7341 46.4849 41.6931 46.8958 40.2685 46.8958ZM40.2685 45.4822C41.0904 45.4822 41.7095 45.2083 42.1259 44.6604C42.5533 44.1124 42.7779 43.3399 42.7998 42.3427C42.8217 41.7071 42.8327 41.2469 42.8327 40.962C42.8327 40.6552 42.8217 40.2059 42.7998 39.6141C42.7779 38.6279 42.5588 37.8554 42.1423 37.2965C41.7259 36.7376 41.1013 36.4582 40.2685 36.4582C39.4466 36.4582 38.822 36.7376 38.3947 37.2965C37.9783 37.8554 37.7591 38.6279 37.7372 39.6141L37.7207 40.962L37.7372 42.3427C37.7591 43.3399 37.9783 44.1124 38.3947 44.6604C38.822 45.2083 39.4466 45.4822 40.2685 45.4822Z" fill="white"/>
</g>
<path d="M31.3907 5.73853C33.6241 4.44905 36.3759 4.44905 38.6093 5.73853L64.1657 20.4935C66.3991 21.783 67.775 24.1661 67.775 26.745V56.255C67.775 58.8339 66.3991 61.217 64.1657 62.5065L38.6093 77.2615C36.3759 78.5509 33.6241 78.5509 31.3907 77.2615L5.83431 62.5065C3.60087 61.217 2.22501 58.8339 2.22501 56.255V26.745C2.22501 24.1661 3.60087 21.783 5.83431 20.4935L31.3907 5.73853Z" stroke="white" stroke-width="2"/>
</g>
<defs>
<filter id="filter0_d_29087:169140" x="-1.28744" y="18.5809" width="72.155" height="50.1335" filterUnits="userSpaceOnUse" color-interpolation-filters="sRGB">
<feFlood flood-opacity="0" result="BackgroundImageFix"/>
<feColorMatrix in="SourceAlpha" type="matrix" values="0 0 0 0 0 0 0 0 0 0 0 0 0 0 0 0 0 0 127 0" result="hardAlpha"/>
<feOffset dy="1.64372"/>
<feGaussianBlur stdDeviation="1.64372"/>
<feColorMatrix type="matrix" values="0 0 0 0 0 0 0 0 0 0 0 0 0 0 0 0 0 0 0.25 0"/>
<feBlend mode="normal" in2="BackgroundImageFix" result="effect1_dropShadow_29087:169140"/>
<feBlend mode="normal" in="SourceGraphic" in2="effect1_dropShadow_29087:169140" result="shape"/>
</filter>
<filter id="filter1_d_29087:169140" x="22.6051" y="33.4168" width="25.1589" height="18.4098" filterUnits="userSpaceOnUse" color-interpolation-filters="sRGB">
<feFlood flood-opacity="0" result="BackgroundImageFix"/>
<feColorMatrix in="SourceAlpha" type="matrix" values="0 0 0 0 0 0 0 0 0 0 0 0 0 0 0 0 0 0 127 0" result="hardAlpha"/>
<feOffset dy="1.64372"/>
<feGaussianBlur stdDeviation="1.64372"/>
<feColorMatrix type="matrix" values="0 0 0 0 0 0 0 0 0 0 0 0 0 0 0 0 0 0 0.25 0"/>
<feBlend mode="normal" in2="BackgroundImageFix" result="effect1_dropShadow_29087:169140"/>
<feBlend mode="normal" in="SourceGraphic" in2="effect1_dropShadow_29087:169140" result="shape"/>
</filter>
<clipPath id="clip0_29087:169140">
<rect width="70" height="82" fill="white" transform="translate(0 0.5)"/>
</clipPath>
</defs>
</svg>
