<svg width="50" height="50" viewBox="0 0 50 50" fill="none"
     xmlns="http://www.w3.org/2000/svg">
      <path d="M25 44.0024C35.4947 44.0024 44.0024 35.4947 44.0024 25C44.0024 14.5053 35.4947 5.99765 25 5.99765C14.5053 5.99765 5.99765 14.5053 5.99765 25C5.99765 35.4947 14.5053 44.0024 25 44.0024Z"
            stroke="currentColor" stroke-width="2.13" stroke-miterlimit="1.5"
            stroke-linecap="round" stroke-linejoin="round" />
      <path d="M26.4171 6.94823C26.2183 11.7299 24.1937 16.5907 20.3933 20.3911C16.571 24.2134 11.676 26.2395 6.86655 26.4185"
            stroke="currentColor" stroke-width="2.13" stroke-miterlimit="1.5"
            stroke-linecap="round" stroke-linejoin="round" />
      <path d="M23.6568 43.6501C23.8657 38.7721 25.9573 33.7818 29.871 29.8682C33.7706 25.9685 38.739 23.878 43.6004 23.656"
            stroke="currentColor" stroke-width="2.13" stroke-miterlimit="1.5"
            stroke-linecap="round" stroke-linejoin="round" />
      <path d="M39.0222 12.7069C39.0222 12.7069 33.6366 16.1341 24.6133 25.1573C17.3973 32.3733 12.7059 39.0231 12.7059 39.0231"
            stroke="currentColor" stroke-width="2" stroke-miterlimit="1.5"
            stroke-linecap="round" stroke-linejoin="round" />
      <path d="M11.38 13.613C11.38 13.613 17.9614 15.7278 26.2485 24.0149C34.5357 32.3021 36.5009 38.5 36.5009 38.5"
            stroke="currentColor" stroke-width="2" stroke-miterlimit="1.5"
            stroke-linecap="round" stroke-linejoin="round" />
</svg>