<svg width="50" height="50" viewBox="0 0 50 50" fill="none"
     xmlns="http://www.w3.org/2000/svg">
  <path d="M9 29C8.44772 29 8 29.4477 8 30C8 31.6569 9.34315 33 11 33H40C41.6569 33 43 31.6569 43 30C43 29.4477 42.5523 29 42 29H9Z"
        stroke="currentColor" stroke-width="2" stroke-linecap="round"
        stroke-linejoin="round" />
  <path d="M43 30V26.5C43 22.0817 39.4183 18.5 35 18.5H25.7368C24.08 18.5 22.7368 17.1571 22.7368 15.5003C22.7368 13.8845 22.7368 11.8485 22.7368 9.99986C22.7368 8.89529 21.8426 8 20.7381 8C17.2846 8 12.6053 8 12.6053 8H10C8.89543 8 8 8.89543 8 10V30"
        stroke="currentColor" stroke-width="2" stroke-linecap="round"
        stroke-linejoin="round" />
  <path d="M34 19.4706V21C34 22.1046 33.1046 23 32 23H24.7353C21.5678 23 19 20.4322 19 17.2647V17.2647V8"
        stroke="currentColor" stroke-width="2" stroke-linecap="round"
        stroke-linejoin="round" />
  <mask id="path-5-outside-1" maskUnits="userSpaceOnUse" x="7" y="23" width="8"
        height="7" fill="black">
    <rect fill="currentColor" x="7" y="23" width="8" height="7" />
    <path
          d="M13 28C13 27.606 12.8965 27.2159 12.6955 26.8519C12.4945 26.488 12.1999 26.1573 11.8284 25.8787C11.457 25.6001 11.016 25.3791 10.5307 25.2284C10.0454 25.0776 9.52529 25 9 25L9 28H13Z" />
  </mask>
  <path d="M13 28C13 27.606 12.8965 27.2159 12.6955 26.8519C12.4945 26.488 12.1999 26.1573 11.8284 25.8787C11.457 25.6001 11.016 25.3791 10.5307 25.2284C10.0454 25.0776 9.52529 25 9 25L9 28H13Z"
        stroke="currentColor" stroke-width="4" stroke-linecap="round"
        stroke-linejoin="round" mask="url(#path-5-outside-1)" />
  <circle cx="11" cy="40" r="3" stroke="currentColor" stroke-width="2"
          stroke-linecap="round" stroke-linejoin="round" />
  <circle cx="26" cy="40" r="3" stroke="currentColor" stroke-width="2"
          stroke-linecap="round" stroke-linejoin="round" />
  <circle cx="40" cy="40" r="3" stroke="currentColor" stroke-width="2"
          stroke-linecap="round" stroke-linejoin="round" />
</svg>