<svg width="44" height="45" viewBox="0 0 44 45" fill="none" xmlns="http://www.w3.org/2000/svg">
<path d="M22.5 14.8809C17.5 14.8809 13.23 17.9909 11.5 22.3809C13.23 26.7709 17.5 29.8809 22.5 29.8809C27.5 29.8809 31.77 26.7709 33.5 22.3809C31.77 17.9909 27.5 14.8809 22.5 14.8809ZM22.5 27.3809C19.74 27.3809 17.5 25.1409 17.5 22.3809C17.5 19.6209 19.74 17.3809 22.5 17.3809C25.26 17.3809 27.5 19.6209 27.5 22.3809C27.5 25.1409 25.26 27.3809 22.5 27.3809ZM22.5 19.3809C20.84 19.3809 19.5 20.7209 19.5 22.3809C19.5 24.0409 20.84 25.3809 22.5 25.3809C24.16 25.3809 25.5 24.0409 25.5 22.3809C25.5 20.7209 24.16 19.3809 22.5 19.3809Z" fill="black" fill-opacity="0.3"/>
<path d="M31.9258 11.543L12.8339 30.6349" stroke="#B3B3B3" stroke-width="2" stroke-linecap="round"/>
<path d="M33.3398 12.957L14.248 32.0489" stroke="white" stroke-width="2" stroke-linecap="round"/>
</svg>
