<svg width="180" height="52" viewBox="0 0 180 52" fill="none" xmlns="http://www.w3.org/2000/svg">
<g clip-path="url(#clip0)">
<rect x="0.5" y="0.5" width="179" height="51" rx="9.5" stroke="url(#paint0_linear)"/>
<path d="M63.1363 13.3168C63.1363 14.4023 62.8034 15.2717 62.1477 15.9201C61.3937 16.6887 60.4117 17.0754 59.2084 17.0754C58.0583 17.0754 57.0763 16.6822 56.2707 15.9071C55.4635 15.1206 55.0607 14.1553 55.0607 12.9999C55.0607 11.8446 55.4635 10.8793 56.2707 10.0993C57.0763 9.31769 58.0583 8.92444 59.2084 8.92444C59.7809 8.92444 60.3268 9.03981 60.8478 9.25431C61.3671 9.47044 61.7898 9.76294 62.0961 10.1237L61.4004 10.8094C60.8661 10.1936 60.1388 9.88969 59.2084 9.88969C58.3695 9.88969 57.6422 10.1757 57.0247 10.7526C56.4139 11.3311 56.1076 12.0802 56.1076 12.9999C56.1076 13.9197 56.4139 14.6753 57.0247 15.2538C57.6422 15.8242 58.3695 16.1167 59.2084 16.1167C60.0988 16.1167 60.8478 15.8242 61.4386 15.2473C61.8281 14.8654 62.0495 14.3389 62.1077 13.6662H59.2084V12.7269H63.0764C63.123 12.9301 63.1363 13.1267 63.1363 13.3168Z" fill="url(#paint1_linear)"/>
<path d="M69.2728 10.0603H65.6395V12.5303H68.915V13.4696H65.6395V15.9396H69.2728V16.8967H64.6109V9.10318H69.2728V10.0603Z" fill="url(#paint2_linear)"/>
<path d="M73.6035 16.8967H72.575V10.0603H70.3464V9.10318H75.8338V10.0603H73.6035V16.8967Z" fill="url(#paint3_linear)"/>
<path d="M79.805 16.8967V9.10318H80.8319V16.8967H79.805Z" fill="url(#paint4_linear)"/>
<path d="M85.384 16.8967H84.3637V10.0603H82.1268V9.10318H87.6209V10.0603H85.384V16.8967Z" fill="url(#paint5_linear)"/>
<path d="M98.01 15.8941C97.2227 16.6822 96.2474 17.0754 95.084 17.0754C93.9139 17.0754 92.9386 16.6822 92.1514 15.8941C91.3658 15.1076 90.9746 14.1423 90.9746 12.9999C90.9746 11.8576 91.3658 10.8923 92.1514 10.1058C92.9386 9.31769 93.9139 8.92444 95.084 8.92444C96.2407 8.92444 97.2161 9.31769 98.0033 10.1123C98.7956 10.9053 99.1867 11.8641 99.1867 12.9999C99.1867 14.1423 98.7956 15.1076 98.01 15.8941ZM92.912 15.2408C93.5045 15.8242 94.2252 16.1167 95.084 16.1167C95.9361 16.1167 96.6635 15.8242 97.2493 15.2408C97.8402 14.6574 98.1398 13.9083 98.1398 12.9999C98.1398 12.0916 97.8402 11.3424 97.2493 10.7591C96.6635 10.1757 95.9361 9.88319 95.084 9.88319C94.2252 9.88319 93.5045 10.1757 92.912 10.7591C92.3211 11.3424 92.0215 12.0916 92.0215 12.9999C92.0215 13.9083 92.3211 14.6574 92.912 15.2408Z" fill="url(#paint6_linear)"/>
<path d="M100.63 16.8967V9.10318H101.878L105.759 15.1644H105.804L105.759 13.6662V9.10318H106.786V16.8967H105.714L101.65 10.5364H101.605L101.65 12.0412V16.8967H100.63Z" fill="url(#paint7_linear)"/>
<path d="M90.7217 28.2782C87.5943 28.2782 85.0395 30.602 85.0395 33.8081C85.0395 36.9882 87.5943 39.3363 90.7217 39.3363C93.8557 39.3363 96.4105 36.9882 96.4105 33.8081C96.4105 30.602 93.8557 28.2782 90.7217 28.2782ZM90.7217 37.1588C89.0057 37.1588 87.5294 35.776 87.5294 33.8081C87.5294 31.8142 89.0057 30.4557 90.7217 30.4557C92.4377 30.4557 93.9206 31.8142 93.9206 33.8081C93.9206 35.776 92.4377 37.1588 90.7217 37.1588ZM78.3238 28.2782C75.1898 28.2782 72.6416 30.602 72.6416 33.8081C72.6416 36.9882 75.1898 39.3363 78.3238 39.3363C81.4561 39.3363 84.0059 36.9882 84.0059 33.8081C84.0059 30.602 81.4561 28.2782 78.3238 28.2782ZM78.3238 37.1588C76.6061 37.1588 75.1248 35.776 75.1248 33.8081C75.1248 31.8142 76.6061 30.4557 78.3238 30.4557C80.0397 30.4557 81.516 31.8142 81.516 33.8081C81.516 35.776 80.0397 37.1588 78.3238 37.1588ZM63.5707 29.9731V32.3228H69.3178C69.1497 33.6358 68.7004 34.6011 68.0113 35.2738C67.1725 36.0863 65.8659 36.9882 63.5707 36.9882C60.034 36.9882 57.2644 34.2013 57.2644 30.7482C57.2644 27.2951 60.034 24.5082 63.5707 24.5082C65.4831 24.5082 66.8745 25.2378 67.9015 26.1836L69.5975 24.5277C68.1611 23.1887 66.2504 22.1601 63.5707 22.1601C58.7208 22.1601 54.6447 26.013 54.6447 30.7482C54.6447 35.4835 58.7208 39.3363 63.5707 39.3363C66.1921 39.3363 68.1611 38.4978 69.709 36.9248C71.2951 35.3762 71.7894 33.1987 71.7894 31.4405C71.7894 30.8945 71.7428 30.3923 71.6596 29.9731H63.5707ZM123.898 31.7947C123.43 30.5581 121.987 28.2782 119.048 28.2782C116.135 28.2782 113.71 30.5191 113.71 33.8081C113.71 36.9053 116.11 39.3363 119.327 39.3363C121.929 39.3363 123.43 37.7877 124.047 36.8858L122.117 35.6297C121.473 36.5495 120.596 37.1588 119.327 37.1588C118.067 37.1588 117.164 36.595 116.584 35.4835L124.159 32.4236L123.898 31.7947ZM116.175 33.6358C116.11 31.5038 117.871 30.4118 119.133 30.4118C120.121 30.4118 120.96 30.8945 121.24 31.5851L116.175 33.6358ZM110.018 39H112.508V22.75H110.018V39ZM105.941 29.51H105.858C105.298 28.8632 104.231 28.2782 102.88 28.2782C100.044 28.2782 97.4508 30.7092 97.4508 33.826C97.4508 36.9248 100.044 39.3363 102.88 39.3363C104.231 39.3363 105.298 38.7465 105.858 38.0802H105.941V38.8732C105.941 40.9873 104.784 42.1232 102.918 42.1232C101.397 42.1232 100.453 41.0507 100.064 40.1488L97.8985 41.0312C98.5226 42.497 100.175 44.3007 102.918 44.3007C105.838 44.3007 108.301 42.6237 108.301 38.5433V28.6146H105.941V29.51ZM103.093 37.1588C101.377 37.1588 99.9407 35.7565 99.9407 33.826C99.9407 31.8776 101.377 30.4557 103.093 30.4557C104.784 30.4557 106.117 31.8776 106.117 33.826C106.117 35.7565 104.784 37.1588 103.093 37.1588ZM135.555 22.75H129.6V39H132.083V32.8428H135.555C138.313 32.8428 141.017 30.8945 141.017 27.7956C141.017 24.6983 138.306 22.75 135.555 22.75ZM135.62 30.5825H132.083V25.0103H135.62C137.474 25.0103 138.533 26.5135 138.533 27.7956C138.533 29.0533 137.474 30.5825 135.62 30.5825ZM150.97 28.2473C149.176 28.2473 147.31 29.0208 146.543 30.7352L148.747 31.6371C149.221 30.7352 150.093 30.4427 151.015 30.4427C152.304 30.4427 153.61 31.1983 153.63 32.5325V32.7031C153.181 32.4496 152.219 32.0742 151.035 32.0742C148.662 32.0742 146.244 33.3498 146.244 35.7305C146.244 37.908 148.188 39.3103 150.373 39.3103C152.044 39.3103 152.966 38.5742 153.545 37.7178H153.63V38.974H156.028V32.7405C156.028 29.8593 153.825 28.2473 150.97 28.2473ZM150.671 37.1523C149.859 37.1523 148.727 36.7591 148.727 35.776C148.727 34.5182 150.138 34.0356 151.36 34.0356C152.453 34.0356 152.966 34.2712 153.63 34.5816C153.435 36.0863 152.109 37.1523 150.671 37.1523ZM164.766 28.6032L161.912 35.6476H161.827L158.876 28.6032H156.198L160.632 38.4475L158.102 43.9253H160.697L167.529 28.6032H164.766ZM142.382 39H144.872V22.75H142.382V39Z" fill="url(#paint8_linear)"/>
<path d="M13.6203 10.5281C13.2074 10.8335 13 11.4443 13 12.2567V39.1975C13 39.9101 13.2074 40.521 13.6203 40.9282L13.723 41.03L29.111 25.9796V25.4706L13.6203 10.5261V10.5281ZM37.4686 31.2896L32.295 26.3094V25.9022L37.4706 20.92L37.5733 21.0218L43.6814 24.3772C45.4395 25.3952 45.4395 26.9182 43.6814 27.9362L37.5733 31.2916H37.4706L37.4686 31.2896ZM35.8635 32.5254L30.5852 27.3397L15.1629 42.4878C15.7832 43.0986 16.7156 43.2004 17.7507 42.5896L35.8635 32.5254ZM35.9683 19.4744L17.7507 9.41032C16.7156 8.79951 15.7832 8.90131 15.1629 9.51212L30.6899 24.6602L35.9663 19.4744H35.9683Z" fill="url(#paint9_linear)"/>
</g>
<defs>
<linearGradient id="paint0_linear" x1="171.115" y1="40.0889" x2="4.58836" y2="45.3396" gradientUnits="userSpaceOnUse">
<stop stop-color="#453193"/>
<stop offset="0.51" stop-color="#1173BB"/>
<stop offset="1" stop-color="#5FBBEA"/>
</linearGradient>
<linearGradient id="paint1_linear" x1="159.902" y1="36.1974" x2="17.0232" y2="41.8824" gradientUnits="userSpaceOnUse">
<stop stop-color="#453193"/>
<stop offset="0.51" stop-color="#1173BB"/>
<stop offset="1" stop-color="#5FBBEA"/>
</linearGradient>
<linearGradient id="paint2_linear" x1="159.902" y1="36.1974" x2="17.0232" y2="41.8824" gradientUnits="userSpaceOnUse">
<stop stop-color="#453193"/>
<stop offset="0.51" stop-color="#1173BB"/>
<stop offset="1" stop-color="#5FBBEA"/>
</linearGradient>
<linearGradient id="paint3_linear" x1="159.902" y1="36.1974" x2="17.0232" y2="41.8824" gradientUnits="userSpaceOnUse">
<stop stop-color="#453193"/>
<stop offset="0.51" stop-color="#1173BB"/>
<stop offset="1" stop-color="#5FBBEA"/>
</linearGradient>
<linearGradient id="paint4_linear" x1="159.902" y1="36.1974" x2="17.0232" y2="41.8824" gradientUnits="userSpaceOnUse">
<stop stop-color="#453193"/>
<stop offset="0.51" stop-color="#1173BB"/>
<stop offset="1" stop-color="#5FBBEA"/>
</linearGradient>
<linearGradient id="paint5_linear" x1="159.902" y1="36.1974" x2="17.0232" y2="41.8824" gradientUnits="userSpaceOnUse">
<stop stop-color="#453193"/>
<stop offset="0.51" stop-color="#1173BB"/>
<stop offset="1" stop-color="#5FBBEA"/>
</linearGradient>
<linearGradient id="paint6_linear" x1="159.902" y1="36.1974" x2="17.0232" y2="41.8824" gradientUnits="userSpaceOnUse">
<stop stop-color="#453193"/>
<stop offset="0.51" stop-color="#1173BB"/>
<stop offset="1" stop-color="#5FBBEA"/>
</linearGradient>
<linearGradient id="paint7_linear" x1="159.902" y1="36.1974" x2="17.0232" y2="41.8824" gradientUnits="userSpaceOnUse">
<stop stop-color="#453193"/>
<stop offset="0.51" stop-color="#1173BB"/>
<stop offset="1" stop-color="#5FBBEA"/>
</linearGradient>
<linearGradient id="paint8_linear" x1="159.902" y1="36.1974" x2="17.0232" y2="41.8824" gradientUnits="userSpaceOnUse">
<stop stop-color="#453193"/>
<stop offset="0.51" stop-color="#1173BB"/>
<stop offset="1" stop-color="#5FBBEA"/>
</linearGradient>
<linearGradient id="paint9_linear" x1="159.902" y1="36.1974" x2="17.0232" y2="41.8824" gradientUnits="userSpaceOnUse">
<stop stop-color="#453193"/>
<stop offset="0.51" stop-color="#1173BB"/>
<stop offset="1" stop-color="#5FBBEA"/>
</linearGradient>
<clipPath id="clip0">
<rect width="144" height="41.6" fill="white" transform="matrix(1.25 0 0 -1.25 0 52)"/>
</clipPath>
</defs>
</svg>
