<svg width="24" height="24" viewBox="0 0 24 24" fill="none"
  xmlns="http://www.w3.org/2000/svg">
  <path fill-rule="evenodd" clip-rule="evenodd"
    d="M11.9993 13C13.9323 13 15.4993 11.433 15.4993 9.5C15.4993 7.567 13.9323 6 11.9993 6C10.0663 6 8.49933 7.567 8.49933 9.5C8.49933 11.433 10.0663 13 11.9993 13ZM11.9993 11.2C12.9382 11.2 13.6993 10.4389 13.6993 9.49999C13.6993 8.5611 12.9382 7.79999 11.9993 7.79999C11.0604 7.79999 10.2993 8.5611 10.2993 9.49999C10.2993 10.4389 11.0604 11.2 11.9993 11.2Z"
    fill="black" />
  <path fill-rule="evenodd" clip-rule="evenodd"
    d="M4.24219 9.76987C4.24219 5.48026 7.71361 2 11.9993 2C16.2851 2 19.7565 5.48026 19.7565 9.76987C19.7565 12.903 17.7824 16.6225 14.1917 20.8679C14.0886 20.9898 13.9755 21.1029 13.8536 21.206C12.6428 22.2301 10.831 22.0787 9.80691 20.8679L9.23983 20.1974L9.24559 20.1923C6.01105 16.2269 4.24219 12.7357 4.24219 9.76987ZM11.1843 19.7091C11.567 20.1576 12.2406 20.2128 12.6912 19.8317C12.7367 19.7932 12.7789 19.751 12.8174 19.7055C16.3626 15.5139 17.9565 12.2221 17.9565 9.76987C17.9565 6.47123 15.2878 3.8 11.9993 3.8C8.71086 3.8 6.04219 6.47123 6.04219 9.76987C6.04219 12.2221 7.63606 15.5139 11.1813 19.7055L11.1843 19.7091Z"
    fill="black" />
</svg>