<svg width="16" height="16" viewBox="0 0 16 16" fill="none" xmlns="http://www.w3.org/2000/svg">
<g clip-path="url(#clip0)">
<path d="M7.13396 2.83317C7.51886 2.1665 8.4811 2.1665 8.866 2.83317L14.0622 11.8332C14.4471 12.4998 13.9659 13.3332 13.1961 13.3332H2.80383C2.03403 13.3332 1.5529 12.4998 1.9378 11.8332L7.13396 2.83317Z" fill="#FF4C4A" fill-opacity="0.4" stroke="#FF4C4A" stroke-width="0.666667"/>
<path d="M8.54525 9.79346H7.78418L7.72493 5.03109H8.60905L8.54525 9.79346ZM7.69303 11.2427C7.69303 11.106 7.73405 10.992 7.81608 10.9009C7.90115 10.8067 8.02572 10.7596 8.18978 10.7596C8.35384 10.7596 8.47841 10.8067 8.56348 10.9009C8.64855 10.992 8.69108 11.106 8.69108 11.2427C8.69108 11.3794 8.64855 11.4933 8.56348 11.5845C8.47841 11.6726 8.35384 11.7166 8.18978 11.7166C8.02572 11.7166 7.90115 11.6726 7.81608 11.5845C7.73405 11.4933 7.69303 11.3794 7.69303 11.2427Z" fill="white"/>
</g>
<defs>
<clipPath id="clip0">
<rect width="16" height="16" fill="white"/>
</clipPath>
</defs>
</svg>
