<svg width="97" height="77" viewBox="0 0 97 77" fill="none"
     xmlns="http://www.w3.org/2000/svg">
  <path fill-rule="evenodd" clip-rule="evenodd"
        d="M19 60C8.50659 60 0 51.4934 0 41C0 30.5066 8.50659 22 19 22C19.6921 22 20.3756 22.037 21.0486 22.1092C24.5128 9.36873 36.1623 0 50 0C65.213 0 77.7812 11.3236 79.7359 26.002C79.8238 26.0007 79.9118 26 80 26C89.3888 26 97 33.6112 97 43C97 52.3888 89.3888 60 80 60H50H19Z"
        fill="currentColor" />
  <path d="M54 77H43V49H35L48.5 35L62 49H54V77Z" fill="#00BBF1" />
</svg>