<svg width="24" height="24" viewBox="0 0 24 24" fill="none"
     xmlns="http://www.w3.org/2000/svg">
  <path opacity="0.2"
        d="M14.218 14H9.78195C9.46202 14 9.16139 14.1531 8.97322 14.4118L7.15503 16.9118C6.67433 17.5728 7.14648 18.5 7.96377 18.5H16.0362C16.8535 18.5 17.3257 17.5728 16.845 16.9118L15.0268 14.4118C14.8386 14.1531 14.538 14 14.218 14Z"
        fill="white" />
  <path d="M10.1667 9.5778V7.17778C10.1667 6.47208 9.59459 5.9 8.88889 5.9H8.81111C8.70065 5.9 8.61111 5.81046 8.61111 5.7C8.61111 5.58954 8.70065 5.5 8.81111 5.5H15.1889C15.2993 5.5 15.3889 5.58954 15.3889 5.7C15.3889 5.81046 15.2993 5.9 15.1889 5.9H15.1111C14.4054 5.9 13.8333 6.47208 13.8333 7.17778V9.5778C13.8333 11.2559 14.3301 12.8965 15.2609 14.2927L17.5475 17.7227C17.769 18.0549 17.5308 18.5 17.1315 18.5H6.86852C6.46917 18.5 6.23097 18.0549 6.45249 17.7227L8.73909 14.2927C9.66994 12.8965 10.1667 11.2559 10.1667 9.5778Z"
        stroke="white" />
</svg>