<svg width="24" height="24" viewBox="0 0 24 24" fill="none" xmlns="http://www.w3.org/2000/svg">
<path opacity="0.2" d="M20 12C20 16.4183 16.4183 20 12 20C7.58172 20 4 16.4183 4 12C4 7.58172 7.58172 4 12 4C16.4183 4 20 7.58172 20 12ZM8.8 12C8.8 13.7673 10.2327 15.2 12 15.2C13.7673 15.2 15.2 13.7673 15.2 12C15.2 10.2327 13.7673 8.8 12 8.8C10.2327 8.8 8.8 10.2327 8.8 12Z" fill="#FF4C4A"/>
<path d="M20 12C20 16.4183 16.4183 20 12 20C7.58172 20 4 16.4183 4 12C4 7.58172 7.58172 4 12 4C16.4183 4 20 7.58172 20 12ZM8.8 12C8.8 13.7673 10.2327 15.2 12 15.2C13.7673 15.2 15.2 13.7673 15.2 12C15.2 10.2327 13.7673 8.8 12 8.8C10.2327 8.8 8.8 10.2327 8.8 12Z" fill="#FF4C4A"/>
</svg>
