<svg width="24" height="24" viewBox="0 0 24 24" fill="none" xmlns="http://www.w3.org/2000/svg">
<path opacity="0.2" d="M20 12C20 16.4183 16.4183 20 12 20C7.58172 20 4 16.4183 4 12C4 7.58172 7.58172 4 12 4C16.4183 4 20 7.58172 20 12ZM8.8 12C8.8 13.7673 10.2327 15.2 12 15.2C13.7673 15.2 15.2 13.7673 15.2 12C15.2 10.2327 13.7673 8.8 12 8.8C10.2327 8.8 8.8 10.2327 8.8 12Z" fill="#E9ED0F"/>
<path d="M12 4C10.6844 4 9.38909 4.32446 8.22883 4.94463C7.06856 5.5648 6.07916 6.46155 5.34824 7.55544C4.61733 8.64933 4.16747 9.90659 4.03852 11.2159C3.90957 12.5251 4.1055 13.846 4.60896 15.0615C5.11242 16.2769 5.90787 17.3495 6.92485 18.1841C7.94183 19.0187 9.14895 19.5896 10.4393 19.8463C11.7296 20.1029 13.0633 20.0374 14.3223 19.6555C15.5812 19.2736 16.7266 18.5871 17.6569 17.6569L14.2627 14.2627C13.8906 14.6349 13.4325 14.9094 12.9289 15.0622C12.4253 15.215 11.8918 15.2412 11.3757 15.1385C10.8596 15.0358 10.3767 14.8075 9.96994 14.4736C9.56315 14.1398 9.24497 13.7108 9.04359 13.2246C8.8422 12.7384 8.76383 12.2101 8.81541 11.6863C8.86699 11.1626 9.04693 10.6597 9.3393 10.2222C9.63166 9.78462 10.0274 9.42592 10.4915 9.17785C10.9556 8.92978 11.4738 8.8 12 8.8V4Z" fill="#E9ED0F"/>
</svg>
