<svg width="24" height="24" viewBox="0 0 24 24" fill="none" xmlns="http://www.w3.org/2000/svg">
<g clip-path="url(#clip0_2765_25)">
<path d="M10.701 4.25C11.2783 3.25 12.7217 3.25 13.299 4.25L21.0933 17.75C21.6706 18.75 20.9489 20 19.7942 20H4.20577C3.05107 20 2.32938 18.75 2.90673 17.75L10.701 4.25Z" fill="#FF4C4A" fill-opacity="0.4" stroke="#FF4C4A"/>
<path d="M12.5674 15.1904H11.4258L11.3369 8.04688H12.6631L12.5674 15.1904ZM11.2891 17.3643C11.2891 17.1592 11.3506 16.9883 11.4736 16.8516C11.6012 16.7103 11.7881 16.6396 12.0342 16.6396C12.2803 16.6396 12.4671 16.7103 12.5947 16.8516C12.7223 16.9883 12.7861 17.1592 12.7861 17.3643C12.7861 17.5693 12.7223 17.7402 12.5947 17.877C12.4671 18.0091 12.2803 18.0752 12.0342 18.0752C11.7881 18.0752 11.6012 18.0091 11.4736 17.877C11.3506 17.7402 11.2891 17.5693 11.2891 17.3643Z" fill="white"/>
</g>
<defs>
<clipPath id="clip0_2765_25">
<rect width="24" height="24" fill="white"/>
</clipPath>
</defs>
</svg>
