<svg width="24" height="24" viewBox="0 0 24 24" fill="none" xmlns="http://www.w3.org/2000/svg">
<rect opacity="0.2" x="4" y="9" width="14" height="6" fill="white"/>
<mask id="path-2-inside-1_2765_31" fill="white">
<path fill-rule="evenodd" clip-rule="evenodd" d="M3 7C2.44772 7 2 7.44772 2 8V16C2 16.5523 2.44772 17 3 17H19C19.5523 17 20 16.5523 20 16V15H21C21.5523 15 22 14.5523 22 14V10C22 9.44772 21.5523 9 21 9H20V8C20 7.44772 19.5523 7 19 7H3Z"/>
</mask>
<path d="M20 15V14H19V15H20ZM20 9H19V10H20V9ZM3 8V8V6C1.89543 6 1 6.89543 1 8H3ZM3 16V8H1V16H3ZM3 16H3H1C1 17.1046 1.89543 18 3 18V16ZM19 16H3V18H19V16ZM19 16V18C20.1046 18 21 17.1046 21 16H19ZM19 15V16H21V15H19ZM21 14H20V16H21V14ZM21 14V16C22.1046 16 23 15.1046 23 14H21ZM21 10V14H23V10H21ZM21 10H23C23 8.89543 22.1046 8 21 8V10ZM20 10H21V8H20V10ZM19 8V9H21V8H19ZM19 8H21C21 6.89543 20.1046 6 19 6V8ZM3 8H19V6H3V8Z" fill="white" mask="url(#path-2-inside-1_2765_31)"/>
<mask id="path-4-outside-2_2765_31" maskUnits="userSpaceOnUse" x="6" y="7" width="10" height="10" fill="black">
<rect fill="white" x="6" y="7" width="10" height="10"/>
<path fill-rule="evenodd" clip-rule="evenodd" d="M12 8H10V11H7V13H10V16H12V13H15V11H12V8Z"/>
</mask>
<path fill-rule="evenodd" clip-rule="evenodd" d="M12 8H10V11H7V13H10V16H12V13H15V11H12V8Z" fill="white"/>
<path d="M10 8V7H9V8H10ZM12 8H13V7H12V8ZM10 11V12H11V11H10ZM7 11V10H6V11H7ZM7 13H6V14H7V13ZM10 13H11V12H10V13ZM10 16H9V17H10V16ZM12 16V17H13V16H12ZM12 13V12H11V13H12ZM15 13V14H16V13H15ZM15 11H16V10H15V11ZM12 11H11V12H12V11ZM10 9H12V7H10V9ZM11 11V8H9V11H11ZM7 12H10V10H7V12ZM8 13V11H6V13H8ZM10 12H7V14H10V12ZM11 16V13H9V16H11ZM12 15H10V17H12V15ZM11 13V16H13V13H11ZM15 12H12V14H15V12ZM14 11V13H16V11H14ZM12 12H15V10H12V12ZM11 8V11H13V8H11Z" fill="#292F59" mask="url(#path-4-outside-2_2765_31)"/>
</svg>
