<svg width="24" height="24" viewBox="0 0 24 24" fill="none" xmlns="http://www.w3.org/2000/svg">
<rect opacity="0.2" x="4" y="9" width="14" height="6" fill="white"/>
<mask id="path-2-inside-1_2765_30" fill="white">
<path fill-rule="evenodd" clip-rule="evenodd" d="M3 7C2.44772 7 2 7.44772 2 8V16C2 16.5523 2.44772 17 3 17H19C19.5523 17 20 16.5523 20 16V15H21C21.5523 15 22 14.5523 22 14V10C22 9.44772 21.5523 9 21 9H20V8C20 7.44772 19.5523 7 19 7H3Z"/>
</mask>
<path d="M20 15V14H19V15H20ZM20 9H19V10H20V9ZM3 8V8V6C1.89543 6 1 6.89543 1 8H3ZM3 16V8H1V16H3ZM3 16H3H1C1 17.1046 1.89543 18 3 18V16ZM19 16H3V18H19V16ZM19 16V18C20.1046 18 21 17.1046 21 16H19ZM19 15V16H21V15H19ZM21 14H20V16H21V14ZM21 14V16C22.1046 16 23 15.1046 23 14H21ZM21 10V14H23V10H21ZM21 10H23C23 8.89543 22.1046 8 21 8V10ZM20 10H21V8H20V10ZM19 8V9H21V8H19ZM19 8H21C21 6.89543 20.1046 6 19 6V8ZM3 8H19V6H3V8Z" fill="white" mask="url(#path-2-inside-1_2765_30)"/>
<mask id="path-4-outside-2_2765_30" maskUnits="userSpaceOnUse" x="7" y="5" width="9" height="14" fill="black">
<rect fill="white" x="7" y="5" width="9" height="14"/>
<path fill-rule="evenodd" clip-rule="evenodd" d="M13 6L9 13H10.7143L10 18L14 11H12.2857L13 6Z"/>
</mask>
<path fill-rule="evenodd" clip-rule="evenodd" d="M13 6L9 13H10.7143L10 18L14 11H12.2857L13 6Z" fill="white"/>
<path d="M9 13L8.13176 12.5039L7.27682 14H9V13ZM13 6L13.9899 6.14142L12.1318 5.50386L13 6ZM10.7143 13L11.7042 13.1414L11.8673 12H10.7143V13ZM10 18L9.01005 17.8586L10.8682 18.4961L10 18ZM14 11L14.8682 11.4961L15.7232 10H14V11ZM12.2857 11L11.2958 10.8586L11.1327 12H12.2857V11ZM9.86824 13.4961L13.8682 6.49614L12.1318 5.50386L8.13176 12.5039L9.86824 13.4961ZM10.7143 12H9V14H10.7143V12ZM10.9899 18.1414L11.7042 13.1414L9.72434 12.8586L9.01005 17.8586L10.9899 18.1414ZM13.1318 10.5039L9.13176 17.5039L10.8682 18.4961L14.8682 11.4961L13.1318 10.5039ZM12.2857 12H14V10H12.2857V12ZM12.0101 5.85858L11.2958 10.8586L13.2757 11.1414L13.9899 6.14142L12.0101 5.85858Z" fill="#292F59" mask="url(#path-4-outside-2_2765_30)"/>
</svg>
