<svg width="24" height="24" viewBox="0 0 24 24" fill="none" xmlns="http://www.w3.org/2000/svg">
<path fill-rule="evenodd" clip-rule="evenodd" d="M5.92808 18.0772C5.9245 18.0772 5.92092 18.0772 5.91733 18.0772C3.75385 18.0772 2 16.2232 2 13.9361C2 11.649 3.75385 9.79498 5.91733 9.79498C6.06075 9.79498 6.20237 9.80313 6.3418 9.81901C7.05597 7.04207 9.45787 5 12.3109 5C15.4475 5 18.0387 7.468 18.4418 10.6672C18.4595 10.6669 18.4772 10.6668 18.495 10.6668C20.4308 10.6668 22 12.3257 22 14.372C22 16.4183 20.4308 18.0772 18.495 18.0772C18.4933 18.0772 18.4916 18.0772 18.4899 18.0772H5.92808Z" fill="white"/>
</svg>
