<svg width="24" height="24" viewBox="0 0 24 24" fill="none" xmlns="http://www.w3.org/2000/svg">
<path d="M13.8013 4.79395L8.99744 13.2008H11.0564L10.1985 19.2057L15.0024 10.7989H12.9435L13.8013 4.79395Z" fill="white"/>
<g opacity="0.2">
<path d="M9.12534 18.6578C6.55125 17.5448 4.75 14.9828 4.75 12C4.75 7.99594 7.99594 4.75 12 4.75C12.0831 4.75 12.1659 4.7514 12.2483 4.75417L13.0707 3.31486C12.7198 3.27204 12.3625 3.25 12 3.25C7.16751 3.25 3.25 7.16751 3.25 12C3.25 15.7435 5.60085 18.9379 8.9068 20.1876L9.12534 18.6578Z" fill="#C4C4C4"/>
<path d="M11.7513 19.2458C11.8338 19.2486 11.9168 19.25 12 19.25C16.0041 19.25 19.25 16.0041 19.25 12C19.25 9.01718 17.4487 6.45508 14.8745 5.34218L15.093 3.81238C18.3991 5.06195 20.75 8.25643 20.75 12C20.75 16.8325 16.8325 20.75 12 20.75C11.6374 20.75 11.2799 20.7279 10.9288 20.6851L11.7513 19.2458Z" fill="#C4C4C4"/>
</g>
</svg>
