<svg width="24" height="24" viewBox="0 0 24 24" fill="none" xmlns="http://www.w3.org/2000/svg">
<path d="M15.3913 12.0867H17.0435C17.9559 12.0867 18.6956 12.8264 18.6956 13.7389V17.0432C18.6956 17.7276 19.2504 18.2824 19.9348 18.2824V18.2824C20.6191 18.2824 21.1739 17.7276 21.1739 17.0432V9.46673C21.1739 9.02854 20.9998 8.60831 20.69 8.29846L17.8696 5.47803" stroke="white" stroke-width="0.826087"/>
<path d="M20.3478 7.95646C20.8041 8.41269 20.8041 9.1524 20.3478 9.60863C19.8916 10.0649 19.1519 10.0649 18.6957 9.60863C18.2394 9.1524 18.2394 8.41269 18.6957 7.95646C19.1519 7.50022 19.8916 7.50022 20.3478 7.95646Z" stroke="white" stroke-width="0.826087"/>
<rect x="4.65216" y="3" width="11.5652" height="18.1739" rx="0.826087" fill="white"/>
<rect x="3" y="20.3477" width="14.8696" height="1.65217" rx="0.826087" fill="white"/>
<rect opacity="0.4" x="6.30432" y="5.47803" width="8.26087" height="6.6087" fill="#1C2141"/>
</svg>
