<svg width="24" height="24" viewBox="0 0 24 24" fill="none"
     xmlns="http://www.w3.org/2000/svg">
  <path opacity="0.2"
        d="M20 12C20 13.0506 19.7931 14.0909 19.391 15.0615C18.989 16.0321 18.3997 16.914 17.6569 17.6569C16.914 18.3997 16.0321 18.989 15.0615 19.391C14.0909 19.7931 13.0506 20 12 20C10.9494 20 9.90914 19.7931 8.93853 19.391C7.96793 18.989 7.08601 18.3997 6.34315 17.6569C5.60028 16.914 5.011 16.0321 4.60896 15.0615C4.20693 14.0909 4 13.0506 4 12C4 10.9494 4.20693 9.90914 4.60896 8.93853C5.011 7.96793 5.60028 7.08601 6.34315 6.34315C7.08602 5.60028 7.96793 5.011 8.93853 4.60896C9.90914 4.20693 10.9494 4 12 4C13.0506 4 14.0909 4.20693 15.0615 4.60896C16.0321 5.011 16.914 5.60028 17.6569 6.34315C18.3997 7.08602 18.989 7.96793 19.391 8.93853C19.7931 9.90914 20 10.9494 20 12L20 12Z"
        stroke="currentColor" stroke-width="1.5" />
  <path d="M20 12C20 10.4177 19.5308 8.87103 18.6518 7.55544C17.7727 6.23984 16.5233 5.21446 15.0615 4.60896C13.5997 4.00346 11.9911 3.84504 10.4393 4.15372C8.88743 4.4624 7.46197 5.22433 6.34315 6.34315C5.22433 7.46197 4.4624 8.88743 4.15372 10.4393C3.84504 11.9911 4.00346 13.5997 4.60896 15.0615C5.21446 16.5233 6.23984 17.7727 7.55544 18.6518C8.87103 19.5308 10.4177 20 12 20"
        stroke="currentColor" stroke-width="1.5" />
</svg>