<svg width="24" height="24" viewBox="0 0 24 24" fill="none" xmlns="http://www.w3.org/2000/svg">
<path opacity="0.2" d="M20 12C20 16.4183 16.4183 20 12 20C7.58172 20 4 16.4183 4 12C4 7.58172 7.58172 4 12 4C16.4183 4 20 7.58172 20 12ZM8.8 12C8.8 13.7673 10.2327 15.2 12 15.2C13.7673 15.2 15.2 13.7673 15.2 12C15.2 10.2327 13.7673 8.8 12 8.8C10.2327 8.8 8.8 10.2327 8.8 12Z" fill="#6FB23B"/>
<path d="M12 4C10.4177 4 8.87103 4.46919 7.55544 5.34824C6.23985 6.22729 5.21446 7.47672 4.60896 8.93853C4.00346 10.4003 3.84504 12.0089 4.15372 13.5607C4.4624 15.1126 5.22433 16.538 6.34315 17.6569L9.73726 14.2627C9.28973 13.8152 8.98496 13.245 8.86149 12.6243C8.73801 12.0035 8.80138 11.3601 9.04359 10.7754C9.28579 10.1907 9.69594 9.69092 10.2222 9.3393C10.7484 8.98768 11.3671 8.8 12 8.8V4Z" fill="#6FB23B"/>
</svg>
