<svg width="24" height="24" viewBox="0 0 24 24" fill="none" xmlns="http://www.w3.org/2000/svg">
<path opacity="0.2" d="M15.9286 12.0656V6.42742C15.7628 1.18729 8.23564 1.19443 8.07143 6.42742V12.0656C7.31348 12.8462 6.80078 13.8353 6.59763 14.9088C6.39448 15.9823 6.50992 17.0924 6.92947 18.0999C7.34902 19.1075 8.05401 19.9676 8.95604 20.5725C9.85807 21.1773 10.917 21.5 12 21.5C13.083 21.5 14.1419 21.1773 15.044 20.5725C15.946 19.9676 16.651 19.1075 17.0705 18.0999C17.4901 17.0924 17.6055 15.9823 17.4024 14.9088C17.1992 13.8353 16.6865 12.8462 15.9286 12.0656ZM12 19.9063C11.2092 19.8974 10.4394 19.6486 9.79045 19.1925C9.14156 18.7363 8.64361 18.0937 8.36129 17.3482C8.07898 16.6027 8.02535 15.7888 8.20738 15.0122C8.3894 14.2355 8.79867 13.5321 9.382 12.9932L9.64286 12.7554V6.42742C9.64286 5.79657 9.8912 5.19155 10.3332 4.74547C10.7753 4.29939 11.3748 4.04879 12 4.04879C12.6252 4.04879 13.2247 4.29939 13.6668 4.74547C14.1088 5.19155 14.3571 5.79657 14.3571 6.42742V12.757L14.618 12.9948C15.2008 13.5338 15.6095 14.2371 15.7912 15.0135C15.9729 15.7898 15.9192 16.6034 15.6369 17.3485C15.3547 18.0936 14.857 18.736 14.2084 19.1921C13.5599 19.6482 12.7905 19.897 12 19.9063Z" fill="white"/>
<path d="M12.8227 13.3715V8.24805H11.1775V13.3715C10.6286 13.5673 10.166 13.9526 9.87145 14.4593C9.57689 14.966 9.46933 15.5615 9.56777 16.1405C9.66621 16.7195 9.96433 17.2448 10.4094 17.6234C10.8545 18.0021 11.4179 18.2097 12.0001 18.2097C12.5822 18.2097 13.1456 18.0021 13.5907 17.6234C14.0358 17.2448 14.3339 16.7195 14.4324 16.1405C14.5308 15.5615 14.4232 14.966 14.1287 14.4593C13.8341 13.9526 13.3715 13.5673 12.8227 13.3715Z" fill="white"/>
</svg>
