<svg width="16" height="16" viewBox="0 0 16 16" fill="none" xmlns="http://www.w3.org/2000/svg">
<circle cx="8" cy="8" r="8" fill="#3E4474"/>
<path d="M8.70898 12H7.28516V5.66016H8.70898V12ZM7.19727 4.01367C7.19727 3.79492 7.26562 3.61328 7.40234 3.46875C7.54297 3.32422 7.74219 3.25195 8 3.25195C8.25781 3.25195 8.45703 3.32422 8.59766 3.46875C8.73828 3.61328 8.80859 3.79492 8.80859 4.01367C8.80859 4.22852 8.73828 4.4082 8.59766 4.55273C8.45703 4.69336 8.25781 4.76367 8 4.76367C7.74219 4.76367 7.54297 4.69336 7.40234 4.55273C7.26562 4.4082 7.19727 4.22852 7.19727 4.01367Z" fill="white"/>
</svg>
