<svg width="16" height="16" viewBox="0 0 16 16" fill="none" xmlns="http://www.w3.org/2000/svg">
<path d="M9 8.00012C9 8.55241 8.55228 9.00012 8 9.00012C7.44772 9.00012 7 8.55241 7 8.00012C7 7.44784 7.44772 7.00012 8 7.00012C8.55228 7.00012 9 7.44784 9 8.00012Z" fill="white"/>
<path d="M9 4.00012C9 4.55241 8.55228 5.00012 8 5.00012C7.44772 5.00012 7 4.55241 7 4.00012C7 3.44784 7.44772 3.00012 8 3.00012C8.55228 3.00012 9 3.44784 9 4.00012Z" fill="white"/>
<path d="M9 12.0001C9 12.5524 8.55228 13.0001 8 13.0001C7.44772 13.0001 7 12.5524 7 12.0001C7 11.4478 7.44772 11.0001 8 11.0001C8.55228 11.0001 9 11.4478 9 12.0001Z" fill="white"/>
</svg>
