<svg width="100" height="75" fill="none" xmlns="http://www.w3.org/2000/svg">
  <g clip-path="url(#clip0)">
    <path
        fill-rule="evenodd"
        clip-rule="evenodd"
        d="M97.733 35.452s-.813 6.739-2.44 7.473c.962-9.334-1.227-11.256-2.486-13.305-1.912-3.093-4.005-5.158-6.317-9.058-2.657-4.486-3.04-6.696-3.04-6.696s-1.599 3.827-.717 6.178c-1.587-4.058-3.08-7.089-3.08-10.338 0-5.878 1.41-9.706 1.41-9.706S74.58 5.942 68.948 13.917c-.59-1.617 1.033-5.51 1.033-5.51s-7.409 5.64-8.263 16.216c-.289 3.572-.077 5.441.885 7.937-2.95-3.011-2.805-8.816-2.805-8.816s-1.915 5.216-2.284 7.568c-.805 5.085.511 12.99 4.5 17.562 5.004 5.746 14.316 13.418 13.958 25.891 0 0 13.623-9.816 19.088-21.158.048-.074.104-.114.147-.192 4.685-7.308 2.526-17.963 2.526-17.963z"
        fill="url(#paint0_linear)"
    />
    <path
        fill-rule="evenodd"
        clip-rule="evenodd"
        d="M80.875.732c.14-.477.233-.732.233-.732s-6.483 5.942-12.115 13.917c-.589-1.617 1.034-5.51 1.034-5.51s-7.41 5.639-8.263 16.216c-.29 3.572-.076 5.44.886 7.936-1.463-1.492-2.164-3.67-2.501-5.488.18 2.745.715 5.395 1.489 7.735 1.42 4.294 3.65 7.54 6.479 10.13 1.151 1.055 2.403 2 3.587 2.805.865.753 1.813 1.666 2.662 2.746 1.621 2.063 2.885 4.742 3.548 6.51.442 1.173.619 1.943.698 2.453l.018.534c.029.783.067.707.172-.134.106-.841.279-2.447.123-4.559l-.007-.103a41.048 41.048 0 00-.048-1.904 55.56 55.56 0 00-1.514-10.265c-.91-3.68-2.271-7.292-3.522-11.395-1.25-4.103-2.393-8.695-2.658-11.967-.267-3.271.344-5.223.726-6.351.228-.675.375-1.056.478-1.333.291-.582.61-1.16.953-1.739 2.007-3.386 4.891-6.81 6.538-8.523.404-.419.732-.735 1.004-.98z"
        fill="url(#paint1_linear)"
    />
    <path
        fill-rule="evenodd"
        clip-rule="evenodd"
        d="M99.802 35.856c-.205 1.463-1.001 6.443-2.386 7.069.961-9.334-1.226-11.257-2.487-13.305-1.911-3.093-4.005-5.158-6.317-9.059-2.656-4.485-3.038-6.695-3.038-6.695l-.008.016c.11.927.243 1.902.51 2.924.487 1.857 1.412 3.867 2.882 6.689 1.469 2.823 3.481 6.457 4.633 9.672 1.152 3.217 1.442 6.014 1.49 8.667.048 2.653-.145 5.163-.516 7.06-.372 1.897-.921 3.184-1.115 3.762-.194.58-.032.451 1.124-.811 1.154-1.262 3.303-3.657 4.432-7.371.74-2.431 1.04-5.428.796-8.618z"
        fill="url(#paint2_linear)"
    />
    <path
        d="M60.935 54.33c.474.006 1.626-.07 1.89-.19 2.663-1.21 4.892-3.452 5.795-12.675h7.387c-1.082 9.539-4.514 13.206-6.66 15.551 2.293 2.505 6.054 6.518 6.848 17.586H68.79c-.766-10.942-3.116-13.417-5.966-14.71-.326-.148-1.796-.23-1.89-.172v14.882h-7.494V41.465h4.824c.6 2.157 1.483 4.238 2.67 6v6.864zM22.122 46.411v-4.946H0v4.946h7.313v28.19h7.494v-28.19h7.314zM49.924 74.603V41.466H24.912v33.137h7.495v-28.01h10.022v28.01h7.495z"
        fill="#000"
    />
  </g>
  <defs>
    <linearGradient
        id="paint0_linear"
        x1="79.775"
        y1="79.263"
        x2="79.775"
        y2="6.771"
        gradientUnits="userSpaceOnUse"
    >
      <stop stop-color="#5C499E"/>
      <stop offset=".47" stop-color="#369CD7"/>
      <stop offset="1" stop-color="#8AD7F8"/>
    </linearGradient>
    <linearGradient
        id="paint1_linear"
        x1="36.577"
        y1="33.525"
        x2="75.248"
        y2="23.328"
        gradientUnits="userSpaceOnUse"
    >
      <stop stop-color="#5C499E"/>
      <stop offset="1" stop-color="#369CD7"/>
    </linearGradient>
    <linearGradient
        id="paint2_linear"
        x1="96.207"
        y1="52.988"
        x2="86.713"
        y2="13.27"
        gradientUnits="userSpaceOnUse"
    >
      <stop stop-color="#68C8F2"/>
      <stop offset="1" stop-color="#5C77BA"/>
    </linearGradient>
    <clipPath id="clip0">
      <path fill="#fff" d="M0 0h100v75H0z"/>
    </clipPath>
  </defs>
</svg>
