<svg width="35" height="34" viewBox="0 0 35 34" fill="none"
  xmlns="http://www.w3.org/2000/svg">
  <path
    d="M12.2212 7.99309C11.1919 7.98581 10.5592 8.68448 10.572 10.4817C10.578 11.3154 10.6077 15.4827 15.2244 20.0992C19.8412 24.716 24.0084 24.7456 24.8419 24.7516C26.5089 24.7634 27.3364 23.9359 27.3305 23.1024L27.3134 20.6922C27.3094 20.1403 26.9528 19.6482 26.4279 19.47L23.0477 18.3219C22.5858 18.165 22.0787 18.2814 21.7377 18.6223L20.639 19.7211C20.639 19.7211 19.0586 18.9682 17.707 17.6166C16.3554 16.265 15.6025 14.6846 15.6025 14.6846L16.7012 13.5859C17.0422 13.2449 17.1585 12.7378 17.0017 12.2759L15.8536 8.89565C15.6753 8.37081 15.1833 8.01415 14.6314 8.01022L12.2212 7.99309Z"
    stroke="black" stroke-width="2" stroke-linecap="round"
    stroke-linejoin="round" />
</svg>