<svg viewBox="0 0 14 14" fill="none" xmlns="http://www.w3.org/2000/svg">
<mask id="path-1-inside-1_917_28361" fill="white">
<path d="M13.2501 7C13.6642 7 14.0042 7.33672 13.9599 7.74852C13.8186 9.06248 13.3074 10.3152 12.4784 11.3575C11.4931 12.5962 10.1172 13.4644 8.575 13.8205C7.03284 14.1766 5.41551 13.9996 3.98689 13.3183C2.55828 12.637 1.40272 11.4917 0.708747 10.0692C0.0147761 8.64673 -0.176637 7.03104 0.165739 5.48577C0.508116 3.9405 1.36407 2.55687 2.59394 1.56064C3.82382 0.564399 5.35501 0.0143651 6.93769 0.000277295C8.26937 -0.0115763 9.57136 0.35659 10.6939 1.05397C11.0457 1.27254 11.1019 1.74769 10.8469 2.07411C10.592 2.40053 10.1228 2.4534 9.76471 2.24521C8.91471 1.75097 7.94337 1.49124 6.95104 1.50008C5.70748 1.51114 4.50436 1.94333 3.53801 2.7261C2.57165 3.50888 1.8991 4.59605 1.63008 5.81022C1.36107 7.02439 1.51147 8.29389 2.05674 9.4116C2.60202 10.5293 3.50999 11.4292 4.6325 11.9645C5.75501 12.4998 7.0258 12.6389 8.23753 12.3591C9.44926 12.0793 10.5304 11.3971 11.3045 10.4238C11.9223 9.64716 12.3155 8.72175 12.4491 7.74764C12.5054 7.33731 12.8359 7 13.2501 7Z"/>
</mask>
<path d="M13.2501 7C13.6642 7 14.0042 7.33672 13.9599 7.74852C13.8186 9.06248 13.3074 10.3152 12.4784 11.3575C11.4931 12.5962 10.1172 13.4644 8.575 13.8205C7.03284 14.1766 5.41551 13.9996 3.98689 13.3183C2.55828 12.637 1.40272 11.4917 0.708747 10.0692C0.0147761 8.64673 -0.176637 7.03104 0.165739 5.48577C0.508116 3.9405 1.36407 2.55687 2.59394 1.56064C3.82382 0.564399 5.35501 0.0143651 6.93769 0.000277295C8.26937 -0.0115763 9.57136 0.35659 10.6939 1.05397C11.0457 1.27254 11.1019 1.74769 10.8469 2.07411C10.592 2.40053 10.1228 2.4534 9.76471 2.24521C8.91471 1.75097 7.94337 1.49124 6.95104 1.50008C5.70748 1.51114 4.50436 1.94333 3.53801 2.7261C2.57165 3.50888 1.8991 4.59605 1.63008 5.81022C1.36107 7.02439 1.51147 8.29389 2.05674 9.4116C2.60202 10.5293 3.50999 11.4292 4.6325 11.9645C5.75501 12.4998 7.0258 12.6389 8.23753 12.3591C9.44926 12.0793 10.5304 11.3971 11.3045 10.4238C11.9223 9.64716 12.3155 8.72175 12.4491 7.74764C12.5054 7.33731 12.8359 7 13.2501 7Z" stroke="black" stroke-width="2" mask="url(#path-1-inside-1_917_28361)"/>
</svg>
