<svg width="24" height="25" viewBox="0 0 24 25" fill="none"
  xmlns="http://www.w3.org/2000/svg">
  <path
    d="M18.0081 5.62875C18.0081 5.62875 19.6269 4.9975 19.492 6.53053C19.4471 7.16179 19.0423 9.37117 18.7276 11.7609L17.6483 18.84C17.6483 18.84 17.5584 19.877 16.7489 20.0574C15.9395 20.2377 14.7253 19.4261 14.5005 19.2458C14.3206 19.1105 11.1278 17.0815 10.0036 16.0895C9.6888 15.819 9.32905 15.2779 10.0485 14.6466L14.7703 10.1377C15.3099 9.59663 15.8496 8.33413 13.6011 9.86717L7.30546 14.1507C7.30546 14.1507 6.58596 14.6015 5.23692 14.1958L2.31393 13.294C2.31393 13.294 1.23467 12.6176 3.0784 11.9413C7.5753 9.82204 13.1065 7.65775 18.0081 5.62875Z"
    fill="currentColor" />
</svg>