<svg viewBox="0 0 54 30" fill="none" xmlns="http://www.w3.org/2000/svg">
<g clip-path="url(#clip0_381_10255)">
<path d="M23.9785 22.1266H20.2702L22.5879 7.88329H26.2965L23.9785 22.1266ZM17.1506 7.88329L13.6153 17.68L13.197 15.5704L13.1973 15.5711L11.9496 9.16574C11.9496 9.16574 11.7987 7.88329 10.1905 7.88329H4.34592L4.27734 8.12447C4.27734 8.12447 6.06462 8.49632 8.15631 9.75248L11.3781 22.127H15.2418L21.1416 7.88329H17.1506ZM46.3181 22.1266H49.7231L46.7544 7.88291H43.7734C42.3969 7.88291 42.0616 8.94438 42.0616 8.94438L36.531 22.1266H40.3966L41.1696 20.0109H45.8838L46.3181 22.1266ZM42.2376 17.0883L44.186 11.7581L45.2822 17.0883H42.2376ZM36.8209 11.3085L37.3501 8.24981C37.3501 8.24981 35.7171 7.62878 34.0148 7.62878C32.1746 7.62878 27.8045 8.43308 27.8045 12.344C27.8045 16.0238 32.9336 16.0695 32.9336 18.0023C32.9336 19.9351 28.333 19.5888 26.8147 18.37L26.2634 21.5681C26.2634 21.5681 27.9192 22.3724 30.449 22.3724C32.9797 22.3724 36.7973 21.0621 36.7973 17.4959C36.7973 13.7926 31.6222 13.4478 31.6222 11.8377C31.6225 10.2272 35.234 10.4341 36.8209 11.3085Z" fill="#2566AF"/>
<path d="M13.1973 15.5708L11.9496 9.16538C11.9496 9.16538 11.7987 7.88293 10.1905 7.88293H4.34592L4.27734 8.12411C4.27734 8.12411 7.08646 8.70628 9.7809 10.8875C12.3572 12.9723 13.1973 15.5708 13.1973 15.5708Z" fill="#E6A540"/>
</g>
<defs>
<clipPath id="clip0_381_10255">
<rect width="54" height="30" fill="white"/>
</clipPath>
</defs>
</svg>
