<svg width="291" height="320" viewBox="0 0 291 320" fill="none" xmlns="http://www.w3.org/2000/svg">
<g clip-path="url(#clip0)">
<path fill-rule="evenodd" clip-rule="evenodd" d="M340.332 237.189C338.691 248.989 332.317 289.15 321.228 294.198C328.927 218.923 311.414 203.414 301.323 186.893C286.024 161.944 269.262 145.295 250.751 113.83C229.492 77.6557 226.429 59.8361 226.429 59.8361L226.369 59.965C227.249 67.4419 228.316 75.3054 230.451 83.5458C234.345 98.5194 241.757 114.733 253.518 137.491C265.279 160.258 281.389 189.571 290.61 215.502C299.831 241.443 302.153 264.003 302.539 285.402C302.924 306.801 301.382 327.041 298.408 342.342C295.433 357.642 291.035 368.025 289.483 372.685C287.932 377.366 289.226 376.325 298.477 366.141C307.718 355.966 324.924 336.65 333.957 306.692C339.877 287.088 342.289 262.912 340.332 237.189Z" fill="#4F4382"/>
<path fill-rule="evenodd" clip-rule="evenodd" d="M323.769 233.926C323.769 233.926 317.266 288.278 304.24 294.198C311.939 218.923 294.416 203.414 284.335 186.893C269.026 161.944 252.274 145.295 233.763 113.84C212.494 77.6555 209.43 59.8358 209.43 59.8358C209.43 59.8358 196.632 90.6955 203.688 109.655C190.989 76.9317 179.03 52.4878 179.03 26.2791C179.03 -21.1308 190.317 -52 190.317 -52C190.317 -52 138.42 -4.07454 93.3329 60.2425C88.6186 47.2026 101.605 15.8074 101.605 15.8074C101.605 15.8074 42.2964 61.2934 35.4572 146.593C33.1446 175.4 34.8446 190.473 42.5435 210.603C18.9228 186.318 20.089 139.503 20.089 139.503C20.089 139.503 4.76012 181.568 1.80506 200.538C-4.63876 241.552 5.89681 305.304 37.8194 342.182C77.8858 388.521 152.434 450.399 149.568 551C149.568 551 258.619 471.828 302.372 380.35C302.757 379.755 303.202 379.438 303.548 378.804C341.055 319.861 323.769 233.926 323.769 233.926Z" fill="#4F4382"/>
<g style="mix-blend-mode:soft-light" opacity="0.4">
<path fill-rule="evenodd" clip-rule="evenodd" d="M323.769 233.926C323.769 233.926 317.266 288.278 304.24 294.198C311.939 218.923 294.416 203.414 284.335 186.893C269.026 161.944 252.274 145.295 233.763 113.84C212.494 77.6555 209.43 59.8358 209.43 59.8358C209.43 59.8358 196.632 90.6955 203.688 109.655C190.989 76.9317 179.03 52.4878 179.03 26.2791C179.03 -21.1308 190.317 -52 190.317 -52C190.317 -52 138.42 -4.07454 93.3329 60.2425C88.6186 47.2026 101.605 15.8074 101.605 15.8074C101.605 15.8074 42.2964 61.2934 35.4572 146.593C33.1446 175.4 34.8446 190.473 42.5435 210.603C18.9228 186.318 20.089 139.503 20.089 139.503C20.089 139.503 4.76012 181.568 1.80506 200.538C-4.63876 241.552 5.89681 305.304 37.8194 342.182C77.8858 388.521 152.434 450.399 149.568 551C149.568 551 258.619 471.828 302.372 380.35C302.757 379.755 303.202 379.438 303.548 378.804C341.055 319.861 323.769 233.926 323.769 233.926Z" fill="url(#paint0_linear)"/>
<path fill-rule="evenodd" clip-rule="evenodd" d="M188.815 -46.0998C189.932 -49.9473 190.683 -52 190.683 -52C190.683 -52 138.786 -4.07454 93.6995 60.2425C88.9852 47.2026 101.972 15.7978 101.972 15.7978C101.972 15.7978 42.6626 61.2838 35.8235 146.594C33.5108 175.401 35.2208 190.464 42.9198 210.594C31.2082 198.565 25.5946 180.993 22.8965 166.337C24.3394 188.47 28.6188 209.85 34.8155 228.721C46.191 263.348 64.03 289.537 86.6822 310.421C95.9032 318.929 105.925 326.555 115.403 333.04C122.321 339.119 129.911 346.477 136.711 355.193C149.687 371.833 159.808 393.44 165.115 407.69C168.653 417.16 170.066 423.367 170.699 427.483L170.847 431.786C171.075 438.103 171.381 437.488 172.221 430.706C173.071 423.923 174.455 410.972 173.209 393.936L173.15 393.103C173.14 388.422 173.032 383.296 172.765 377.753C171.668 354.856 167.952 324.641 160.648 294.961C153.354 265.282 142.463 236.148 132.451 203.057C122.44 169.966 113.298 132.929 111.173 106.542C109.038 80.1545 113.93 64.4175 116.984 55.3144C118.812 49.8703 119.988 46.7961 120.809 44.5649C123.141 39.8745 125.691 35.2139 128.439 30.5433C144.509 3.23381 167.596 -24.3831 180.78 -38.1965C184.012 -41.578 186.641 -44.1264 188.815 -46.0998Z" fill="url(#paint1_linear)"/>
<path fill-rule="evenodd" clip-rule="evenodd" d="M340.332 237.189C338.691 248.989 332.317 289.15 321.228 294.198C328.927 218.923 311.414 203.414 301.323 186.893C286.024 161.944 269.262 145.295 250.751 113.83C229.492 77.6557 226.429 59.8361 226.429 59.8361L226.369 59.965C227.249 67.4419 228.316 75.3054 230.451 83.5458C234.345 98.5194 241.757 114.733 253.518 137.491C265.279 160.258 281.389 189.571 290.61 215.502C299.831 241.443 302.153 264.003 302.539 285.402C302.924 306.801 301.382 327.041 298.408 342.342C295.433 357.642 291.035 368.025 289.483 372.685C287.932 377.366 289.226 376.325 298.477 366.141C307.718 355.966 324.924 336.65 333.957 306.692C339.877 287.088 342.289 262.912 340.332 237.189Z" fill="url(#paint2_linear)"/>
</g>
</g>
<defs>
<linearGradient id="paint0_linear" x1="180.008" y1="587.274" x2="180.008" y2="2.609" gradientUnits="userSpaceOnUse">
<stop stop-color="#5C499E"/>
<stop offset="0.47" stop-color="#369CD7"/>
<stop offset="1" stop-color="#8AD7F8"/>
</linearGradient>
<linearGradient id="paint1_linear" x1="-165.803" y1="218.388" x2="144.069" y2="137.286" gradientUnits="userSpaceOnUse">
<stop stop-color="#5C499E"/>
<stop offset="1" stop-color="#369CD7"/>
</linearGradient>
<linearGradient id="paint2_linear" x1="311.552" y1="375.363" x2="234.471" y2="55.2826" gradientUnits="userSpaceOnUse">
<stop stop-color="#68C8F2"/>
<stop offset="1" stop-color="#5C77BA"/>
</linearGradient>
<clipPath id="clip0">
<rect width="291" height="320" fill="white"/>
</clipPath>
</defs>
</svg>
