<svg viewBox="0 0 24 24" fill="none" xmlns="http://www.w3.org/2000/svg">
<path d="M20 4C20 6.12173 19.1571 8.15656 17.6569 9.65685C16.1566 11.1571 14.1217 12 12 12C9.87827 12 7.84344 11.1571 6.34315 9.65685C4.84286 8.15656 4 6.12173 4 4H5.96963C5.96963 5.59935 6.60497 7.1332 7.73589 8.26411C8.8668 9.39503 10.4006 10.0304 12 10.0304C13.5994 10.0304 15.1332 9.39503 16.2641 8.26411C17.395 7.1332 18.0304 5.59935 18.0304 4H20Z" fill="currentColor"/>
<path fill-rule="evenodd" clip-rule="evenodd" d="M20 14H4V16H11V20H13V16H20V14Z" fill="currentColor"/>
</svg>
