<svg width="45" height="45" viewBox="0 0 45 45" fill="none"
  xmlns="http://www.w3.org/2000/svg">
  <path fill-rule="evenodd" clip-rule="evenodd"
    d="M19.4345 42.8843H27.9567V34.436H42.9814V26.7266H4.01562V34.436H19.4345V42.8843Z"
    fill="#FFBEC9" />
  <path fill-rule="evenodd" clip-rule="evenodd"
    d="M34.4592 4.01709C34.4592 5.45647 34.1757 6.88175 33.6248 8.21156C33.074 9.54137 32.2667 10.7496 31.2489 11.7674C30.2311 12.7852 29.0228 13.5926 27.6929 14.1434C26.3631 14.6943 24.9379 14.9778 23.4985 14.9778C22.0592 14.9778 20.6339 14.6943 19.3041 14.1434C17.9743 13.5926 16.7659 12.7852 15.7481 11.7674C14.7304 10.7496 13.923 9.54137 13.3722 8.21156C12.8214 6.88175 12.5378 5.45647 12.5378 4.01709H4.01562C4.01562 9.18428 6.06825 14.1398 9.72201 17.7936C13.3758 21.4473 18.3314 23.5001 23.4985 23.5001C28.6657 23.5001 33.6213 21.4473 37.275 17.7936C40.9288 14.1398 42.9814 9.18428 42.9814 4.01709H34.4592Z"
    fill="#FFBEC9" />
</svg>