<svg width="172" height="22" viewBox="0 0 172 22" fill="none"
  xmlns="http://www.w3.org/2000/svg">
  <path fill-rule="evenodd" clip-rule="evenodd"
    d="M51.6419 13.3599L48.8488 4.75181H45.575V16.8855H48.0933V8.78111L50.4972 16.8855H52.7637L55.1675 8.78111V16.8855H57.7087V4.75181H54.412L51.6419 13.3599Z"
    fill="#FFBEC9" />
  <path fill-rule="evenodd" clip-rule="evenodd"
    d="M6.90751 8.16301C6.90751 7.40752 7.80036 6.65202 9.81501 6.65202C10.4958 6.55067 11.1895 6.71524 11.7522 7.11167C12.3148 7.50809 12.7033 8.10593 12.837 8.78112H15.63C15.63 8.78112 15.63 4.5 9.81501 4.5C7.52564 4.5 4.25183 5.25548 4.25183 8.27745C4.25183 13.1996 12.9744 10.315 12.9744 13.3369C12.9744 14.2298 12.3333 14.9853 10.2042 14.9853C9.47823 15.0509 8.75084 14.8757 8.13433 14.4867C7.51782 14.0978 7.04647 13.5167 6.79304 12.8333H4C4 12.8333 4.00001 17.1373 9.95238 17.1373C13.9817 17.1373 15.7674 15.2371 15.7674 13.3369C15.7674 7.91113 6.90751 10.6813 6.90751 8.16301Z"
    fill="#FFBEC9" />
  <path fill-rule="evenodd" clip-rule="evenodd"
    d="M26.8708 9.5595H20.0485V4.75181H17.3928V16.8855H20.0485V11.9633H26.8708V16.8855H29.5265V4.75181H26.8708V9.5595Z"
    fill="#FFBEC9" />
  <path fill-rule="evenodd" clip-rule="evenodd"
    d="M59.586 7.15566H64.3937V14.4816H59.586V16.8855H71.7197V14.4816H67.0493V7.15566H71.7197V4.75181H59.586V7.15566Z"
    fill="#FFBEC9" />
  <path fill-rule="evenodd" clip-rule="evenodd"
    d="M31.5412 7.15566H36.3488V14.4816H31.5412V16.8855H43.6748V14.4816H39.0045V7.15566H43.6748V4.75181H31.5412V7.15566Z"
    fill="#FFBEC9" />
  <path fill-rule="evenodd" clip-rule="evenodd"
    d="M120.483 13.3599L117.713 4.75181H114.416V16.8855H116.958V8.78111L119.362 16.8855H121.628L124.032 8.78111V16.8855H126.55V4.75181H123.276L120.483 13.3599Z"
    fill="#FFBEC9" />
  <path fill-rule="evenodd" clip-rule="evenodd"
    d="M75.7489 8.16301C75.7489 7.40752 76.6418 6.65202 78.6793 6.65202C79.3601 6.55067 80.0538 6.71524 80.6165 7.11167C81.1792 7.50809 81.5676 8.10593 81.7013 8.78112H84.4715C84.4715 8.78112 84.4715 4.5 78.6564 4.5C76.3671 4.5 73.1162 5.25548 73.1162 8.27745C73.1162 13.1996 81.8387 10.315 81.8387 13.3369C81.8387 14.2298 81.1977 14.9853 79.0456 14.9853C78.3203 15.047 77.5946 14.8702 76.9789 14.4818C76.3632 14.0933 75.8911 13.5145 75.6345 12.8333H72.8643C72.8643 12.8333 72.727 17.1373 78.7938 17.1373C82.846 17.1373 84.6088 15.2371 84.6088 13.3369C84.6088 7.91113 75.7489 10.6813 75.7489 8.16301Z"
    fill="#FFBEC9" />
  <path fill-rule="evenodd" clip-rule="evenodd"
    d="M95.7352 9.5595H88.9128V4.75181H86.2572V16.8855H88.9128V11.9633H95.7352V16.8855H98.3909V4.75181H95.7352V9.5595Z"
    fill="#FFBEC9" />
  <path fill-rule="evenodd" clip-rule="evenodd"
    d="M128.565 7.15566H133.372V14.4816H128.565V16.8855H140.698V14.4816H136.028V7.15566H140.698V4.75181H128.565V7.15566Z"
    fill="#FFBEC9" />
  <path fill-rule="evenodd" clip-rule="evenodd"
    d="M100.405 7.15566H105.19V14.4816H100.405V16.8855H112.539V14.4816H107.846V7.15566H112.539V4.75181H100.405V7.15566Z"
    fill="#FFBEC9" />
  <path fill-rule="evenodd" clip-rule="evenodd"
    d="M142.347 11.826V14.2298H147.154V16.8626H149.787V14.2298H154.48V11.826H142.347Z"
    fill="#FFBEC9" />
  <path fill-rule="evenodd" clip-rule="evenodd"
    d="M148.414 8.16301C147.509 8.16301 146.641 7.80357 146.002 7.16386C145.362 6.52414 145.002 5.65653 145.002 4.75183H142.301C142.25 5.57835 142.369 6.40654 142.65 7.18537C142.932 7.96421 143.369 8.6772 143.937 9.28045C144.504 9.8837 145.189 10.3644 145.949 10.693C146.709 11.0216 147.528 11.1911 148.356 11.1911C149.185 11.1911 150.004 11.0216 150.764 10.693C151.524 10.3644 152.209 9.8837 152.776 9.28045C153.343 8.6772 153.781 7.96421 154.062 7.18537C154.344 6.40654 154.463 5.57835 154.412 4.75183H151.779C151.779 5.64865 151.426 6.50944 150.796 7.14786C150.166 7.78627 149.31 8.15097 148.414 8.16301Z"
    fill="#FFBEC9" />
  <path fill-rule="evenodd" clip-rule="evenodd"
    d="M161.806 4.61445C160.578 4.60992 159.377 4.96996 158.353 5.64892C157.33 6.32789 156.531 7.29525 156.058 8.42851C155.585 9.56178 155.459 10.8099 155.696 12.0149C155.933 13.22 156.522 14.3276 157.388 15.1976C158.255 16.0675 159.361 16.6607 160.565 16.9019C161.769 17.1432 163.018 17.0217 164.153 16.5528C165.288 16.0839 166.258 15.2887 166.941 14.2679C167.623 13.2472 167.988 12.0467 167.988 10.8186C168.041 9.99197 167.918 9.16344 167.627 8.38799C167.336 7.61254 166.882 6.90798 166.298 6.32114C165.713 5.7343 165.01 5.27862 164.236 4.98436C163.461 4.6901 162.633 4.56399 161.806 4.61445ZM164.485 13.4972C164.058 13.9836 163.514 14.3535 162.905 14.5723C162.295 14.7911 161.641 14.8516 161.001 14.7481C160.362 14.6446 159.76 14.3805 159.251 13.9806C158.742 13.5806 158.343 13.058 158.091 12.4616C157.839 11.8652 157.742 11.2147 157.811 10.5709C157.879 9.9271 158.11 9.31114 158.481 8.78085C158.852 8.25055 159.352 7.82331 159.934 7.53905C160.516 7.25479 161.16 7.12287 161.806 7.15569C162.298 7.12471 162.792 7.19393 163.256 7.35921C163.72 7.5245 164.146 7.78236 164.508 8.11719C165.135 8.87322 165.479 9.82481 165.479 10.8072C165.479 11.7897 165.135 12.7412 164.508 13.4972H164.485Z"
    fill="#FFBEC9" />
</svg>