<svg width="24" height="25" viewBox="0 0 24 25" fill="none"
  xmlns="http://www.w3.org/2000/svg">
  <path
    d="M16 12.5C16 14.7091 14.2091 16.5 12 16.5C9.79086 16.5 8 14.7091 8 12.5C8 10.2908 9.79086 8.49997 12 8.49997C14.2091 8.49997 16 10.2908 16 12.5Z"
    stroke="currentColor" stroke-width="2" />
  <path
    d="M3.5 8.27778C3.5 5.91523 5.41523 4 7.77778 4H16.2222C18.5848 4 20.5 5.91523 20.5 8.27778V16.7222C20.5 19.0848 18.5848 21 16.2222 21H7.77778C5.41523 21 3.5 19.0848 3.5 16.7222V8.27778Z"
    stroke="currentColor" stroke-width="2" />
  <path
    d="M18 7.5C18 8.05228 17.5523 8.5 17 8.5C16.4477 8.5 16 8.05228 16 7.5C16 6.94772 16.4477 6.5 17 6.5C17.5523 6.5 18 6.94772 18 7.5Z"
    fill="currentColor" />
</svg>