<svg viewBox="0 0 24 24" fill="none" xmlns="http://www.w3.org/2000/svg">
  <path
    d="M16.7595 2.43371L17.512 2.73694C17.6312 2.44122 17.5661 2.10312 17.3457 1.87278C17.1252 1.64244 16.7903 1.56256 16.4897 1.66861L16.7595 2.43371ZM8.31218 18.4718L8.71982 17.7704L8.31218 18.4718ZM16.7376 10.3662L15.9325 10.4663L16.7376 10.3662ZM16.4897 1.66861C12.407 3.10862 8.36162 6.18946 6.235 9.5037C5.17081 11.1622 4.53413 12.9637 4.7167 14.696C4.90427 16.4756 5.94011 18.0317 7.90453 19.1733L8.71982 17.7704C7.12553 16.8439 6.45494 15.7078 6.33038 14.5259C6.20082 13.2967 6.64632 11.8673 7.60065 10.38C9.51107 7.40267 13.248 4.53258 17.0294 3.19882L16.4897 1.66861ZM7.90453 19.1733C8.62159 19.59 9.64865 19.8307 10.7303 19.8384C11.8253 19.8461 13.0526 19.6162 14.1753 19.01C15.3086 18.3982 16.3168 17.4118 16.9547 15.9513C17.5887 14.4997 17.8363 12.6284 17.5427 10.2661L15.9325 10.4663C16.2001 12.6195 15.9566 14.1826 15.4678 15.3018C14.9828 16.4122 14.2366 17.133 13.4045 17.5822C12.5619 18.0371 11.613 18.222 10.7418 18.2158C9.85721 18.2096 9.1281 18.0077 8.71982 17.7704L7.90453 19.1733ZM17.5427 10.2661C17.2801 8.15443 17.2191 6.38307 17.2559 5.06594C17.2742 4.40688 17.3169 3.86759 17.3695 3.46027C17.4248 3.0315 17.4842 2.80602 17.512 2.73694L16.007 2.13048C15.8973 2.40281 15.8183 2.80204 15.7602 3.25266C15.6993 3.72475 15.6534 4.31956 15.6339 5.02071C15.5948 6.42399 15.6603 8.27746 15.9325 10.4663L17.5427 10.2661Z"
    fill="currentColor" />
  <path
    d="M16.7595 2.43371L17.512 2.73694C17.6312 2.44122 17.5661 2.10312 17.3457 1.87278C17.1252 1.64244 16.7903 1.56256 16.4897 1.66861L16.7595 2.43371ZM8.31218 18.4718L8.71982 17.7704L8.31218 18.4718ZM16.7376 10.3662L15.9325 10.4663L16.7376 10.3662ZM16.4897 1.66861C12.407 3.10862 8.36162 6.18946 6.235 9.5037C5.17081 11.1622 4.53413 12.9637 4.7167 14.696C4.90427 16.4756 5.94011 18.0317 7.90453 19.1733L8.71982 17.7704C7.12553 16.8439 6.45494 15.7078 6.33038 14.5259C6.20082 13.2967 6.64632 11.8673 7.60065 10.38C9.51107 7.40267 13.248 4.53258 17.0294 3.19882L16.4897 1.66861ZM7.90453 19.1733C8.62159 19.59 9.64865 19.8307 10.7303 19.8384C11.8253 19.8461 13.0526 19.6162 14.1753 19.01C15.3086 18.3982 16.3168 17.4118 16.9547 15.9513C17.5887 14.4997 17.8363 12.6284 17.5427 10.2661L15.9325 10.4663C16.2001 12.6195 15.9566 14.1826 15.4678 15.3018C14.9828 16.4122 14.2366 17.133 13.4045 17.5822C12.5619 18.0371 11.613 18.222 10.7418 18.2158C9.85721 18.2096 9.1281 18.0077 8.71982 17.7704L7.90453 19.1733ZM17.5427 10.2661C17.2801 8.15443 17.2191 6.38307 17.2559 5.06594C17.2742 4.40688 17.3169 3.86759 17.3695 3.46027C17.4248 3.0315 17.4842 2.80602 17.512 2.73694L16.007 2.13048C15.8973 2.40281 15.8183 2.80204 15.7602 3.25266C15.6993 3.72475 15.6534 4.31956 15.6339 5.02071C15.5948 6.42399 15.6603 8.27746 15.9325 10.4663L17.5427 10.2661Z"
    fill="currentColor" />
  <path
    d="M13.0398 9.84342C13.3067 9.45724 13.2101 8.9278 12.8239 8.6609C12.4377 8.39399 11.9083 8.49068 11.6414 8.87686L13.0398 9.84342ZM8.5513 23.2446C8.62488 23.7082 9.06038 24.0245 9.52402 23.9509C9.98766 23.8773 10.3039 23.4418 10.2303 22.9782L8.5513 23.2446ZM11.6414 8.87686C9.82583 11.5037 7.57552 17.096 8.5513 23.2446L10.2303 22.9782C9.33677 17.3479 11.4182 12.1898 13.0398 9.84342L11.6414 8.87686Z"
    fill="currentColor" />
  <path
    d="M13.0398 9.84342C13.3067 9.45724 13.2101 8.9278 12.8239 8.6609C12.4377 8.39399 11.9083 8.49068 11.6414 8.87686L13.0398 9.84342ZM8.5513 23.2446C8.62488 23.7082 9.06038 24.0245 9.52402 23.9509C9.98766 23.8773 10.3039 23.4418 10.2303 22.9782L8.5513 23.2446ZM11.6414 8.87686C9.82583 11.5037 7.57552 17.096 8.5513 23.2446L10.2303 22.9782C9.33677 17.3479 11.4182 12.1898 13.0398 9.84342L11.6414 8.87686Z"
    fill="currentColor" />
</svg>