<svg width="24" height="25" viewBox="0 0 24 25" fill="none"
  xmlns="http://www.w3.org/2000/svg">
  <path
    d="M9.75742 13.8522V10.2921C9.75742 9.19901 8.80693 8.45049 8.80693 8.03465V7.97525C8.80693 7.71278 9.01971 7.5 9.28218 7.5H12.8465C13.2402 7.5 13.5594 7.81916 13.5594 8.21287V10.8267V13.0554C13.5594 13.3543 13.9051 13.5205 14.1385 13.3337L14.4505 13.0842C15.7552 12.0167 16.8762 9.77892 17.4784 8.29291C17.6691 7.82257 18.118 7.5 18.6255 7.5H21.0393C21.3262 7.5 21.5792 7.68829 21.5792 7.97525C21.5792 8.45049 20.7475 10.0545 19.9752 11.2426L18.4618 13.4654C18.237 13.7957 18.2787 14.2391 18.5612 14.5216L18.7277 14.6881C20.4509 16.2646 21.5306 17.7775 21.9614 18.7685C22.1263 19.1479 21.8214 19.5 21.4077 19.5H18.8559C18.4702 19.5 18.093 19.3496 17.8577 19.0439C17.8072 18.9781 17.7588 18.9109 17.7178 18.8465C16.8952 17.5539 15.2898 16.0918 14.1853 15.8505C13.809 15.7683 13.5594 16.1276 13.5594 16.5128V16.5297V18.7871C13.5594 19.1808 13.2402 19.5 12.8465 19.5H11.599C6.23098 19.5 2.96468 12.6668 1.73244 8.37523C1.60499 7.93137 1.94492 7.5 2.40672 7.5H4.8614C5.13142 7.5 5.38268 7.65076 5.48741 7.89964C5.50871 7.95026 5.52706 7.99701 5.5396 8.03465C6.63077 11.3082 8.11665 13.2585 9.10101 14.1746C9.37088 14.4257 9.75742 14.2208 9.75742 13.8522Z"
    fill="currentColor" />
</svg>