<svg width="87" height="65" viewBox="0 0 87 65" fill="none" xmlns="http://www.w3.org/2000/svg">
<rect x="30" y="11" width="44" height="44" rx="22" fill="white" fill-opacity="0.2"/>
<path d="M49.0698 31.1095C46.7454 28.6751 45.3292 27.6383 42.0484 27.6383C38.5629 27.6383 35.7373 30.3354 35.7373 33.6625C35.7373 36.9896 38.5629 39.6868 42.0484 39.6868C49.9373 39.6868 53.0928 27.6383 60.9817 27.6383C64.4672 27.6383 67.2928 30.3354 67.2928 33.6625C67.2928 36.9896 64.4672 39.6868 60.9817 39.6868C57.7009 39.6868 56.134 38.6327 53.8096 36.1984" stroke="white" stroke-width="2.15354" stroke-linecap="round" stroke-linejoin="round"/>
<g opacity="0.34">
<path fill-rule="evenodd" clip-rule="evenodd" d="M86.725 59.0339C87.0602 58.141 86.608 57.1453 85.715 56.8102C82.9154 55.7593 77.1964 53.6127 74.3968 52.5619C73.5039 52.2267 72.5082 52.6789 72.173 53.5718C71.821 54.5096 71.3928 55.6504 71.1109 56.4014C70.9433 56.8481 71.1693 57.3456 71.6159 57.5133C74.1633 58.4695 82.0036 61.4123 84.5511 62.3685C84.9977 62.5362 85.4953 62.3102 85.663 61.8635C85.9449 61.1125 86.373 59.9717 86.725 59.0339Z" stroke="white" stroke-width="0.86352" stroke-miterlimit="1.5" stroke-linejoin="round"/>
<path d="M74.0831 56.4484C74.6374 56.6565 75.2555 56.3758 75.4635 55.8215C75.6716 55.2672 75.3909 54.6491 74.8366 54.4411C74.2823 54.233 73.6642 54.5137 73.4562 55.068C73.2481 55.6223 73.5288 56.2404 74.0831 56.4484Z" stroke="white" stroke-width="0.86352" stroke-miterlimit="1.5" stroke-linejoin="round"/>
<path d="M83.3802 59.9382C83.9345 60.1462 84.5526 59.8655 84.7606 59.3112C84.9687 58.7569 84.688 58.1389 84.1337 57.9308C83.5794 57.7227 82.9613 58.0034 82.7533 58.5578C82.5452 59.1121 82.8259 59.7301 83.3802 59.9382Z" stroke="white" stroke-width="0.86352" stroke-miterlimit="1.5" stroke-linejoin="round"/>
<path d="M71.616 57.5133C71.616 57.5133 71.372 58.1633 71.1608 58.726C71.0804 58.9402 71.0884 59.178 71.1831 59.3865C71.2778 59.5949 71.4515 59.7575 71.6658 59.8379C72.1597 60.0233 72.7887 60.2594 73.2827 60.4448C73.4969 60.5252 73.7347 60.5171 73.9432 60.4224C74.1516 60.3277 74.3142 60.154 74.3946 59.9398C74.6058 59.3771 74.8497 58.7271 74.8497 58.7271" stroke="white" stroke-width="0.86352" stroke-miterlimit="1.5" stroke-linejoin="round"/>
<path d="M81.3173 61.1547C81.3173 61.1547 81.0733 61.8047 80.8621 62.3673C80.7817 62.5816 80.7897 62.8193 80.8844 63.0278C80.9791 63.2363 81.1528 63.3988 81.3671 63.4792C81.861 63.6646 82.49 63.9007 82.984 64.0861C83.1982 64.1665 83.436 64.1585 83.6445 64.0638C83.8529 63.9691 84.0155 63.7954 84.0959 63.5811C84.3071 63.0185 84.551 62.3685 84.551 62.3685" stroke="white" stroke-width="0.86352" stroke-miterlimit="1.5" stroke-linejoin="round"/>
<path d="M86.4147 57.4034C86.4147 57.4034 86.9794 54.6261 87.3025 53.0368C87.429 52.4133 87.0838 51.7898 86.488 51.5662C84.3367 50.7587 79.4 48.9057 77.2434 48.0962C76.6456 47.8718 75.9729 48.117 75.6598 48.6737C74.8647 50.0866 73.4796 52.5482 73.4796 52.5482" stroke="white" stroke-width="0.86352" stroke-miterlimit="1.5" stroke-linejoin="round"/>
<path d="M77.1245 56.3528L81.1667 57.87" stroke="white" stroke-width="0.86352" stroke-miterlimit="1.5" stroke-linecap="round" stroke-linejoin="round"/>
</g>
<g opacity="0.34">
<path fill-rule="evenodd" clip-rule="evenodd" d="M20.2746 14.986C20.1072 14.5896 19.5904 14.4295 19.1197 14.6282C16.4352 15.7615 8.17276 19.2496 5.4882 20.3829C5.01749 20.5816 4.77177 21.0636 4.93911 21.46C5.64936 23.1424 7.36214 27.1996 7.36214 27.1996L22.6976 20.7256C22.6976 20.7256 20.9848 16.6684 20.2746 14.986Z" stroke="white" stroke-width="0.876105" stroke-miterlimit="1.5" stroke-linecap="round" stroke-linejoin="round"/>
<path d="M7.36206 27.1996C7.36206 27.1996 8.13383 29.0277 8.63834 30.2228C8.75185 30.4917 8.95563 30.7088 9.20574 30.8266C9.45562 30.9452 9.73059 30.9546 9.97099 30.8531C12.6917 29.7045 20.7753 26.2919 23.496 25.1434C23.7364 25.0419 23.9215 24.8383 24.0108 24.5766C24.1007 24.3151 24.0873 24.0177 23.9738 23.7488C23.4693 22.5537 22.6975 20.7256 22.6975 20.7256" stroke="white" stroke-width="0.876105" stroke-miterlimit="1.5" stroke-linecap="round" stroke-linejoin="round"/>
<path d="M13.3708 22.2855L14.9851 21.604" stroke="white" stroke-width="0.876105" stroke-miterlimit="1.5" stroke-linecap="round" stroke-linejoin="round"/>
<path d="M14.3217 16.6537C13.8513 15.5395 12.5663 15.0174 11.452 15.4878C10.3378 15.9581 9.81566 17.2432 10.286 18.3574" stroke="white" stroke-width="0.876105" stroke-miterlimit="1.5" stroke-linecap="round" stroke-linejoin="round"/>
</g>
<g opacity="0.34">
<path d="M37.9822 7.3209L39.7127 -1.62122M46.3199 7.60917L47.968 -0.907137M39.7127 -1.62122L39.9764 -2.98361C40.0607 -3.41944 40.4605 -3.72126 40.9027 -3.683L47.4201 -3.11925C47.9332 -3.07487 48.2948 -2.59585 48.197 -2.09023L47.968 -0.907137M39.7127 -1.62122L47.968 -0.907137" stroke="white" stroke-width="0.867432" stroke-linecap="round" stroke-linejoin="round"/>
<ellipse cx="36.0659" cy="6.95003" rx="1.95172" ry="1.30115" transform="rotate(10.9528 36.0659 6.95003)" stroke="white" stroke-width="0.867432" stroke-linecap="round"/>
<ellipse cx="44.4037" cy="7.23836" rx="1.95172" ry="1.30115" transform="rotate(10.9528 44.4037 7.23836)" stroke="white" stroke-width="0.867432" stroke-linecap="round"/>
</g>
<g opacity="0.34">
<path d="M36.4552 59.6318V60.8187C36.4552 62.0739 35.4376 63.0915 34.1824 63.0915H30.5448C28.6795 63.0915 26.8956 62.3273 25.6087 60.9769L20.2039 55.3051C19.5346 54.6028 19.5346 53.4988 20.2039 52.7965L21.3506 51.5931L36.4552 59.6318ZM36.4552 59.6318C36.4552 58.034 35.3776 56.6372 33.8321 56.2317L33.1022 56.0403C31.7032 55.6732 30.7277 54.4089 30.7277 52.9625V51.0431C30.7277 50.5214 30.2127 50.1559 29.7203 50.3282L29.4276 50.4305C28.6458 50.704 27.7835 50.3447 27.4273 49.597L27.4107 49.5622C27.2108 49.1427 27.2108 48.6555 27.4107 48.236C27.4918 48.0659 27.4594 47.8634 27.3294 47.7269L26.5112 46.8683C26.4254 46.7783 26.3065 46.7273 26.1821 46.7273C26.0578 46.7273 25.9389 46.7783 25.8531 46.8683L21.3547 51.5888L36.4552 59.6318Z" stroke="white" stroke-width="0.909121" stroke-linecap="round" stroke-linejoin="round"/>
<path d="M27.8186 50.3639L27.6252 52.8778C27.4912 54.6192 29.0058 56.036 30.7344 55.7863L31.9096 55.6166" stroke="white" stroke-width="0.909121" stroke-linecap="round" stroke-linejoin="round"/>
<path d="M21.9093 51.7275L28.3686 58.9942C28.8861 59.5765 29.628 59.9096 30.407 59.9096H36.4552" stroke="white" stroke-width="0.909121" stroke-linecap="round" stroke-linejoin="round"/>
<path d="M30.5459 59.9096V59.455C30.5459 58.7019 31.1564 58.0913 31.9096 58.0913V58.0913C32.6627 58.0913 33.2733 57.4808 33.2733 56.7276V56.2731" stroke="white" stroke-width="0.909121" stroke-linecap="round" stroke-linejoin="round"/>
<path d="M24.182 61.7279H21.0001" stroke="white" stroke-width="0.909121" stroke-linecap="round" stroke-linejoin="round"/>
<path d="M22.8184 48.0911H19.6365" stroke="white" stroke-width="0.909121" stroke-linecap="round" stroke-linejoin="round"/>
<path d="M18.7274 57.6368H16.9092" stroke="white" stroke-width="0.909121" stroke-linecap="round" stroke-linejoin="round"/>
</g>
<g opacity="0.34">
<g clip-path="url(#clip0_31545_190347)">
<path d="M75.2862 1.24068C75.6179 0.934293 76.1351 0.954766 76.4415 1.28641L80.8797 6.09041C81.1861 6.42205 81.1656 6.93928 80.8339 7.24568L75.4335 12.2349C75.1019 12.5413 74.5846 12.5208 74.2782 12.1891L71.1311 8.78264C71.0132 8.65497 70.8576 8.56822 70.6871 8.53497L68.7565 8.15867C68.4279 8.09463 68.3114 7.68437 68.5573 7.4572L75.2862 1.24068Z" stroke="white" stroke-width="0.817539" stroke-linecap="round"/>
<path d="M90.5379 11.6368C90.8696 11.3304 90.89 10.8132 90.5837 10.4815L86.1455 5.67754C85.8391 5.34589 85.3219 5.32542 84.9902 5.63181L79.5898 10.621C79.2582 10.9274 79.2377 11.4446 79.5441 11.7763L82.6912 15.1828C82.8091 15.3104 82.8833 15.4724 82.903 15.6451L83.1255 17.5993C83.1634 17.9319 83.5631 18.0805 83.809 17.8533L90.5379 11.6368Z" stroke="white" stroke-width="0.817539" stroke-linecap="round"/>
<path d="M72.9808 6.70958L76.1704 5.47112C76.5163 5.33683 76.8478 5.69563 76.6866 6.02978L75.1999 9.11157" stroke="white" stroke-width="0.817539" stroke-linecap="round"/>
<path d="M74.1449 6.74719L75.2544 7.94819" stroke="white" stroke-width="0.817539" stroke-linecap="round"/>
<path d="M85.0951 9.43066C84.6398 9.91584 84.0245 11.1742 84.11 12.2765C84.1716 13.0711 84.7481 13.9453 84.8767 14.0845" stroke="white" stroke-width="0.817539" stroke-linecap="round"/>
<path d="M84.2629 8.52991L87.5916 12.1329" stroke="white" stroke-width="0.817539" stroke-linecap="round"/>
<path d="M87.1459 9.20544L85.9272 10.3314" stroke="white" stroke-width="0.817539" stroke-linecap="round"/>
<path d="M86.7593 11.2322C86.2396 11.6477 84.9366 12.1616 83.8445 11.9893C83.0573 11.8651 82.2314 11.2213 82.1027 11.082" stroke="white" stroke-width="0.817539" stroke-linecap="round"/>
</g>
</g>
<defs>
<clipPath id="clip0_31545_190347">
<path d="M77.8321 -2.78091C79.1587 -4.00648 81.2276 -3.92459 82.4532 -2.598L91.8843 7.61048C93.1099 8.93707 93.028 11.006 91.7014 12.2316L81.2714 21.8674C79.9448 23.093 77.8759 23.0111 76.6503 21.6845L67.2192 11.476C65.9936 10.1494 66.0755 8.08049 67.4021 6.85492L77.8321 -2.78091Z" fill="white"/>
</clipPath>
</defs>
</svg>
