<svg width="180" height="52" viewBox="0 0 180 52" fill="none" xmlns="http://www.w3.org/2000/svg">
<rect x="0.5" y="0.5" width="179" height="51" rx="9.5" stroke="url(#paint0_linear)"/>
<path d="M40.1705 25.7192C40.1318 21.5293 43.6891 19.4909 43.8518 19.396C41.8371 16.5321 38.7145 16.1408 37.6171 16.1096C34.9945 15.8405 32.4505 17.6397 31.1145 17.6397C29.7518 17.6397 27.6945 16.1356 25.4771 16.1798C22.6238 16.2227 19.9545 17.8334 18.4905 20.3346C15.4691 25.4345 17.7225 32.929 20.6171 37.0513C22.0651 39.0702 23.7571 41.3244 25.9718 41.2451C28.1385 41.158 28.9478 39.8983 31.5625 39.8983C34.1531 39.8983 34.9131 41.2451 37.1718 41.1944C39.4971 41.158 40.9611 39.1664 42.3585 37.1293C44.0318 34.8153 44.7038 32.5364 44.7305 32.4194C44.6758 32.4012 40.2145 30.7411 40.1705 25.7192Z" fill="url(#paint1_linear)"/>
<path d="M35.9038 13.3978C37.0691 11.9769 37.8665 10.0438 37.6451 8.08209C35.9585 8.15489 33.8491 9.21959 32.6345 10.6093C31.5598 11.8339 30.5998 13.8411 30.8478 15.7287C32.7425 15.8665 34.6878 14.7966 35.9038 13.3978Z" fill="url(#paint2_linear)"/>
<path d="M71.5264 40.9552H68.4984L66.8397 35.8735H61.0744L59.4944 40.9552H56.5464L62.2584 23.6548H65.7864L71.5264 40.9552ZM66.3397 33.7415L64.8397 29.224C64.6811 28.7625 64.3837 27.6757 63.945 25.9649H63.8917C63.717 26.7007 63.4357 27.7875 63.049 29.224L61.5757 33.7415H66.3397Z" fill="url(#paint3_linear)"/>
<path d="M86.2157 34.5644C86.2157 36.686 85.6277 38.363 84.4517 39.5941C83.3984 40.69 82.0904 41.2373 80.529 41.2373C78.8437 41.2373 77.633 40.6471 76.8957 39.4667H76.8424V46.0382H73.9997V32.5871C73.9997 31.2533 73.9637 29.8844 73.8944 28.4804H76.3944L76.553 30.4577H76.6064C77.5544 28.9679 78.993 28.2243 80.9237 28.2243C82.433 28.2243 83.693 28.8054 84.701 29.9689C85.7117 31.1337 86.2157 32.6651 86.2157 34.5644ZM83.3197 34.6658C83.3197 33.4516 83.0397 32.4506 82.477 31.6628C81.8624 30.8412 81.037 30.4304 80.0024 30.4304C79.301 30.4304 78.6637 30.6592 78.0944 31.1103C77.5237 31.5653 77.1504 32.1594 76.9757 32.8952C76.8877 33.2384 76.8437 33.5192 76.8437 33.7402V35.8202C76.8437 36.7276 77.129 37.4933 77.6997 38.1186C78.2704 38.7439 79.0117 39.0559 79.9237 39.0559C80.9944 39.0559 81.8277 38.6529 82.4237 37.8495C83.021 37.0448 83.3197 35.984 83.3197 34.6658Z" fill="url(#paint4_linear)"/>
<path d="M100.932 34.5644C100.932 36.686 100.344 38.363 99.1664 39.5941C98.1144 40.69 96.8064 41.2373 95.2451 41.2373C93.5597 41.2373 92.3491 40.6471 91.6131 39.4667H91.5597V46.0382H88.7171V32.5871C88.7171 31.2533 88.6811 29.8844 88.6117 28.4804H91.1117L91.2704 30.4577H91.3237C92.2704 28.9679 93.7091 28.2243 95.6411 28.2243C97.1491 28.2243 98.4091 28.8054 99.4197 29.9689C100.426 31.1337 100.932 32.6651 100.932 34.5644ZM98.0357 34.6658C98.0357 33.4516 97.7544 32.4506 97.1917 31.6628C96.577 30.8412 95.7544 30.4304 94.7184 30.4304C94.0157 30.4304 93.3797 30.6592 92.8091 31.1103C92.2384 31.5653 91.8664 32.1594 91.6917 32.8952C91.605 33.2384 91.5597 33.5192 91.5597 33.7402V35.8202C91.5597 36.7276 91.8451 37.4933 92.4131 38.1186C92.9837 38.7426 93.7251 39.0559 94.6397 39.0559C95.7104 39.0559 96.5437 38.6529 97.1397 37.8495C97.7371 37.0448 98.0357 35.984 98.0357 34.6658Z" fill="url(#paint5_linear)"/>
<path d="M117.385 36.1036C117.385 37.5752 116.861 38.7725 115.809 39.6968C114.653 40.7069 113.044 41.2113 110.976 41.2113C109.066 41.2113 107.536 40.8525 106.377 40.1336L107.036 37.8235C108.284 38.5593 109.653 38.9285 111.145 38.9285C112.216 38.9285 113.049 38.6919 113.648 38.2213C114.244 37.7507 114.541 37.1189 114.541 36.3311C114.541 35.6291 114.296 35.0376 113.804 34.5579C113.314 34.0782 112.497 33.6323 111.356 33.2202C108.249 32.0905 106.697 30.4356 106.697 28.2594C106.697 26.8372 107.241 25.6711 108.33 24.7637C109.416 23.855 110.864 23.4013 112.674 23.4013C114.289 23.4013 115.63 23.6756 116.701 24.2229L115.99 26.4823C114.99 25.9519 113.86 25.6867 112.594 25.6867C111.594 25.6867 110.813 25.9272 110.253 26.4056C109.78 26.8333 109.542 27.3546 109.542 27.9721C109.542 28.6559 109.813 29.2214 110.357 29.666C110.83 30.0768 111.69 30.5214 112.938 31.0011C114.465 31.6004 115.586 32.3011 116.308 33.1045C117.026 33.9053 117.385 34.9076 117.385 36.1036Z" fill="url(#paint6_linear)"/>
<path d="M126.784 30.5604H123.65V36.6171C123.65 38.1576 124.202 38.9272 125.309 38.9272C125.817 38.9272 126.238 38.8843 126.572 38.7985L126.65 40.9032C126.09 41.1073 125.353 41.21 124.44 41.21C123.317 41.21 122.44 40.8759 121.806 40.209C121.176 39.5408 120.858 38.4202 120.858 36.8459V30.5578H118.992V28.4778H120.858V26.1937L123.65 25.3721V28.4778H126.784V30.5604Z" fill="url(#paint7_linear)"/>
<path d="M140.921 34.6151C140.921 36.5326 140.358 38.1069 139.236 39.338C138.058 40.6055 136.496 41.2373 134.548 41.2373C132.67 41.2373 131.176 40.6302 130.061 39.416C128.946 38.2018 128.389 36.6691 128.389 34.8218C128.389 32.8887 128.962 31.3053 130.113 30.0742C131.261 28.8418 132.81 28.2256 134.758 28.2256C136.636 28.2256 138.146 28.8327 139.286 30.0482C140.377 31.2273 140.921 32.7496 140.921 34.6151ZM137.972 34.7048C137.972 33.5543 137.72 32.5676 137.209 31.7447C136.613 30.7489 135.761 30.2523 134.657 30.2523C133.514 30.2523 132.646 30.7502 132.05 31.7447C131.54 32.5689 131.288 33.5712 131.288 34.7568C131.288 35.9073 131.54 36.894 132.05 37.7156C132.665 38.7114 133.524 39.208 134.632 39.208C135.717 39.208 136.569 38.701 137.184 37.6896C137.708 36.8511 137.972 35.854 137.972 34.7048Z" fill="url(#paint8_linear)"/>
<path d="M150.161 30.9179C149.88 30.8672 149.58 30.8412 149.265 30.8412C148.265 30.8412 147.492 31.2091 146.948 31.9462C146.474 32.5962 146.237 33.4178 146.237 34.4097V40.9552H143.396L143.422 32.409C143.422 30.9712 143.386 29.6621 143.316 28.4817H145.792L145.896 30.8685H145.974C146.274 30.0482 146.748 29.3878 147.396 28.8925C148.029 28.4466 148.713 28.2243 149.45 28.2243C149.713 28.2243 149.95 28.2425 150.161 28.275V30.9179Z" fill="url(#paint9_linear)"/>
<path d="M162.874 34.1276C162.874 34.6242 162.841 35.0428 162.77 35.3847H154.242C154.276 36.6171 154.688 37.5596 155.48 38.2096C156.198 38.7907 157.128 39.0819 158.269 39.0819C159.532 39.0819 160.684 38.8856 161.72 38.4917L162.165 40.4157C160.954 40.9305 159.525 41.1866 157.876 41.1866C155.892 41.1866 154.334 40.6172 153.201 39.4797C152.07 38.3422 151.504 36.8147 151.504 34.8985C151.504 33.0174 152.03 31.4509 153.085 30.2016C154.189 28.8678 155.681 28.2009 157.558 28.2009C159.402 28.2009 160.798 28.8678 161.746 30.2016C162.497 31.2611 162.874 32.5715 162.874 34.1276ZM160.164 33.4087C160.182 32.5871 159.997 31.8773 159.612 31.278C159.12 30.5071 158.364 30.1223 157.346 30.1223C156.417 30.1223 155.661 30.498 155.084 31.252C154.61 31.8513 154.329 32.5702 154.242 33.4074H160.164V33.4087Z" fill="url(#paint10_linear)"/>
<path d="M65.3997 13.0117C65.3997 14.5418 64.9291 15.6936 63.9891 16.4671C63.1184 17.1808 61.8811 17.5383 60.2784 17.5383C59.4837 17.5383 58.8037 17.5045 58.2344 17.4369V9.0766C58.9771 8.9596 59.7771 8.8998 60.6411 8.8998C62.1677 8.8998 63.3184 9.2235 64.0944 9.8709C64.9637 10.6028 65.3997 11.6493 65.3997 13.0117ZM63.9264 13.0494C63.9264 12.0575 63.6571 11.297 63.1184 10.7666C62.5797 10.2375 61.7931 9.9723 60.7571 9.9723C60.3171 9.9723 59.9424 10.0009 59.6317 10.0607V16.4164C59.8037 16.4424 60.1184 16.4541 60.5757 16.4541C61.6451 16.4541 62.4704 16.1642 63.0517 15.5844C63.6331 15.0046 63.9264 14.1596 63.9264 13.0494Z" fill="url(#paint11_linear)"/>
<path d="M73.2117 14.3481C73.2117 15.2906 72.9357 16.0628 72.3837 16.6686C71.8051 17.2913 71.0384 17.602 70.0811 17.602C69.1584 17.602 68.4237 17.3043 67.8757 16.7063C67.3291 16.1096 67.0557 15.3569 67.0557 14.4495C67.0557 13.5005 67.3371 12.7218 67.9024 12.1173C68.4677 11.5128 69.2277 11.2099 70.1851 11.2099C71.1077 11.2099 71.8491 11.5076 72.4104 12.1043C72.9437 12.6841 73.2117 13.4329 73.2117 14.3481ZM71.7624 14.3923C71.7624 13.8268 71.6371 13.3419 71.3877 12.9376C71.0944 12.4488 70.6771 12.2044 70.1344 12.2044C69.5731 12.2044 69.1464 12.4488 68.8531 12.9376C68.6024 13.3419 68.4784 13.8346 68.4784 14.417C68.4784 14.9825 68.6037 15.4674 68.8531 15.8717C69.1557 16.3605 69.5771 16.6049 70.1211 16.6049C70.6544 16.6049 71.0731 16.3566 71.3744 15.8587C71.6331 15.4466 71.7624 14.9578 71.7624 14.3923Z" fill="url(#paint12_linear)"/>
<path d="M83.6864 11.3347L81.7197 17.4629H80.4397L79.6251 14.8018C79.4184 14.1375 79.2504 13.4771 79.1197 12.8219H79.0944C78.9731 13.4953 78.8051 14.1544 78.5891 14.8018L77.7237 17.4629H76.4291L74.5797 11.3347H76.0157L76.7264 14.248C76.8984 14.937 77.0397 15.5935 77.1531 16.2149H77.1784C77.2824 15.7027 77.4544 15.0501 77.6971 14.261L78.5891 11.336H79.7277L80.5824 14.1986C80.7891 14.8967 80.9571 15.5688 81.0864 16.2162H81.1251C81.2197 15.5857 81.3624 14.9136 81.5517 14.1986L82.3144 11.336H83.6864V11.3347Z" fill="url(#paint13_linear)"/>
<path d="M90.9304 17.4629H89.5331V13.9529C89.5331 12.8713 89.1117 12.3305 88.2664 12.3305C87.8517 12.3305 87.5171 12.4787 87.2571 12.7764C86.9997 13.0741 86.8691 13.4251 86.8691 13.8268V17.4616H85.4717V13.0858C85.4717 12.5476 85.4544 11.9639 85.4211 11.3321H86.6491L86.7144 12.2902H86.7531C86.9157 11.9925 87.1584 11.7468 87.4771 11.5505C87.8557 11.3217 88.2797 11.206 88.7437 11.206C89.3304 11.206 89.8184 11.3906 90.2064 11.7611C90.6891 12.2148 90.9304 12.8921 90.9304 13.7917V17.4629Z" fill="url(#paint14_linear)"/>
<path d="M94.7837 17.4629H93.3877V8.5228H94.7837V17.4629Z" fill="url(#paint15_linear)"/>
<path d="M103.01 14.3481C103.01 15.2906 102.734 16.0628 102.182 16.6686C101.604 17.2913 100.836 17.602 99.8798 17.602C98.9557 17.602 98.2211 17.3043 97.6744 16.7063C97.1277 16.1096 96.8544 15.3569 96.8544 14.4495C96.8544 13.5005 97.1357 12.7218 97.7011 12.1173C98.2664 11.5128 99.0264 11.2099 99.9824 11.2099C100.906 11.2099 101.646 11.5076 102.209 12.1043C102.742 12.6841 103.01 13.4329 103.01 14.3481ZM101.56 14.3923C101.56 13.8268 101.434 13.3419 101.185 12.9376C100.893 12.4488 100.474 12.2044 99.9331 12.2044C99.3704 12.2044 98.9437 12.4488 98.6517 12.9376C98.4011 13.3419 98.2771 13.8346 98.2771 14.417C98.2771 14.9825 98.4024 15.4674 98.6517 15.8717C98.9544 16.3605 99.3758 16.6049 99.9198 16.6049C100.453 16.6049 100.87 16.3566 101.172 15.8587C101.432 15.4466 101.56 14.9578 101.56 14.3923Z" fill="url(#paint16_linear)"/>
<path d="M109.773 17.4629H108.518L108.414 16.757H108.376C107.946 17.3199 107.334 17.602 106.54 17.602C105.946 17.602 105.466 17.4161 105.105 17.0469C104.777 16.7115 104.613 16.2942 104.613 15.7989C104.613 15.0501 104.933 14.4794 105.577 14.0842C106.22 13.689 107.124 13.4953 108.288 13.5044V13.39C108.288 12.5827 107.853 12.1797 106.982 12.1797C106.362 12.1797 105.816 12.3318 105.344 12.6334L105.06 11.739C105.644 11.3867 106.365 11.2099 107.216 11.2099C108.858 11.2099 109.682 12.0549 109.682 13.7449V16.0017C109.682 16.614 109.713 17.1015 109.773 17.4629ZM108.322 15.3569V14.4118C106.781 14.3858 106.01 14.7979 106.01 15.6468C106.01 15.9666 106.098 16.2058 106.278 16.3657C106.458 16.5256 106.688 16.6049 106.961 16.6049C107.268 16.6049 107.554 16.51 107.816 16.3215C108.078 16.1317 108.24 15.8912 108.3 15.5961C108.314 15.5298 108.322 15.4492 108.322 15.3569Z" fill="url(#paint17_linear)"/>
<path d="M117.713 17.4629H116.473L116.408 16.4788H116.369C115.973 17.2276 115.298 17.602 114.35 17.602C113.593 17.602 112.962 17.3121 112.462 16.7323C111.962 16.1525 111.713 15.3998 111.713 14.4755C111.713 13.4836 111.984 12.6802 112.528 12.0666C113.054 11.4946 113.7 11.2086 114.468 11.2086C115.312 11.2086 115.902 11.4855 116.238 12.0406H116.265V8.5228H117.664V15.8119C117.664 16.4086 117.68 16.9585 117.713 17.4629ZM116.265 14.8785V13.8567C116.265 13.6799 116.252 13.5369 116.226 13.4277C116.148 13.1001 115.978 12.8245 115.721 12.6022C115.461 12.3799 115.148 12.2681 114.786 12.2681C114.265 12.2681 113.857 12.4696 113.557 12.8739C113.26 13.2782 113.109 13.7943 113.109 14.4248C113.109 15.0306 113.252 15.522 113.538 15.9003C113.841 16.3033 114.249 16.5048 114.76 16.5048C115.218 16.5048 115.585 16.3371 115.864 16.0004C116.133 15.6897 116.265 15.3153 116.265 14.8785Z" fill="url(#paint18_linear)"/>
<path d="M129.664 14.3481C129.664 15.2906 129.388 16.0628 128.836 16.6686C128.257 17.2913 127.492 17.602 126.533 17.602C125.612 17.602 124.877 17.3043 124.328 16.7063C123.781 16.1096 123.508 15.3569 123.508 14.4495C123.508 13.5005 123.789 12.7218 124.354 12.1173C124.92 11.5128 125.68 11.2099 126.638 11.2099C127.56 11.2099 128.302 11.5076 128.862 12.1043C129.396 12.6841 129.664 13.4329 129.664 14.3481ZM128.216 14.3923C128.216 13.8268 128.09 13.3419 127.841 12.9376C127.546 12.4488 127.13 12.2044 126.586 12.2044C126.026 12.2044 125.6 12.4488 125.305 12.9376C125.054 13.3419 124.93 13.8346 124.93 14.417C124.93 14.9825 125.056 15.4674 125.305 15.8717C125.608 16.3605 126.029 16.6049 126.573 16.6049C127.106 16.6049 127.526 16.3566 127.828 15.8587C128.085 15.4466 128.216 14.9578 128.216 14.3923Z" fill="url(#paint19_linear)"/>
<path d="M137.177 17.4629H135.781V13.9529C135.781 12.8713 135.36 12.3305 134.513 12.3305C134.098 12.3305 133.764 12.4787 133.505 12.7764C133.246 13.0741 133.117 13.4251 133.117 13.8268V17.4616H131.718V13.0858C131.718 12.5476 131.702 11.9639 131.669 11.3321H132.896L132.961 12.2902H133C133.164 11.9925 133.406 11.7468 133.724 11.5505C134.104 11.3217 134.526 11.206 134.992 11.206C135.577 11.206 136.065 11.3906 136.453 11.7611C136.937 12.2148 137.177 12.8921 137.177 13.7917V17.4629Z" fill="url(#paint20_linear)"/>
<path d="M146.581 12.3552H145.042V15.3322C145.042 16.0888 145.316 16.4671 145.857 16.4671C146.108 16.4671 146.316 16.4463 146.48 16.4034L146.516 17.4369C146.24 17.5383 145.877 17.589 145.43 17.589C144.878 17.589 144.449 17.4252 144.138 17.0976C143.826 16.77 143.672 16.2188 143.672 15.4453V12.3552H142.753V11.3347H143.672V10.2115L145.041 9.80851V11.3334H146.58V12.3552H146.581Z" fill="url(#paint21_linear)"/>
<path d="M153.978 17.4629H152.58V13.9789C152.58 12.8804 152.158 12.3305 151.314 12.3305C150.666 12.3305 150.224 12.649 149.981 13.286C149.94 13.4199 149.916 13.5837 149.916 13.7761V17.4616H148.52V8.5228H149.916V12.2161H149.942C150.382 11.544 151.013 11.2086 151.83 11.2086C152.409 11.2086 152.888 11.3932 153.268 11.7637C153.741 12.2252 153.978 12.9116 153.978 13.819V17.4629Z" fill="url(#paint22_linear)"/>
<path d="M161.609 14.1089C161.609 14.3533 161.59 14.5587 161.557 14.7264H157.366C157.385 15.3322 157.585 15.7937 157.973 16.1135C158.328 16.3995 158.785 16.5425 159.345 16.5425C159.965 16.5425 160.53 16.4463 161.04 16.2526L161.258 17.199C160.662 17.4512 159.961 17.5773 159.149 17.5773C158.176 17.5773 157.409 17.2978 156.854 16.7388C156.297 16.1798 156.021 15.4297 156.021 14.4885C156.021 13.5642 156.278 12.7946 156.797 12.181C157.338 11.5258 158.07 11.1982 158.994 11.1982C159.898 11.1982 160.585 11.5258 161.049 12.181C161.424 12.701 161.609 13.3445 161.609 14.1089ZM160.276 13.7566C160.286 13.3523 160.194 13.0039 160.005 12.7101C159.762 12.3318 159.393 12.142 158.893 12.142C158.437 12.142 158.065 12.3266 157.781 12.6971C157.549 12.9922 157.412 13.3445 157.366 13.7566H160.276Z" fill="url(#paint23_linear)"/>
<defs>
<linearGradient id="paint0_linear" x1="171.115" y1="40.0889" x2="4.58836" y2="45.3396" gradientUnits="userSpaceOnUse">
<stop stop-color="#453193"/>
<stop offset="0.51" stop-color="#1173BB"/>
<stop offset="1" stop-color="#5FBBEA"/>
</linearGradient>
<linearGradient id="paint1_linear" x1="155.677" y1="37.344" x2="20.8038" y2="42.0637" gradientUnits="userSpaceOnUse">
<stop stop-color="#453193"/>
<stop offset="0.51" stop-color="#1173BB"/>
<stop offset="1" stop-color="#5FBBEA"/>
</linearGradient>
<linearGradient id="paint2_linear" x1="155.677" y1="37.344" x2="20.8038" y2="42.0637" gradientUnits="userSpaceOnUse">
<stop stop-color="#453193"/>
<stop offset="0.51" stop-color="#1173BB"/>
<stop offset="1" stop-color="#5FBBEA"/>
</linearGradient>
<linearGradient id="paint3_linear" x1="155.677" y1="37.344" x2="20.8038" y2="42.0637" gradientUnits="userSpaceOnUse">
<stop stop-color="#453193"/>
<stop offset="0.51" stop-color="#1173BB"/>
<stop offset="1" stop-color="#5FBBEA"/>
</linearGradient>
<linearGradient id="paint4_linear" x1="155.677" y1="37.344" x2="20.8038" y2="42.0637" gradientUnits="userSpaceOnUse">
<stop stop-color="#453193"/>
<stop offset="0.51" stop-color="#1173BB"/>
<stop offset="1" stop-color="#5FBBEA"/>
</linearGradient>
<linearGradient id="paint5_linear" x1="155.677" y1="37.344" x2="20.8038" y2="42.0637" gradientUnits="userSpaceOnUse">
<stop stop-color="#453193"/>
<stop offset="0.51" stop-color="#1173BB"/>
<stop offset="1" stop-color="#5FBBEA"/>
</linearGradient>
<linearGradient id="paint6_linear" x1="155.677" y1="37.344" x2="20.8038" y2="42.0637" gradientUnits="userSpaceOnUse">
<stop stop-color="#453193"/>
<stop offset="0.51" stop-color="#1173BB"/>
<stop offset="1" stop-color="#5FBBEA"/>
</linearGradient>
<linearGradient id="paint7_linear" x1="155.677" y1="37.344" x2="20.8038" y2="42.0637" gradientUnits="userSpaceOnUse">
<stop stop-color="#453193"/>
<stop offset="0.51" stop-color="#1173BB"/>
<stop offset="1" stop-color="#5FBBEA"/>
</linearGradient>
<linearGradient id="paint8_linear" x1="155.677" y1="37.344" x2="20.8038" y2="42.0637" gradientUnits="userSpaceOnUse">
<stop stop-color="#453193"/>
<stop offset="0.51" stop-color="#1173BB"/>
<stop offset="1" stop-color="#5FBBEA"/>
</linearGradient>
<linearGradient id="paint9_linear" x1="155.677" y1="37.344" x2="20.8038" y2="42.0637" gradientUnits="userSpaceOnUse">
<stop stop-color="#453193"/>
<stop offset="0.51" stop-color="#1173BB"/>
<stop offset="1" stop-color="#5FBBEA"/>
</linearGradient>
<linearGradient id="paint10_linear" x1="155.677" y1="37.344" x2="20.8038" y2="42.0637" gradientUnits="userSpaceOnUse">
<stop stop-color="#453193"/>
<stop offset="0.51" stop-color="#1173BB"/>
<stop offset="1" stop-color="#5FBBEA"/>
</linearGradient>
<linearGradient id="paint11_linear" x1="155.677" y1="37.344" x2="20.8038" y2="42.0637" gradientUnits="userSpaceOnUse">
<stop stop-color="#453193"/>
<stop offset="0.51" stop-color="#1173BB"/>
<stop offset="1" stop-color="#5FBBEA"/>
</linearGradient>
<linearGradient id="paint12_linear" x1="155.677" y1="37.344" x2="20.8038" y2="42.0637" gradientUnits="userSpaceOnUse">
<stop stop-color="#453193"/>
<stop offset="0.51" stop-color="#1173BB"/>
<stop offset="1" stop-color="#5FBBEA"/>
</linearGradient>
<linearGradient id="paint13_linear" x1="155.677" y1="37.344" x2="20.8038" y2="42.0637" gradientUnits="userSpaceOnUse">
<stop stop-color="#453193"/>
<stop offset="0.51" stop-color="#1173BB"/>
<stop offset="1" stop-color="#5FBBEA"/>
</linearGradient>
<linearGradient id="paint14_linear" x1="155.677" y1="37.344" x2="20.8038" y2="42.0637" gradientUnits="userSpaceOnUse">
<stop stop-color="#453193"/>
<stop offset="0.51" stop-color="#1173BB"/>
<stop offset="1" stop-color="#5FBBEA"/>
</linearGradient>
<linearGradient id="paint15_linear" x1="155.677" y1="37.344" x2="20.8038" y2="42.0637" gradientUnits="userSpaceOnUse">
<stop stop-color="#453193"/>
<stop offset="0.51" stop-color="#1173BB"/>
<stop offset="1" stop-color="#5FBBEA"/>
</linearGradient>
<linearGradient id="paint16_linear" x1="155.677" y1="37.344" x2="20.8038" y2="42.0637" gradientUnits="userSpaceOnUse">
<stop stop-color="#453193"/>
<stop offset="0.51" stop-color="#1173BB"/>
<stop offset="1" stop-color="#5FBBEA"/>
</linearGradient>
<linearGradient id="paint17_linear" x1="155.677" y1="37.344" x2="20.8038" y2="42.0637" gradientUnits="userSpaceOnUse">
<stop stop-color="#453193"/>
<stop offset="0.51" stop-color="#1173BB"/>
<stop offset="1" stop-color="#5FBBEA"/>
</linearGradient>
<linearGradient id="paint18_linear" x1="155.677" y1="37.344" x2="20.8038" y2="42.0637" gradientUnits="userSpaceOnUse">
<stop stop-color="#453193"/>
<stop offset="0.51" stop-color="#1173BB"/>
<stop offset="1" stop-color="#5FBBEA"/>
</linearGradient>
<linearGradient id="paint19_linear" x1="155.677" y1="37.344" x2="20.8038" y2="42.0637" gradientUnits="userSpaceOnUse">
<stop stop-color="#453193"/>
<stop offset="0.51" stop-color="#1173BB"/>
<stop offset="1" stop-color="#5FBBEA"/>
</linearGradient>
<linearGradient id="paint20_linear" x1="155.677" y1="37.344" x2="20.8038" y2="42.0637" gradientUnits="userSpaceOnUse">
<stop stop-color="#453193"/>
<stop offset="0.51" stop-color="#1173BB"/>
<stop offset="1" stop-color="#5FBBEA"/>
</linearGradient>
<linearGradient id="paint21_linear" x1="155.677" y1="37.344" x2="20.8038" y2="42.0637" gradientUnits="userSpaceOnUse">
<stop stop-color="#453193"/>
<stop offset="0.51" stop-color="#1173BB"/>
<stop offset="1" stop-color="#5FBBEA"/>
</linearGradient>
<linearGradient id="paint22_linear" x1="155.677" y1="37.344" x2="20.8038" y2="42.0637" gradientUnits="userSpaceOnUse">
<stop stop-color="#453193"/>
<stop offset="0.51" stop-color="#1173BB"/>
<stop offset="1" stop-color="#5FBBEA"/>
</linearGradient>
<linearGradient id="paint23_linear" x1="155.677" y1="37.344" x2="20.8038" y2="42.0637" gradientUnits="userSpaceOnUse">
<stop stop-color="#453193"/>
<stop offset="0.51" stop-color="#1173BB"/>
<stop offset="1" stop-color="#5FBBEA"/>
</linearGradient>
</defs>
</svg>
