<svg width="25" height="26" viewBox="0 0 25 26" fill="none" xmlns="http://www.w3.org/2000/svg">
<g clip-path="url(#clip0)">
<path d="M12.5 0.5C5.60781 0.5 0 6.10781 0 13C0 19.8922 5.60781 25.5 12.5 25.5C19.3922 25.5 25 19.8922 25 13C25 6.10781 19.3922 0.5 12.5 0.5ZM12.5 23.9375C6.46875 23.9375 1.5625 19.0312 1.5625 13C1.5625 6.96875 6.46875 2.0625 12.5 2.0625C18.5312 2.0625 23.4375 6.96875 23.4375 13C23.4375 19.0312 18.5312 23.9375 12.5 23.9375Z" fill="currentColor"/>
<path d="M13.2812 5.96875H11.7188V16.9062H13.2812V5.96875Z" fill="currentColor"/>
<path d="M13.2812 18.4688H11.7188V20.0312H13.2812V18.4688Z" fill="currentColor"/>
</g>
<defs>
<clipPath id="clip0">
<rect width="25" height="25" fill="currentColor" transform="translate(0 0.5)"/>
</clipPath>
</defs>
</svg>
