<?xml version="1.0" standalone="no"?>
<!DOCTYPE svg PUBLIC "-//W3C//DTD SVG 20010904//EN"
 "http://www.w3.org/TR/2001/REC-SVG-20010904/DTD/svg10.dtd">
<svg version="1.0" xmlns="http://www.w3.org/2000/svg"
 width="1420.000000pt" height="1420.000000pt" viewBox="0 0 1420.000000 1420.000000"
 preserveAspectRatio="xMidYMid meet">
<metadata>
Created by potrace 1.11, written by Peter Selinger 2001-2013
</metadata>
<g transform="translate(0.000000,1420.000000) scale(0.100000,-0.100000)"
fill="#000000" stroke="none">
<path d="M7684 14167 c-11 -12 -97 -97 -190 -188 -93 -91 -242 -242 -330 -335
-175 -183 -184 -193 -313 -333 -111 -122 -121 -133 -195 -215 -33 -38 -70 -80
-81 -92 -11 -12 -36 -41 -55 -63 -42 -50 -65 -77 -105 -122 -99 -113 -349
-418 -510 -624 -13 -16 -36 -46 -52 -66 -15 -20 -39 -51 -53 -69 -14 -18 -31
-39 -38 -47 -7 -7 -10 -13 -5 -13 4 0 3 -4 -3 -8 -6 -4 -48 -56 -92 -117 -45
-60 -85 -115 -90 -121 -5 -6 -31 -42 -57 -80 -26 -38 -55 -77 -63 -87 -15 -17
-16 -17 -26 0 -10 19 -18 251 -8 267 3 5 6 23 8 40 3 32 4 41 24 136 14 69 18
84 20 88 3 2 4 6 14 57 4 22 11 44 14 50 4 5 7 15 8 20 5 31 78 246 109 318
20 49 11 44 -82 -38 -183 -164 -422 -427 -558 -615 -21 -30 -42 -57 -45 -60
-3 -3 -14 -18 -26 -35 -11 -16 -36 -52 -55 -80 -19 -27 -57 -86 -84 -130 -27
-44 -52 -82 -55 -85 -3 -3 -14 -21 -24 -40 -10 -19 -40 -71 -65 -115 -25 -44
-46 -82 -47 -85 -2 -12 -18 -45 -23 -50 -17 -14 -191 -402 -191 -425 0 -5 -6
-22 -14 -36 -10 -20 -64 -169 -71 -199 -1 -3 -4 -12 -8 -20 -3 -8 -15 -46 -26
-85 -10 -38 -29 -104 -40 -145 -12 -42 -23 -86 -26 -99 -2 -12 -6 -30 -9 -39
-3 -9 -8 -30 -11 -47 -2 -16 -7 -41 -10 -55 -3 -14 -9 -50 -15 -80 -6 -30 -12
-64 -14 -75 -4 -22 -24 -149 -31 -205 -50 -368 -51 -941 -2 -1175 2 -11 8 -38
12 -60 5 -22 9 -44 11 -50 1 -5 5 -24 8 -42 3 -18 11 -45 17 -60 6 -15 10 -28
9 -28 -5 0 74 -240 83 -253 5 -6 6 -12 2 -12 -11 0 -70 69 -112 130 -21 30
-40 57 -43 60 -20 19 -162 306 -175 353 -2 4 -4 9 -5 12 -1 3 -3 8 -4 13 -1 4
-4 12 -7 17 -5 8 -24 65 -45 140 -15 51 -47 174 -49 190 -2 11 -6 31 -10 45
-3 14 -8 36 -10 50 -2 14 -7 36 -10 50 -5 26 -9 48 -19 135 -4 28 -9 66 -11
85 -8 53 -18 206 -19 287 0 40 -2 73 -4 73 -3 0 -22 -47 -26 -65 -3 -9 -7 -22
-23 -62 -3 -10 -7 -20 -8 -23 -22 -73 -31 -96 -40 -102 -5 -4 -7 -8 -3 -8 4 0
-13 -56 -37 -124 -23 -69 -40 -127 -37 -130 3 -3 0 -6 -6 -6 -7 0 -11 -3 -10
-7 3 -11 -13 -75 -23 -93 -4 -8 -20 -55 -35 -105 -14 -49 -29 -97 -32 -105 -3
-8 -6 -17 -6 -20 -8 -35 -30 -109 -37 -125 -5 -11 -11 -31 -13 -45 -3 -14 -5
-25 -6 -25 -1 0 -3 -7 -5 -15 -1 -8 -10 -42 -19 -75 -9 -33 -19 -71 -22 -85
-3 -14 -9 -41 -14 -60 -5 -19 -12 -55 -15 -80 -4 -24 -8 -47 -10 -50 -1 -3 -6
-30 -9 -61 -4 -31 -9 -67 -11 -79 -18 -92 -26 -658 -12 -820 6 -71 15 -153 22
-210 3 -25 8 -63 10 -85 2 -22 7 -51 9 -65 3 -14 8 -43 11 -65 12 -80 15 -100
21 -125 3 -14 8 -38 10 -55 3 -16 15 -68 26 -115 11 -47 22 -96 24 -110 3 -14
7 -33 10 -42 3 -9 7 -25 9 -35 2 -10 11 -43 20 -73 9 -30 17 -59 19 -65 14
-59 90 -285 107 -320 6 -12 11 -27 13 -35 1 -8 12 -37 24 -64 12 -27 22 -51
22 -53 0 -2 11 -29 25 -59 14 -30 25 -59 25 -64 0 -6 5 -10 10 -10 6 0 10 -7
10 -16 0 -8 16 -46 36 -84 19 -38 35 -72 34 -76 -1 -4 2 -10 7 -13 5 -3 26
-37 48 -76 62 -115 195 -311 243 -361 6 -7 12 -16 12 -19 0 -6 65 -83 135
-161 6 -6 42 -46 80 -89 39 -43 86 -95 105 -115 19 -20 71 -76 115 -125 44
-48 103 -111 130 -140 49 -51 80 -85 249 -269 44 -48 90 -98 101 -110 82 -89
213 -238 261 -296 16 -19 36 -42 44 -50 8 -9 31 -36 50 -60 43 -54 76 -92 118
-140 17 -21 32 -40 32 -43 0 -3 11 -18 25 -33 38 -41 231 -298 227 -303 -2 -2
1 -7 6 -10 15 -9 142 -190 142 -202 0 -5 4 -9 9 -9 5 0 15 -12 22 -28 14 -26
69 -112 79 -122 6 -6 26 -41 49 -85 9 -16 18 -32 22 -35 7 -6 38 -60 79 -135
18 -33 42 -76 53 -95 75 -133 179 -357 252 -540 31 -80 61 -154 65 -165 10
-24 23 -65 26 -85 2 -8 7 -23 13 -35 8 -16 45 -135 66 -215 2 -8 11 -40 19
-70 8 -30 17 -66 20 -80 3 -14 14 -66 25 -116 11 -50 23 -111 26 -135 7 -46
12 -70 15 -79 1 -3 2 -9 1 -13 -1 -5 3 -34 8 -65 11 -65 20 -141 27 -227 2
-33 7 -87 9 -120 6 -67 6 -65 6 -120 0 -22 0 -95 1 -162 l1 -122 56 42 c31 23
79 60 106 82 28 22 66 51 84 65 19 14 42 32 52 41 10 8 52 42 93 75 42 32 76
62 76 66 0 5 4 8 10 8 10 0 36 21 91 70 16 14 43 36 60 50 18 14 43 35 55 48
13 12 25 22 28 22 3 0 21 15 40 32 19 18 43 40 54 48 11 8 48 41 83 72 35 31
73 65 85 75 70 60 174 154 215 193 26 25 87 81 136 125 110 100 609 599 723
724 47 51 99 107 115 125 17 19 51 56 77 84 25 28 44 53 40 56 -3 3 2 6 11 6
10 0 17 4 17 8 0 9 18 31 76 94 19 20 34 40 34 43 0 3 10 16 23 28 13 12 41
44 62 72 22 27 46 56 53 64 7 8 39 46 70 85 31 39 58 73 62 76 3 3 18 23 35
45 16 22 33 45 38 50 15 18 201 269 240 323 20 28 37 56 37 62 0 5 6 13 13 17
13 9 68 88 79 116 4 9 12 17 18 17 6 0 8 5 5 10 -3 6 -1 10 4 10 6 0 11 4 11
9 0 4 27 49 60 99 33 51 60 94 60 97 0 3 16 29 35 58 19 28 35 57 35 64 0 6 4
13 8 15 12 5 97 158 190 343 25 50 62 115 82 145 79 119 191 336 250 485 47
118 91 237 96 260 2 11 8 31 13 45 15 38 49 161 56 197 3 18 9 43 15 57 5 15
8 26 6 26 -2 0 2 21 10 46 8 26 17 67 20 93 3 25 8 49 10 52 1 3 6 28 10 55 3
27 8 51 9 54 2 3 7 33 10 65 4 33 9 69 11 80 12 59 37 320 38 397 1 32 4 58 7
58 6 0 3 636 -4 730 -15 194 -18 230 -23 280 -9 83 -11 101 -18 150 -4 25 -11
79 -17 120 -15 107 -17 122 -24 128 -3 3 -5 -3 -6 -14 0 -10 -3 -28 -5 -39 -3
-11 -7 -33 -9 -50 -9 -73 -14 -110 -15 -110 -2 0 -7 -26 -14 -72 -3 -21 -7
-48 -10 -59 -2 -12 -7 -38 -10 -58 -3 -19 -11 -57 -17 -83 -6 -27 -12 -57 -15
-68 -10 -54 -30 -140 -34 -152 -1 -5 -2 -11 -1 -15 0 -4 -5 -27 -13 -50 -15
-47 -48 -157 -51 -173 -4 -16 -32 -97 -46 -130 -7 -16 -13 -33 -13 -37 -1 -3
-4 -10 -8 -14 -5 -4 -8 -16 -8 -26 0 -10 -4 -18 -10 -18 -5 0 -10 -9 -10 -20
0 -11 -4 -20 -9 -20 -5 0 -11 -10 -15 -22 -10 -43 -118 -164 -136 -153 -6 3
-8 10 -5 15 3 5 8 44 11 87 3 43 7 96 9 118 29 272 26 848 -5 1090 -5 39 -12
90 -15 115 -3 25 -8 56 -11 70 -3 14 -7 36 -10 50 -4 20 -38 157 -58 230 -24
84 -97 261 -138 333 -16 26 -28 50 -28 53 0 3 -13 25 -30 49 -16 24 -30 46
-30 49 0 2 -35 58 -78 123 -82 123 -190 290 -207 321 -5 9 -13 19 -16 22 -3 3
-18 23 -32 45 -32 50 -201 285 -219 305 -7 8 -26 32 -42 55 -16 22 -33 42 -38
43 -4 2 -8 8 -8 13 0 8 -52 81 -70 99 -3 3 -50 66 -105 140 -55 74 -103 140
-108 145 -34 44 -139 198 -229 335 -60 91 -113 170 -118 177 -6 7 -10 14 -10
17 0 4 -81 141 -110 186 -6 8 -16 26 -22 40 -7 14 -22 41 -34 60 -29 48 -89
159 -138 255 -22 44 -44 83 -49 86 -5 3 -8 9 -7 13 0 3 -22 54 -50 112 -27 58
-50 111 -50 117 0 6 -6 18 -14 26 -7 9 -18 30 -24 46 -5 17 -31 84 -57 150
-25 66 -48 127 -50 135 -2 8 -8 29 -15 45 -6 17 -11 31 -11 33 1 1 0 4 0 7 -1
3 -3 10 -4 15 -1 6 -4 12 -5 15 -4 8 -7 24 -9 42 -1 10 -4 13 -10 7 -11 -12
-74 -199 -97 -289 -29 -116 -43 -176 -47 -200 -3 -16 -7 -41 -10 -55 -21 -93
-29 -403 -13 -484 5 -26 4 -36 -3 -31 -6 3 -11 13 -11 21 0 14 -4 25 -28 71
-7 13 -12 27 -12 32 0 5 -8 26 -17 47 -9 22 -17 41 -18 44 -1 3 -6 16 -12 30
-6 14 -21 50 -32 80 -12 30 -26 64 -31 75 -5 11 -25 63 -45 115 -21 52 -43
109 -50 125 -20 46 -47 118 -50 135 -2 8 -15 43 -29 78 -13 34 -25 64 -25 65
0 2 -4 16 -26 82 -23 69 -63 207 -69 236 -3 13 -10 40 -16 59 -5 19 -13 49
-15 65 -3 17 -8 41 -10 55 -10 49 -15 75 -20 110 -3 20 -7 46 -10 59 -21 112
-22 547 0 791 11 125 16 177 20 205 2 17 6 57 9 90 7 62 13 105 20 140 2 11 7
47 11 80 3 32 8 62 10 65 1 3 6 25 9 50 8 56 13 85 32 175 9 38 18 81 20 95 3
14 10 43 15 65 5 22 12 54 15 70 3 17 10 38 15 48 5 9 8 17 5 17 -2 0 5 28 16
63 34 108 46 157 40 157 -4 0 -16 -10 -28 -23z"/>
</g>
</svg>
