<svg
        width="25"
        height="24"
        fill="none"
        xmlns="http://www.w3.org/2000/svg"
>
    <path
            d="M15.38 6.81c1.493 0 2.64.575 3.439 1.726l-.09.056c-.06.037-.123.082-.19.134l-.258.202c-.097.082-.194.179-.291.29-.09.105-.187.225-.291.36a2.774 2.774 0 00-.292.436c-.082.165-.16.34-.235.527-.067.179-.123.38-.168.605a4.224 4.224 0 00-.056.694c0 .478.078.926.235 1.345.165.418.348.754.55 1.008.208.246.44.467.694.66.254.187.444.314.571.382.127.067.217.108.269.123-.015.06-.056.19-.123.392a9.086 9.086 0 01-.403.907c-.195.411-.415.8-.662 1.165-.231.337-.425.605-.582.807-.157.194-.355.41-.594.65a2.418 2.418 0 01-.728.515 1.9 1.9 0 01-.795.168c-.381 0-.837-.116-1.367-.347-.523-.232-1.016-.348-1.479-.348-.463 0-.974.12-1.535.359-.56.239-1.008.358-1.344.358-.261 0-.511-.052-.75-.156a2.54 2.54 0 01-.706-.505 8.726 8.726 0 01-.594-.672c-.164-.209-.38-.5-.65-.873-.53-.755-.967-1.647-1.31-2.678a9.96 9.96 0 01-.504-3.08c0-.814.123-1.554.37-2.219.253-.672.586-1.217.996-1.635a4.56 4.56 0 011.39-.964 3.868 3.868 0 011.601-.347c.419 0 .941.127 1.569.381.627.246 1.045.37 1.254.37.18 0 .613-.131 1.3-.392.687-.27 1.273-.404 1.759-.404zm-.616-1.422a3.441 3.441 0 01-1.11.885c-.44.231-.855.347-1.243.347-.082 0-.16-.008-.235-.023a1.303 1.303 0 01-.034-.313c0-.418.09-.837.27-1.255.186-.426.414-.792.682-1.098.314-.373.71-.683 1.188-.93.478-.246.933-.377 1.367-.392.022.105.033.22.033.348 0 .88-.306 1.691-.918 2.43z"
            fill="#fff"
    />
</svg>