<svg width="25" height="25" viewBox="0 0 25 25" fill="none" xmlns="http://www.w3.org/2000/svg">
<path d="M12 5H5C4.46957 5 3.96086 5.21071 3.58579 5.58579C3.21071 5.96086 3 6.46957 3 7V21C3 21.5304 3.21071 22.0391 3.58579 22.4142C3.96086 22.7893 4.46957 23 5 23H19C19.5304 23 20.0391 22.7893 20.4142 22.4142C20.7893 22.0391 21 21.5304 21 21V14" stroke="#4293F2" stroke-width="2" stroke-linecap="round" stroke-linejoin="round"/>
<path d="M19.5 3.50023C19.8978 3.1024 20.4374 2.87891 21 2.87891C21.5626 2.87891 22.1022 3.1024 22.5 3.50023C22.8978 3.89805 23.1213 4.43762 23.1213 5.00023C23.1213 5.56284 22.8978 6.1024 22.5 6.50023L13 16.0002L9 17.0002L10 13.0002L19.5 3.50023Z" stroke="#4293F2" stroke-width="2" stroke-linecap="round" stroke-linejoin="round"/>
</svg>
