<svg
        width="24"
        height="24"
        fill="none"
        xmlns="http://www.w3.org/2000/svg"
>
    <path
            d="M19.844 10.433H19.2V10.4H12v3.2h4.521A4.798 4.798 0 017.2 12 4.8 4.8 0 0112 7.2c1.224 0 2.337.462 3.184 1.216l2.263-2.263A7.963 7.963 0 0012 4a8 8 0 107.844 6.433z"
            fill="#fff"
    />
    <path
            d="M5 8.136L7.518 10C8.2 8.297 9.85 7.095 11.781 7.095a4.55 4.55 0 013.051 1.175L17 6.082A7.591 7.591 0 0011.781 4C8.837 4 6.284 5.678 5 8.136zM11.845 20c1.986 0 3.79-.744 5.155-1.954l-2.38-1.97a4.644 4.644 0 01-2.775.914c-2 0-3.698-1.248-4.338-2.99L5 15.89A7.702 7.702 0 0011.845 20zM19.844 10.035H19.2V10H12v3.4h4.521a5.108 5.108 0 01-1.635 2.366h.002l2.476 2.225C17.188 18.161 20 15.948 20 11.7a9.07 9.07 0 00-.156-1.665z"
            fill="#fff"
    />
</svg>