<svg viewBox="0 0 32 31" fill="none" xmlns="http://www.w3.org/2000/svg">
<path d="M16.3 19.5635C14.4885 19.5635 13.2865 19.3341 11.8 19.0199C11.4605 18.9487 10.8 19.0199 10.8 20.1072C10.8 22.2818 13.0975 25 16.3 25C19.502 25 21.8 22.2818 21.8 20.1072C21.8 19.0199 21.1395 18.9481 20.8 19.0199C19.3135 19.3341 18.1115 19.5635 16.3 19.5635Z" fill="currentColor"/>
<path d="M7.80005 13.5C7.80005 13.5 8.30005 12 10.3 12C12.3 12 12.8 13.5 12.8 13.5" stroke="currentColor" stroke-width="2" stroke-linecap="round" stroke-linejoin="round"/>
<path d="M19.8 13.5C19.8 13.5 20.3 12 22.3 12C24.3 12 24.8 13.5 24.8 13.5" stroke="currentColor" stroke-width="2" stroke-linecap="round" stroke-linejoin="round"/>
<circle cx="16.3" cy="15.5" r="14.5" stroke="currentColor" stroke-width="2"/>
</svg>
