<svg viewBox="0 0 16 16" fill="none" xmlns="http://www.w3.org/2000/svg">
<path d="M12.1792 13H3.82077C2.81519 13 2 12.1848 2 11.1792C2 10.7314 2.16502 10.2993 2.46352 9.96553L2.75 9.64516C3.23299 9.10505 3.5 8.40588 3.5 7.68131V5.8732C3.5 4.54268 4.08881 3.28036 5.10824 2.42534C6.78087 1.02249 9.21913 1.02249 10.8918 2.42534C11.9112 3.28036 12.5 4.54268 12.5 5.8732V7.68131C12.5 8.40588 12.767 9.10505 13.25 9.64516L13.5365 9.96553C13.835 10.2993 14 10.7314 14 11.1792C14 12.1848 13.1848 13 12.1792 13Z" stroke="#D1D1D1" stroke-width="2"/>
<path d="M10 13C10 14.1046 9.10457 15 8 15C6.89543 15 6 14.1046 6 13" stroke="#D1D1D1" stroke-width="2"/>
</svg>
