<svg viewBox="0 0 24 25" fill="none" xmlns="http://www.w3.org/2000/svg">
<path d="M17.2958 17.5H5.70419C4.48685 17.5 3.5 16.5131 3.5 15.2958C3.5 14.7233 3.72273 14.1733 4.12105 13.7621L4.5 13.371C5.14137 12.7089 5.5 11.8233 5.5 10.9015V9.08798C5.5 7.23173 6.35917 5.47999 7.82696 4.34364C9.98948 2.66943 13.0105 2.66943 15.173 4.34364C16.6408 5.47999 17.5 7.23173 17.5 9.08799V10.9015C17.5 11.8233 17.8586 12.7089 18.5 13.371L18.8789 13.7621C19.2773 14.1733 19.5 14.7233 19.5 15.2958C19.5 16.5131 18.5131 17.5 17.2958 17.5Z" stroke="currentColor" stroke-width="2"/>
<path d="M14.5 17.5C14.5 19.1569 13.1569 20.5 11.5 20.5C9.84315 20.5 8.5 19.1569 8.5 17.5" stroke="currentColor" stroke-width="2"/>
</svg>
