<svg width="44" height="33" viewBox="0 0 44 33" fill="none"
     xmlns="http://www.w3.org/2000/svg">
  <path d="M29.0711 19.4289C27.9819 18.3398 26.6855 17.5335 25.2711 17.0454C26.786 16.002 27.7812 14.2558 27.7812 12.2812C27.7812 9.09348 25.1878 6.5 22 6.5C18.8122 6.5 16.2188 9.09348 16.2188 12.2812C16.2188 14.2558 17.214 16.002 18.729 17.0454C17.3145 17.5335 16.0181 18.3398 14.9289 19.4289C13.0402 21.3177 12 23.8289 12 26.5H13.5625C13.5625 21.8475 17.3475 18.0625 22 18.0625C26.6525 18.0625 30.4375 21.8475 30.4375 26.5H32C32 23.8289 30.9598 21.3177 29.0711 19.4289ZM22 16.5C19.6738 16.5 17.7812 14.6075 17.7812 12.2812C17.7812 9.955 19.6738 8.0625 22 8.0625C24.3262 8.0625 26.2188 9.955 26.2188 12.2812C26.2188 14.6075 24.3262 16.5 22 16.5Z"
        fill="currentColor" />
</svg>