<svg width="44" height="33" viewBox="0 0 44 33" fill="none"
     xmlns="http://www.w3.org/2000/svg">
  <g clip-path="url(#clip0)">
    <path d="M22.9628 6.50878C23.3214 6.56616 23.6607 6.70338 23.9653 6.94706C24.4643 7.34625 24.7019 7.84945 24.8855 8.58408C24.9326 8.77215 25.0139 8.99139 25.1156 9.20417C25.3488 9.30333 25.577 9.41355 25.7995 9.53439C26.019 9.48015 26.2299 9.40811 26.3982 9.32973C27.5828 8.77827 28.5765 8.80724 29.3903 9.68499C29.4591 9.75923 29.5002 9.80841 29.5897 9.91883L30.1175 10.5707C30.2595 10.746 30.3201 10.8259 30.4097 10.9749C30.99 11.9407 30.7637 12.8402 30.0302 13.8149C29.9085 13.9766 29.7843 14.1883 29.6803 14.411C29.7459 14.648 29.8005 14.8883 29.8439 15.1313C30.0307 15.281 30.2293 15.4122 30.4048 15.5017C31.0792 15.8459 31.5161 16.1906 31.7928 16.7666C31.9617 17.1182 32.0191 17.4796 31.9943 17.8419C31.9813 18.0335 31.9606 18.1402 31.9054 18.3792L31.7167 19.1965C31.6615 19.4356 31.6333 19.5406 31.5611 19.7184C31.4245 20.055 31.2145 20.3546 30.9086 20.5966C30.4074 20.993 29.8636 21.1113 29.1065 21.125C28.915 21.1285 28.6861 21.1578 28.4585 21.2079C28.3104 21.4125 28.1528 21.6098 27.9861 21.7994C27.989 22.0294 28.0119 22.2554 28.051 22.4403C28.208 23.1811 28.215 23.7375 27.9415 24.315C27.7746 24.6676 27.5298 24.9396 27.2326 25.1484C27.0756 25.2588 26.9796 25.3099 26.7591 25.4174L26.0052 25.7851C25.7847 25.8926 25.6854 25.9368 25.5017 25.9927C25.1542 26.0983 24.7892 26.1237 24.4086 26.0382C23.7851 25.8981 23.3509 25.55 22.8638 24.9703C22.7351 24.817 22.5591 24.6502 22.3678 24.5C22.2455 24.5056 22.1229 24.5084 21.9999 24.5084C21.877 24.5084 21.7543 24.5056 21.632 24.5C21.4407 24.6502 21.2647 24.817 21.136 24.9703C20.6489 25.55 20.2147 25.8981 19.5912 26.0382C19.2106 26.1237 18.8456 26.0983 18.4981 25.9927C18.3144 25.9368 18.2151 25.8926 17.9946 25.7851L17.2407 25.4174C17.1744 25.3851 17.1333 25.3648 17.0853 25.3398C15.9852 24.7669 15.6627 23.7905 15.9488 22.4403C15.9879 22.2554 16.0108 22.0294 16.0137 21.7994C15.847 21.6098 15.6894 21.4125 15.5414 21.2079C15.3137 21.1578 15.0848 21.1285 14.8933 21.125C14.1362 21.1113 13.5924 20.993 13.0912 20.5966C12.7853 20.3546 12.5753 20.055 12.4387 19.7184C12.3665 19.5406 12.3383 19.4356 12.2831 19.1965L12.0944 18.3792C12.036 18.1262 12.0145 18.0133 12.0034 17.8082C11.9826 17.4238 12.0562 17.0419 12.2513 16.6796C12.5356 16.1516 12.9564 15.8276 13.595 15.5017C13.7705 15.4122 13.9691 15.281 14.1559 15.1313C14.1993 14.8883 14.2539 14.648 14.3195 14.411C14.2155 14.1883 14.0913 13.9766 13.9696 13.8149C13.2361 12.8402 13.0098 11.9407 13.5901 10.9749C13.6797 10.8259 13.7403 10.746 13.8823 10.5707L14.4101 9.91883C14.4996 9.80841 14.5407 9.75923 14.6095 9.68499C15.4233 8.80724 16.417 8.77827 17.6016 9.32973C17.7699 9.40811 17.9808 9.48015 18.2003 9.53439C18.4228 9.41355 18.651 9.30333 18.8842 9.20417C18.9859 8.99139 19.0672 8.77215 19.1143 8.58408C19.2979 7.84945 19.5355 7.34625 20.0345 6.94706C20.3391 6.70338 20.6784 6.56616 21.037 6.50878C21.1886 6.48452 21.2885 6.47721 21.448 6.47525L22.4193 6.47461C22.6646 6.47461 22.7733 6.47846 22.9628 6.50878ZM22.4912 8.15234L21.5805 8.15217C21.1611 8.15217 20.9514 8.15217 20.7417 8.99095C20.6253 9.45653 20.3797 10.0513 20.0408 10.5602C19.5018 10.7366 18.9949 10.984 18.531 11.2911C17.9298 11.2319 17.3231 11.0505 16.8936 10.8506C16.1097 10.4857 15.9778 10.6486 15.7138 10.9746L15.186 11.6264C14.9221 11.9523 14.7901 12.1153 15.31 12.8061C15.6026 13.1949 15.9148 13.7706 16.0959 14.3629C15.9105 14.8656 15.7874 15.3985 15.7361 15.9522C15.3154 16.4003 14.7875 16.7765 14.3576 16.9959C13.5875 17.3889 13.6347 17.5932 13.729 18.0019L13.9177 18.8191C14.012 19.2278 14.0592 19.4321 14.9236 19.4477C15.4016 19.4564 16.0333 19.5611 16.6036 19.7752C16.8933 20.2573 17.2457 20.6974 17.6496 21.0842C17.7288 21.6861 17.6886 22.3221 17.5899 22.788C17.4107 23.6338 17.5992 23.7258 17.9761 23.9096L18.73 24.2773C19.1069 24.4612 19.2954 24.5531 19.8516 23.8911C20.1634 23.5199 20.6516 23.0881 21.1856 22.7786C21.4522 22.8131 21.724 22.8308 21.9999 22.8308C22.2758 22.8308 22.5476 22.8131 22.8142 22.7786C23.3482 23.0881 23.8364 23.5199 24.1482 23.8911C24.7044 24.5531 24.8929 24.4612 25.2698 24.2773L26.0237 23.9096C26.4006 23.7258 26.5891 23.6338 26.4099 22.788C26.3112 22.3221 26.271 21.6861 26.3502 21.0842C26.7541 20.6974 27.1065 20.2573 27.3962 19.7752C27.9665 19.5611 28.5982 19.4564 29.0762 19.4477C29.9406 19.4321 29.9878 19.2278 30.0821 18.8191L30.2708 18.0019C30.3651 17.5932 30.4123 17.3889 29.6422 16.9959C29.2123 16.7765 28.6844 16.4003 28.2637 15.9522C28.2124 15.3985 28.0893 14.8656 27.9039 14.3629C28.085 13.7706 28.3972 13.1949 28.6898 12.8061C29.2097 12.1153 29.0777 11.9523 28.8138 11.6264L28.286 10.9746C28.022 10.6486 27.8901 10.4857 27.1062 10.8506C26.6767 11.0505 26.07 11.2319 25.4688 11.2911C25.0049 10.984 24.498 10.7366 23.959 10.5602C23.6201 10.0513 23.3745 9.45653 23.2581 8.99095C23.0607 8.20151 22.8634 8.15507 22.4912 8.15234ZM21.9999 12.7655C24.0845 12.7655 25.7744 14.4554 25.7744 16.54C25.7744 18.6246 24.0845 20.3145 21.9999 20.3145C19.9153 20.3145 18.2254 18.6246 18.2254 16.54C18.2254 14.4554 19.9153 12.7655 21.9999 12.7655ZM21.9999 14.443C20.8418 14.443 19.903 15.3819 19.903 16.54C19.903 17.6981 20.8418 18.6369 21.9999 18.6369C23.158 18.6369 24.0969 17.6981 24.0969 16.54C24.0969 15.3819 23.158 14.443 21.9999 14.443Z"
          fill="currentColor" />
  </g>
  <defs>
    <clipPath id="clip0">
      <rect width="20" height="20" fill="currentColor"
            transform="translate(12 6.5)" />
    </clipPath>
  </defs>
</svg>