<svg width="22" height="15" viewBox="0 0 22 15" fill="none"
     xmlns="http://www.w3.org/2000/svg">
  <path opacity="0.5"
        d="M11.2734 14.0078C17.5312 14.0078 21.8594 8.94531 21.8594 7.36719C21.8594 5.78125 17.5234 0.726562 11.2734 0.726562C5.09375 0.726562 0.679688 5.78125 0.679688 7.36719C0.679688 8.94531 5.09375 14.0078 11.2734 14.0078ZM11.2734 11.7188C8.83594 11.7188 6.90625 9.74219 6.89844 7.36719C6.89062 4.92969 8.83594 3.01562 11.2734 3.01562C13.6875 3.01562 15.6406 4.92969 15.6406 7.36719C15.6406 9.74219 13.6875 11.7188 11.2734 11.7188ZM11.2734 8.9375C12.1406 8.9375 12.8594 8.22656 12.8594 7.36719C12.8594 6.5 12.1406 5.78906 11.2734 5.78906C10.3984 5.78906 9.67969 6.5 9.67969 7.36719C9.67969 8.22656 10.3984 8.9375 11.2734 8.9375Z"
        fill="white" />
</svg>