<svg width="22" height="15" viewBox="0 0 22 15" fill="none"
     xmlns="http://www.w3.org/2000/svg">
  <path opacity="0.5"
        d="M17.3438 14.1328C17.5781 14.375 17.9531 14.3906 18.1953 14.1328C18.4453 13.875 18.4297 13.5234 18.1953 13.2812L5.13281 0.226562C4.89844 -0.0078125 4.50781 -0.0078125 4.27344 0.226562C4.04688 0.453125 4.04688 0.851562 4.27344 1.07812L17.3438 14.1328ZM18.0859 11.875C20.3672 10.3672 21.8594 8.29688 21.8594 7.36719C21.8594 5.78125 17.5234 0.726562 11.2734 0.726562C9.94531 0.726562 8.69531 0.953125 7.5625 1.32812L9.59375 3.35938C10.1094 3.14062 10.6719 3.01562 11.2734 3.01562C13.6875 3.01562 15.6406 4.92969 15.6406 7.36719C15.6406 7.96094 15.5078 8.53125 15.2734 9.03125L18.0859 11.875ZM11.2734 14.0078C12.7188 14.0078 14.0625 13.7422 15.2422 13.3047L13.1953 11.2578C12.6172 11.5547 11.9609 11.7188 11.2734 11.7188C8.83594 11.7188 6.90625 9.74219 6.89844 7.36719C6.89844 6.66406 7.0625 6 7.35156 5.41406L4.67969 2.72656C2.21875 4.26562 0.679688 6.42969 0.679688 7.36719C0.679688 8.94531 5.09375 14.0078 11.2734 14.0078ZM13.7578 7.20312C13.7578 5.83594 12.6562 4.72656 11.2734 4.72656C11.1719 4.72656 11.0703 4.73438 10.9766 4.74219L13.7422 7.50781C13.75 7.41406 13.7578 7.30469 13.7578 7.20312ZM8.78125 7.1875C8.78125 8.5625 9.91406 9.67188 11.2812 9.67188C11.3906 9.67188 11.4922 9.66406 11.6016 9.65625L8.79688 6.85156C8.78906 6.96094 8.78125 7.07812 8.78125 7.1875Z"
        fill="white" />
</svg>