<svg width="24" height="24" fill="none" xmlns="http://www.w3.org/2000/svg">
  <path
      d="M17.434 11.687c-.025-2.729 2.29-4.057 2.395-4.118-1.31-1.866-3.341-2.12-4.055-2.14-1.706-.176-3.36.996-4.23.996-.886 0-2.224-.98-3.666-.951-1.856.028-3.592 1.077-4.544 2.706-1.966 3.321-.5 8.203 1.383 10.887.942 1.315 2.042 2.783 3.483 2.732 1.409-.057 1.935-.877 3.636-.877 1.685 0 2.18.877 3.648.844 1.513-.024 2.465-1.321 3.374-2.648 1.088-1.507 1.525-2.991 1.542-3.067-.035-.012-2.937-1.093-2.965-4.364zM14.66 3.662c.757-.925 1.276-2.184 1.132-3.462-1.097.047-2.469.74-3.259 1.646-.699.798-1.323 2.105-1.162 3.334 1.232.09 2.497-.607 3.288-1.518z"
      fill="#60BCEB"
  />
</svg>
