<svg width="24" height="24" fill="none" xmlns="http://www.w3.org/2000/svg">
  <path
      d="M2.796 2.17c-.263.195-.396.583-.396 1.099v17.115c0 .453.133.841.396 1.1l.065.064 9.81-9.56v-.324L2.796 2.17zm15.203 13.19l-3.298-3.163v-.26L18 8.774l.065.064 3.894 2.132c1.12.647 1.12 1.614 0 2.261l-3.894 2.132H18v-.002zm-1.023.786L13.61 12.85l-9.832 9.624c.396.388.99.452 1.65.064l11.547-6.393zm.067-8.292L5.429 1.461c-.66-.388-1.254-.324-1.65.064l9.899 9.624 3.363-3.295h.002z"
      fill="#60BCEB"
  />
</svg>
