<svg width="68" height="55" viewBox="0 0 68 55" fill="currentColor" xmlns="http://www.w3.org/2000/svg">
<path opacity="0.3" d="M0 43.7647C0 33.6774 8.17739 25.5 18.2647 25.5H23.7353C33.8226 25.5 42 33.6774 42 43.7647C42 46.3799 39.8799 48.5 37.2647 48.5H4.73529C2.12006 48.5 0 46.3799 0 43.7647Z" fill="currentColor"/>
<circle opacity="0.3" cx="20.5" cy="15" r="10.5" fill="currentColor"/>
<path opacity="0.3" d="M26 44.7647C26 34.6774 34.1774 26.5 44.2647 26.5H49.7353C59.8226 26.5 68 34.6774 68 44.7647C68 47.3799 65.8799 49.5 63.2647 49.5H30.7353C28.1201 49.5 26 47.3799 26 44.7647Z" fill="currentColor"/>
<circle opacity="0.3" cx="46.5" cy="16" r="10.5" fill="currentColor"/>
<path d="M9 48.5294C9 35.8106 19.3106 25.5 32.0294 25.5H35.9706C48.6894 25.5 59 35.8106 59 48.5294C59 51.8269 56.3269 54.5 53.0294 54.5H14.9706C11.6731 54.5 9 51.8269 9 48.5294Z" fill="currentColor"/>
<circle cx="34" cy="13.5" r="13" fill="currentColor"/>
</svg>
