<svg width="160" height="120" fill="none" xmlns="http://www.w3.org/2000/svg">
  <g clip-path="url(#clip0)">
    <path
        fill-rule="evenodd"
        clip-rule="evenodd"
        d="M156.372 56.723s-1.3 10.782-3.903 11.956c1.539-14.933-1.963-18.01-3.978-21.287-3.06-4.95-6.408-8.252-10.108-14.492-4.251-7.179-4.863-10.714-4.863-10.714s-2.558 6.122-1.148 9.883c-2.538-6.491-4.928-11.34-4.928-16.54C127.444 6.124 129.7 0 129.7 0s-10.373 9.508-19.384 22.267c-.942-2.587 1.653-8.815 1.653-8.815s-11.854 9.023-13.22 25.945c-.463 5.715-.123 8.705 1.416 12.699-4.721-4.818-4.488-14.105-4.488-14.105s-3.064 8.345-3.654 12.108c-1.288 8.136.817 20.784 7.198 28.1 8.008 9.192 22.907 21.468 22.334 41.425 0 0 21.796-15.706 30.541-33.854.077-.118.166-.18.235-.306 7.496-11.694 4.041-28.741 4.041-28.741z"
        fill="url(#paint0_linear)"
    />
    <path
        fill-rule="evenodd"
        clip-rule="evenodd"
        d="M129.399 1.17c.224-.763.374-1.17.374-1.17S119.4 9.507 110.389 22.267c-.942-2.587 1.653-8.817 1.653-8.817s-11.854 9.023-13.22 25.947c-.463 5.715-.12 8.703 1.418 12.697-2.34-2.386-3.463-5.872-4.002-8.78.288 4.39 1.144 8.632 2.382 12.376 2.274 6.87 5.839 12.065 10.366 16.208 1.843 1.688 3.846 3.2 5.741 4.487 1.382 1.206 2.899 2.665 4.259 4.395 2.593 3.3 4.616 7.587 5.677 10.414.707 1.879.989 3.11 1.116 3.927l.029.853c.046 1.254.107 1.132.275-.214.17-1.346.446-3.915.197-7.294l-.012-.166a63.462 63.462 0 00-.077-3.045c-.219-4.542-.962-10.536-2.421-16.424-1.458-5.888-3.635-11.668-5.636-18.232-2.001-6.565-3.828-13.912-4.253-19.147-.426-5.235.551-8.357 1.162-10.163.365-1.08.6-1.69.764-2.132.466-.93.976-1.855 1.525-2.782 3.212-5.418 7.826-10.896 10.461-13.637a31.999 31.999 0 011.606-1.568z"
        fill="url(#paint1_linear)"
    />
    <path
        fill-rule="evenodd"
        clip-rule="evenodd"
        d="M159.683 57.37c-.328 2.34-1.602 10.308-3.818 11.31 1.538-14.934-1.962-18.01-3.979-21.288-3.057-4.95-6.408-8.252-10.107-14.494-4.249-7.177-4.861-10.712-4.861-10.712l-.012.026c.175 1.483.389 3.043.815 4.678.779 2.97 2.26 6.187 4.611 10.701 2.35 4.517 5.57 10.332 7.413 15.477 1.843 5.146 2.307 9.621 2.384 13.866.077 4.246-.231 8.26-.825 11.296-.595 3.036-1.474 5.095-1.784 6.02-.31.928-.051.722 1.798-1.299 1.846-2.018 5.285-5.85 7.091-11.793 1.183-3.89 1.665-8.685 1.274-13.788z"
        fill="url(#paint2_linear)"
    />
    <path
        d="M97.496 86.927c.759.01 2.602-.112 3.025-.303 4.26-1.935 7.826-5.524 9.272-20.28h11.818c-1.73 15.262-7.222 21.13-10.655 24.882 3.668 4.007 9.685 10.428 10.955 28.137h-11.846c-1.224-17.507-4.985-21.467-9.544-23.536-.522-.236-2.874-.368-3.025-.276v23.812h-11.99V66.344h7.718c.96 3.45 2.372 6.781 4.272 9.6v10.983zM35.395 74.258v-7.914H0v7.914h11.702v45.105h11.99V74.258h11.702zM79.879 119.365V66.346h-40.02v53.019H51.85V74.548h16.035v44.817H79.88z"
        fill="#000"
    />
  </g>
  <defs>
    <linearGradient
        id="paint0_linear"
        x1="127.639"
        y1="126.82"
        x2="127.639"
        y2="10.833"
        gradientUnits="userSpaceOnUse"
    >
      <stop stop-color="#5C499E"/>
      <stop offset=".47" stop-color="#369CD7"/>
      <stop offset="1" stop-color="#8AD7F8"/>
    </linearGradient>
    <linearGradient
        id="paint1_linear"
        x1="58.523"
        y1="53.64"
        x2="120.397"
        y2="37.325"
        gradientUnits="userSpaceOnUse"
    >
      <stop stop-color="#5C499E"/>
      <stop offset="1" stop-color="#369CD7"/>
    </linearGradient>
    <linearGradient
        id="paint2_linear"
        x1="153.931"
        y1="84.781"
        x2="138.741"
        y2="21.231"
        gradientUnits="userSpaceOnUse"
    >
      <stop stop-color="#68C8F2"/>
      <stop offset="1" stop-color="#5C77BA"/>
    </linearGradient>
    <clipPath id="clip0">
      <path fill="#fff" d="M0 0h160v120H0z"/>
    </clipPath>
  </defs>
</svg>
