<svg width="24" height="26" viewBox="0 0 24 26" fill="none"
     xmlns="http://www.w3.org/2000/svg">
  <path d="M15.3199 24.2933H13.9216C11.3307 24.2933 8.84099 23.2875 6.9771 21.4879L2.0519 16.7325C1.64303 16.3378 1.41211 15.7896 1.41211 15.2213C1.41211 14.3568 1.94706 13.5758 2.75564 13.2699C3.36823 13.0382 4.05419 13.1087 4.60684 13.4602L5.86642 14.2613C6.53215 14.6847 7.40306 14.2064 7.40306 13.4175V3.69107C7.40306 3.16731 7.60996 2.66475 7.97873 2.2928C8.35165 1.91666 8.85938 1.70508 9.38905 1.70508H9.47136C10.001 1.70508 10.5088 1.91666 10.8817 2.2928C11.2505 2.66475 11.4574 3.16731 11.4574 3.69107V9.60512C11.4574 9.70749 11.5813 9.75853 11.6534 9.68583L11.7145 9.62426C12.1059 9.22942 12.6389 9.00731 13.1949 9.00731C13.7509 9.00731 14.2839 9.22941 14.6754 9.62426L14.8699 9.82051C14.9044 9.85526 14.9606 9.85526 14.995 9.82051C15.3257 9.487 15.7758 9.2994 16.2455 9.2994H16.4306C17.1278 9.2994 17.784 9.62918 18.2001 10.1887L18.3175 10.3466C18.3649 10.4104 18.4605 10.4197 18.5274 10.3767C18.7628 10.2253 19.359 9.95867 20.4347 10.1757C21.8827 10.4678 21.8827 12.2203 21.8827 12.8045V17.7309C21.8827 19.4994 21.169 21.1926 19.9033 22.4276C18.6775 23.6238 17.0326 24.2933 15.3199 24.2933Z"
        stroke="currentColor" stroke-width="2" />
</svg>